<?xml version="1.0" encoding="UTF-8"?>
<svg width="157px" height="52px" viewBox="0 0 157 52" version="1.1" xmlns="http://www.w3.org/2000/svg" xmlns:xlink="http://www.w3.org/1999/xlink">
    <!-- Generator: Sketch 50 (54983) - http://www.bohemiancoding.com/sketch -->
    <title>Group</title>
    <desc>Created with Sketch.</desc>
    <defs>
        <polygon id="path-1" points="0.000150190114 0.10405618 156.710768 0.10405618 156.710768 51.8762831 0.000150190114 51.8762831"></polygon>
    </defs>
    <g id="Symbols" stroke="none" stroke-width="1" fill="none" fill-rule="evenodd">
        <g id="app-store-and-google-play">
            <g id="app">
                <g id="Group">
                    <g id="Group-3" transform="translate(0.000000, 0.199315)">
                        <mask id="mask-2" fill="white">
                            <use xlink:href="#path-1"></use>
                        </mask>
                        <g id="Clip-2"></g>
                        <path d="M157,44.8006854 C157,48.6536946 153.893753,51.8006854 150,51.8006854 L7,51.8006854 C3.10775185,51.8006854 -1.55616974e-13,48.6536946 -1.55616974e-13,44.8006854 L-1.55616974e-13,6.80068539 C-1.55616974e-13,2.94737144 3.10775185,-0.199314607 7,-0.199314607 L150,-0.199314607 C153.893753,-0.199314607 157,2.94737144 157,6.80068539 L157,44.8006854 Z" id="Fill-1" fill="#231F20" mask="url(#mask-2)"></path>
                    </g>
                    <path d="M40.8657989,34.5246573 C40.0361487,36.3818933 39.639046,37.2107022 38.5711943,38.8519382 C37.0804072,41.1436011 34.9801487,43.9974101 32.3776544,44.0213764 C30.0644262,44.0429157 29.4705745,42.500882 26.3319015,42.5184775 C23.1932285,42.5354663 22.5377989,44.0483764 20.2242703,44.0268371 C17.621776,44.0025674 15.6311563,41.425736 14.1406696,39.1343764 C9.97289392,32.726882 9.53764297,25.2072303 12.1076962,21.2097135 C13.9346087,18.3686461 16.8155555,16.7058708 19.5252856,16.7058708 C22.2839776,16.7058708 24.018373,18.2339494 26.2991601,18.2339494 C28.5114605,18.2339494 29.8601677,16.7034438 33.0496049,16.7034438 C35.4601563,16.7034438 38.0145897,18.0288708 39.8348939,20.3220506 C33.8714452,23.622118 34.8398711,32.2251067 40.8657989,34.5246573" id="Fill-4" fill="#FEFEFE"></path>
                    <path d="M30.6299821,14.1437225 C31.7879479,12.6417337 32.6686627,10.5199584 32.3496589,8.35176742 C30.4569631,8.48343034 28.2422597,9.69994719 26.9491228,11.2853629 C25.7758376,12.7251607 24.8071114,14.8602843 25.184389,16.9350371 C27.2507046,16.9996551 29.3885106,15.7534079 30.6299821,14.1437225" id="Fill-6" fill="#FEFEFE"></path>
                    <path d="M54.9791338,24.0311225 C55.180689,24.8232236 55.3981643,25.6459652 55.6778183,26.5351449 L57.2869551,31.2410326 L52.7076586,31.2410326 L54.2942669,26.5042011 C54.5357726,25.7363697 54.7652631,24.9069539 54.9791338,24.0311225 Z M53.5625407,21.1129989 L47.5924837,38.8614034 L50.3265445,38.8614034 L52.1087004,33.4116506 L57.8892175,33.4116506 L59.7221376,38.8614034 L62.5315939,38.8614034 L56.5360046,21.1129989 L53.5625407,21.1129989 Z" id="Fill-8" fill="#FEFEFE"></path>
                    <path d="M69.5947947,27.9370213 C71.9650951,27.9370213 73.0257376,30.1543584 73.0257376,32.3519764 C73.0257376,35.1860663 71.6722243,36.946527 69.4938669,36.946527 C68.0066844,36.946527 66.7201559,35.9241674 66.3615019,34.4546393 C66.299924,34.2271112 66.2671825,33.9255607 66.2671825,33.585482 L66.2671825,31.4260888 C66.2671825,31.2304146 66.3104373,30.9931787 66.3515894,30.7632236 C66.3648061,30.6898079 66.3792243,30.6163921 66.3897376,30.5454034 C66.7862395,29.0088303 68.1025057,27.9370213 69.5947947,27.9370213 M70.2571331,25.7139202 C68.4461407,25.7139202 66.9959049,26.419864 66.0301825,27.7619764 L65.9241483,25.9966618 L63.49227,25.9966618 L63.5066882,26.2223697 C63.5784791,27.3220888 63.6082167,28.5325382 63.6082167,30.2702461 L63.6082167,43.9504483 L66.2671825,43.9504483 L66.2671825,37.5663135 C67.0920266,38.5631899 68.4091939,39.1435382 69.9014829,39.1435382 C71.4556502,39.1435382 72.8872624,38.528909 73.9304829,37.413718 C75.095057,36.1708079 75.7093346,34.3836506 75.7093346,32.2488303 C75.7093346,30.3621674 75.1758593,28.7309427 74.1647795,27.5326281 C73.1744259,26.3597966 71.78727,25.7139202 70.2571331,25.7139202" id="Fill-10" fill="#FEFEFE"></path>
                    <path d="M83.2867262,27.9370213 C85.6558251,27.9370213 86.7167681,30.1543584 86.7167681,32.3519764 C86.7167681,35.1860663 85.3623536,36.946527 83.1851977,36.946527 C81.698616,36.946527 80.4108859,35.9241674 80.0528327,34.4546393 C79.9912548,34.2271112 79.9591141,33.9255607 79.9591141,33.585482 L79.9591141,31.4260888 C79.9591141,31.2292011 80.0017681,30.9910551 80.0438213,30.7611 C80.057038,30.6885944 80.0702548,30.6163921 80.08227,30.5454034 C80.47727,29.0088303 81.7941369,27.9370213 83.2867262,27.9370213 M83.9484639,25.7139202 C82.1380722,25.7139202 80.6878365,26.419864 79.7212129,27.7619764 L79.6151787,25.9966618 L77.1842015,25.9966618 L77.1974183,26.2223697 C77.2698099,27.3233022 77.3001483,28.5325382 77.3001483,30.2702461 L77.3001483,43.9504483 L79.9591141,43.9504483 L79.9591141,37.5663135 C80.7839582,38.5631899 82.1002243,39.1435382 83.5925133,39.1435382 C85.1463802,39.1435382 86.5782928,38.528909 87.6230152,37.413718 C88.7860875,36.1708079 89.4009658,34.3836506 89.4009658,32.2488303 C89.4009658,30.3621674 88.8665894,28.7309427 87.8555095,27.5326281 C86.8657567,26.3597966 85.4786008,25.7139202 83.9484639,25.7139202" id="Fill-12" fill="#FEFEFE"></path>
                    <path d="M101.100986,28.633227 C98.6195449,27.6627438 97.8247388,26.8994629 97.8247388,25.4893955 C97.8247388,24.3020022 98.7586209,23.1042944 100.846564,23.1042944 C102.569244,23.1042944 103.671039,23.7095191 103.967815,23.8957888 L104.1931,24.0362494 L104.94345,21.7952494 L104.795062,21.7075753 C104.349598,21.4439461 103.080191,20.830227 100.923161,20.830227 C97.5324688,20.830227 95.1642711,22.8518899 95.1642711,25.7454404 C95.1642711,28.0792719 96.6472483,29.7104966 99.8309783,30.8793843 C102.087435,31.7312494 102.927298,32.6037438 102.927298,34.0996652 C102.927298,35.7927775 101.631758,36.8430472 99.5477198,36.8430472 C98.1903015,36.8430472 96.7935335,36.4435079 95.7154688,35.7457551 L95.4850772,35.5964966 L94.7713738,37.889373 L94.9023395,37.9770472 C95.9062103,38.6538674 97.7953015,39.1438112 99.3957274,39.1438112 C103.965412,39.1438112 105.585963,36.3294404 105.585963,33.9197663 C105.585963,31.4351596 104.286819,29.9031371 101.100986,28.633227" id="Fill-14" fill="#FEFEFE"></path>
                    <path d="M110.371981,22.9388056 L107.76408,23.7657944 L107.76408,25.9964798 L105.855164,25.9964798 L105.855164,28.1425247 L107.76408,28.1425247 L107.76408,34.7165697 C107.76408,36.3056258 108.065061,37.4196034 108.684746,38.123727 C109.278898,38.7814348 110.192354,39.1436596 111.257202,39.1436596 C112.262274,39.1436596 112.976278,38.9431315 113.312403,38.8229966 L113.461392,38.7699067 L113.334031,36.619918 L113.079008,36.6987944 C112.742883,36.8031539 112.397746,36.8431989 111.842343,36.8431989 C110.812038,36.8431989 110.371981,36.1848843 110.371981,34.6392101 L110.371981,28.1425247 L113.579441,28.1425247 L113.579441,25.9964798 L110.371981,25.9964798 L110.371981,22.9388056 Z" id="Fill-16" fill="#FEFEFE"></path>
                    <path d="M120.091535,27.8339056 C122.483462,27.8339056 123.572341,30.188973 123.572341,32.3780966 C123.572341,35.0699056 122.08636,37.0236135 120.041071,37.0236135 L120.015238,37.0236135 C117.998786,37.0236135 116.535033,35.1023663 116.535033,32.4554562 C116.535033,30.1552989 117.635025,27.8339056 120.091535,27.8339056 M120.168432,25.7139506 C116.448223,25.7139506 113.850535,28.5183101 113.850535,32.5312989 C113.850535,36.4247596 116.364417,39.1435685 119.964774,39.1435685 L119.989405,39.1435685 C123.033158,39.1435685 126.307303,37.0023775 126.307303,32.3004337 C126.307303,30.388591 125.721862,28.7464449 124.613158,27.5505573 C123.497846,26.3495124 121.9602,25.7139506 120.168432,25.7139506" id="Fill-18" fill="#FEFEFE"></path>
                    <path d="M134.451091,25.8386056 L134.291589,25.7976506 C134.057293,25.7387966 133.866251,25.7139202 133.630452,25.7139202 C132.239392,25.7139202 130.991312,26.540909 130.296833,27.8757404 L130.218734,25.9966618 L127.832814,25.9966618 L127.848133,26.2223697 C127.919023,27.2853809 127.94846,28.4785382 127.94846,30.0891337 L127.923829,38.8614034 L130.582494,38.8614034 L130.582494,32.0176618 C130.582494,31.6451225 130.607726,31.292909 130.655787,30.9767966 C130.955567,29.3331337 132.054057,28.2707292 133.453228,28.2707292 C133.725373,28.2707292 133.939544,28.2931787 134.166631,28.3156281 L134.451091,28.3453584 L134.451091,25.8386056 Z" id="Fill-20" fill="#FEFEFE"></path>
                    <path d="M140.251614,27.7313966 C141.061138,27.7313966 141.71837,27.9844079 142.203484,28.4834528 C142.968553,29.2694865 143.102222,30.4274528 143.119344,30.9832281 L137.055268,30.9832281 C137.302481,29.4323966 138.262796,27.7313966 140.251614,27.7313966 M140.428838,25.6884978 C136.889458,25.6884978 134.417028,28.5447337 134.417028,32.6344753 C134.417028,36.5728348 136.876541,39.1181157 140.68326,39.1181157 C142.685294,39.1181157 144.077857,38.6742843 144.892789,38.3026551 L145.052891,38.2298461 L144.541944,36.2288124 L144.320264,36.3192169 C143.595747,36.6168236 142.632427,36.9208011 140.989047,36.9208011 C139.833785,36.9208011 137.169713,36.536127 137.006606,33.0273404 L145.58877,33.0534303 L145.623313,32.8820258 C145.677081,32.6089921 145.702914,32.2413067 145.702914,31.7610708 C145.702914,28.9597449 144.322066,25.6884978 140.428838,25.6884978" id="Fill-22" fill="#FEFEFE"></path>
                    <path d="M48.7993213,16.4293483 C49.100903,16.4791011 49.5397586,16.4791011 50.006249,16.4791011 C52.5564772,16.491236 53.9409297,15.1831011 53.9409297,12.9147978 C53.9547471,10.9083034 52.7207852,9.67419101 50.1978916,9.67419101 C49.5815114,9.67419101 49.1147205,9.72485393 48.7993213,9.7864382 L48.7993213,16.4293483 Z M47.5923935,8.9888764 C48.3331312,8.88937079 49.1970247,8.81474157 50.1429221,8.81474157 C51.857192,8.81474157 53.0773365,9.16361798 53.8865608,9.84923596 C54.7228194,10.5342472 55.202827,11.5189888 55.202827,12.8774831 C55.202827,14.2484157 54.7228194,15.3696742 53.8730437,16.1426629 C52.9953327,16.9277865 51.5691274,17.3515955 49.7728536,17.3515955 C48.9089601,17.3515955 48.2096749,17.3267191 47.5923935,17.2517865 L47.5923935,8.9888764 Z" id="Fill-24" fill="#FEFEFE"></path>
                    <path d="M59.5203122,16.5911056 C60.67197,16.5911056 61.5361639,15.6066674 61.5361639,14.2354315 C61.5361639,13.2136787 60.9738521,11.9301169 59.5479471,11.9301169 C58.1352589,11.9301169 57.5182779,13.1266112 57.5182779,14.2730494 C57.5182779,15.5942292 58.3410194,16.5911056 59.5064947,16.5911056 L59.5203122,16.5911056 Z M59.4791601,17.4138472 C57.6964034,17.4138472 56.2981335,16.2176562 56.2981335,14.3106674 C56.2981335,12.2917348 57.7651905,11.1076787 59.5887989,11.1076787 C61.4950118,11.1076787 62.7833426,12.3660607 62.7833426,14.1984202 C62.7833426,16.4418472 61.0696734,17.4138472 59.4932779,17.4138472 L59.4791601,17.4138472 Z" id="Fill-26" fill="#FEFEFE"></path>
                    <path d="M64.6924992,11.2444989 L65.5837274,14.2982292 C65.7615525,14.9711056 65.9402787,15.6066674 66.0634346,16.2300944 L66.1045867,16.2300944 C66.2553776,15.6191056 66.4749555,14.9711056 66.6942331,14.3106674 L67.7774042,11.2444989 L68.792389,11.2444989 L69.8208909,14.2603079 C70.0672027,14.9711056 70.259446,15.6191056 70.4102369,16.2300944 L70.451389,16.2300944 C70.5610278,15.6191056 70.739754,14.9835438 70.9587312,14.2730494 L71.9046285,11.2444989 L73.0977388,11.2444989 L70.9587312,17.2767236 L69.8617426,17.2767236 L68.8473586,14.3980382 C68.6145639,13.7124202 68.4220202,13.114173 68.2571114,12.4036787 L68.2300772,12.4036787 C68.0654688,13.1266112 67.8600087,13.762173 67.6266133,14.4104764 L66.5572597,17.2767236 L65.4605715,17.2767236 L63.4582369,11.2444989 L64.6924992,11.2444989 Z" id="Fill-28" fill="#FEFEFE"></path>
                    <path d="M74.3052373,12.8774831 C74.3052373,12.241618 74.2914198,11.7434831 74.2499673,11.2444382 L75.3199217,11.2444382 L75.388108,12.2294831 L75.415743,12.2294831 C75.7449597,11.6685506 76.5127316,11.107618 77.6094198,11.107618 C78.5282829,11.107618 79.9541878,11.6060562 79.9541878,13.6750449 L79.9541878,17.2766629 L78.7481612,17.2766629 L78.7481612,13.799427 C78.7481612,12.827427 78.349857,12.0052921 77.2120167,12.0052921 C76.4304274,12.0052921 75.813146,12.5161685 75.5941688,13.1265506 C75.5391992,13.2636742 75.5118646,13.4629888 75.5118646,13.6377303 L75.5118646,17.2766629 L74.3052373,17.2766629 L74.3052373,12.8774831 Z" id="Fill-30" fill="#FEFEFE"></path>
                    <polygon id="Fill-32" fill="#FEFEFE" points="81.9151901 17.2766629 83.1221179 17.2766629 83.1221179 8.42824719 81.9151901 8.42824719"></polygon>
                    <path d="M87.8657825,16.5911056 C89.0177407,16.5911056 89.8819346,15.6066674 89.8819346,14.2354315 C89.8819346,13.2136787 89.3196228,11.9301169 87.8940183,11.9301169 C86.48133,11.9301169 85.8640487,13.1266112 85.8640487,14.2730494 C85.8640487,15.5942292 86.6867901,16.5911056 87.8525658,16.5911056 L87.8657825,16.5911056 Z M87.8252312,17.4138472 C86.0430753,17.4138472 84.6442046,16.2176562 84.6442046,14.3106674 C84.6442046,12.2917348 86.1106608,11.1076787 87.93487,11.1076787 C89.8404821,11.1076787 91.1294137,12.3660607 91.1294137,14.1984202 C91.1294137,16.4418472 89.4154441,17.4138472 87.8387483,17.4138472 L87.8252312,17.4138472 Z" id="Fill-34" fill="#FEFEFE"></path>
                    <path d="M96.1490977,14.1985112 C94.8325312,14.1736348 93.3381395,14.3853876 93.3381395,15.5570056 C93.3381395,16.2796348 93.8589989,16.6039382 94.4624627,16.6039382 C95.3398734,16.6039382 95.9021852,16.1051966 96.0938278,15.5943202 C96.1355806,15.4823764 96.1490977,15.3570843 96.1490977,15.2451404 L96.1490977,14.1985112 Z M97.3277897,15.8312528 C97.3277897,16.3545674 97.3554247,16.8651404 97.4239114,17.2765112 L96.3404399,17.2765112 L96.2308011,16.5168708 L96.1902498,16.5168708 C95.8333981,16.9901292 95.1061776,17.4139382 94.160881,17.4139382 C92.8172802,17.4139382 92.1315122,16.5541854 92.1315122,15.6813876 C92.1315122,14.2233876 93.5571167,13.4255225 96.120862,13.4379607 L96.120862,13.3135787 C96.120862,12.8154438 95.9706719,11.9053315 94.6132536,11.918073 C93.9818544,11.918073 93.3381395,12.0794663 92.8719494,12.3661517 L92.5974019,11.6310843 C93.1458962,11.3198258 93.9545198,11.1077697 94.7913791,11.1077697 C96.834265,11.1077697 97.3277897,12.3661517 97.3277897,13.5753876 L97.3277897,15.8312528 Z" id="Fill-35" fill="#FEFEFE"></path>
                    <path d="M103.786505,13.6999213 C103.786505,13.5503596 103.772988,13.3759213 103.731235,13.2263596 C103.553711,12.5410449 102.895277,11.9676742 101.990532,11.9676742 C100.742452,11.9676742 100.001714,12.9645506 100.001714,14.2860337 C100.001714,15.5195393 100.674266,16.5285506 101.962897,16.5285506 C102.772121,16.5285506 103.512559,16.0304157 103.731235,15.2204157 C103.772988,15.0711573 103.786505,14.9209888 103.786505,14.7468539 L103.786505,13.6999213 Z M104.992832,8.42824719 L104.992832,15.7185506 C104.992832,16.2546067 105.007551,16.8652921 105.047802,17.2766629 L103.964931,17.2766629 L103.910262,16.2300337 L103.882627,16.2300337 C103.512559,16.9029101 102.717152,17.4137865 101.633981,17.4137865 C100.029349,17.4137865 98.78157,16.1802809 98.78157,14.3479213 C98.7677525,12.3286854 100.153106,11.107618 101.756836,11.107618 C102.785939,11.107618 103.471406,11.5444719 103.759471,12.017427 L103.786505,12.017427 L103.786505,8.42824719 L104.992832,8.42824719 Z" id="Fill-36" fill="#FEFEFE"></path>
                    <path d="M112.644778,16.5911056 C113.796436,16.5911056 114.660029,15.6066674 114.660029,14.2354315 C114.660029,13.2136787 114.098619,11.9301169 112.672413,11.9301169 C111.259725,11.9301169 110.643044,13.1266112 110.643044,14.2730494 C110.643044,15.5942292 111.465486,16.5911056 112.63066,16.5911056 L112.644778,16.5911056 Z M112.603025,17.4138472 C110.82087,17.4138472 109.421999,16.2176562 109.421999,14.3106674 C109.421999,12.2917348 110.889957,11.1076787 112.712965,11.1076787 C114.619478,11.1076787 115.907809,12.3660607 115.907809,14.1984202 C115.907809,16.4418472 114.193539,17.4138472 112.617744,17.4138472 L112.603025,17.4138472 Z" id="Fill-37" fill="#FEFEFE"></path>
                    <path d="M117.430917,12.8774831 C117.430917,12.241618 117.416799,11.7434831 117.375647,11.2444382 L118.445301,11.2444382 L118.514689,12.2294831 L118.541422,12.2294831 C118.870639,11.6685506 119.638111,11.107618 120.735099,11.107618 C121.653962,11.107618 123.080168,11.6060562 123.080168,13.6750449 L123.080168,17.2766629 L121.87324,17.2766629 L121.87324,13.799427 C121.87324,12.827427 121.476137,12.0052921 120.337396,12.0052921 C119.556407,12.0052921 118.938825,12.5161685 118.719248,13.1265506 C118.664879,13.2636742 118.637244,13.4629888 118.637244,13.6377303 L118.637244,17.2766629 L117.430917,17.2766629 L117.430917,12.8774831 Z" id="Fill-38" fill="#FEFEFE"></path>
                    <path d="M129.401549,9.7993618 L129.401549,11.2446202 L131.128736,11.2446202 L131.128736,12.0794966 L129.401549,12.0794966 L129.401549,15.3325416 C129.401549,16.0800472 129.634945,16.5038562 130.306895,16.5038562 C130.635211,16.5038562 130.827755,16.4789798 131.006181,16.429227 L131.060549,17.2641034 C130.827755,17.3387326 130.457686,17.4139685 129.991196,17.4139685 C129.429184,17.4139685 128.976211,17.239227 128.688146,16.9528449 C128.35893,16.6164067 128.222257,16.0800472 128.222257,15.3695528 L128.222257,12.0794966 L127.193755,12.0794966 L127.193755,11.2446202 L128.222257,11.2446202 L128.222257,10.1354966 L129.401549,9.7993618 Z" id="Fill-39" fill="#FEFEFE"></path>
                    <path d="M132.486905,8.42824719 L133.693232,8.42824719 L133.693232,12.1918652 L133.721167,12.1918652 C133.91251,11.8803034 134.214091,11.5939213 134.585361,11.4191798 C134.941612,11.2201685 135.365749,11.107618 135.819323,11.107618 C136.709951,11.107618 138.136156,11.6060562 138.136156,13.6874831 L138.136156,17.2766629 L136.929829,17.2766629 L136.929829,13.8121685 C136.929829,12.827427 136.532125,12.017427 135.393985,12.017427 C134.612395,12.017427 134.009232,12.5161685 133.775837,13.1141124 C133.707049,13.2636742 133.693232,13.4256742 133.693232,13.6377303 L133.693232,17.2766629 L132.486905,17.2766629 L132.486905,8.42824719 Z" id="Fill-40" fill="#FEFEFE"></path>
                    <path d="M144.307317,13.6625764 C144.320234,12.9769584 143.991618,11.880273 142.647717,11.880273 C141.413154,11.880273 140.892295,12.9023292 140.796473,13.6625764 L144.307317,13.6625764 Z M140.782656,14.4477 C140.810591,15.9308798 141.839093,16.5415652 143.04542,16.5415652 C143.909013,16.5415652 144.44399,16.4041382 144.883447,16.2421382 L145.102724,17.0148236 C144.676785,17.1892618 143.936648,17.401318 142.881112,17.401318 C140.851143,17.401318 139.617481,16.1672056 139.617481,14.3606326 C139.617481,12.5285764 140.810591,11.0951494 142.743238,11.0951494 C144.910481,11.0951494 145.471892,12.8273966 145.471892,13.9368236 C145.471892,14.161318 145.458975,14.3357562 145.43134,14.4601382 L140.782656,14.4477 Z" id="Fill-41" fill="#FEFEFE"></path>
                </g>
            </g>
        </g>
    </g>
</svg>