<?xml version="1.0" encoding="UTF-8"?>
<svg width="487px" height="333px" viewBox="0 0 487 333" version="1.1" xmlns="http://www.w3.org/2000/svg" xmlns:xlink="http://www.w3.org/1999/xlink">
    <!-- Generator: Sketch 50 (54983) - http://www.bohemiancoding.com/sketch -->
    <title>Skool Tales- Landing</title>
    <desc>Created with Sketch.</desc>
    <defs></defs>
    <g id="Finals" stroke="none" stroke-width="1" fill="none" fill-rule="evenodd">
        <g id="Skool-Tales--Landing" transform="translate(-798.000000, -1955.000000)">
            <g id="modul-three" transform="translate(153.000000, 1957.000000)">
                <g id="illustration-3" transform="translate(645.000000, 0.000000)">
                    <g id="Group-52" transform="translate(0.000000, 17.000000)">
                        <g id="Group-31-Copy" transform="translate(220.000000, 67.000000)">
                            <path d="M25.4736842,104.855439 L14.0256515,104.855439 C12.3084115,104.855439 10.7804125,103.52565 10.7804125,101.62345 L10.7804125,46.5093797 C10.7804125,44.7984502 12.1184668,43.2794923 14.0256515,43.2794923 L25.4736842,43.2794923 L25.4736842,40.8083832 L14.0256515,40.8083832 C10.9724676,40.8083832 8.49122807,43.2794923 8.49122807,46.3202106 L8.49122807,101.43428 C8.49122807,104.474999 10.9724676,106.946108 14.0256515,106.946108 L25.4736842,106.946108 L25.4736842,104.855439 Z" id="Fill-2" fill="#EFDADD"></path>
                            <path d="M15.0711273,37.994012 L3.32580798,37.994012 C1.56440697,37.994012 0,40.0173608 0,42.2922308 L0,105.463192 C0,107.73713 1.56729333,109.760479 3.32580798,109.760479 L15.0711273,109.760479 C16.8332499,109.760479 18.3976568,107.73713 18.3976568,105.463192 L18.3976568,42.2922308 C18.4005432,40.0173608 16.8332499,37.994012 15.0711273,37.994012 Z" id="Fill-3" fill="#EFDADD"></path>
                            <path d="M216.526316,104.855439 L227.974578,104.855439 C229.691747,104.855439 231.219682,103.52565 231.219682,101.62345 L231.219682,46.5093797 C231.219682,44.7984502 229.881683,43.2794923 227.974578,43.2794923 L216.526316,43.2794923 L216.526316,40.8083832 L227.974578,40.8083832 C231.027635,40.8083832 233.508772,43.2794923 233.508772,46.3202106 L233.508772,101.43428 C233.508772,104.474999 231.027635,106.946108 227.974578,106.946108 L216.526316,106.946108 L216.526316,104.855439 Z" id="Fill-4" fill="#EFDADD"></path>
                            <path d="M226.928148,39.4011976 L238.674191,39.4011976 C240.435593,39.4011976 242,41.3451994 242,43.5308588 L242,104.224527 C242,106.409292 240.432706,108.353293 238.674191,108.353293 L226.928148,108.353293 C225.166746,108.353293 223.602339,106.409292 223.602339,104.224527 L223.602339,43.5308588 C223.602339,41.3451994 225.166746,39.4011976 226.928148,39.4011976 Z" id="Fill-5" fill="#EFDADD"></path>
                            <path d="M18.3976608,199.820359 L18.3976608,230.056664 C18.3976608,232.718676 21.1633018,235 24.3914416,235 L43.5341321,235 C46.7622719,235 49.5321637,232.718676 49.5321637,230.056664 L49.5321637,199.820359 L18.3976608,199.820359 Z" id="Fill-6" fill="#F0818E"></path>
                            <path d="M195.298246,199.820359 L195.298246,230.056664 C195.298246,232.718676 198.063887,235 201.292026,235 L220.434717,235 C223.662857,235 226.432749,232.718676 226.432749,230.056664 L226.432749,199.820359 L195.298246,199.820359 Z" id="Fill-6-Copy" fill="#F0818E"></path>
                            <path d="M207.661155,19.2298401 C152.825493,-6.40994668 89.1745073,-6.40994668 34.338138,19.2298401 C27.2453088,22.4810169 22.6432749,29.7529593 22.6432749,37.5976844 L22.6432749,168.862275 L219.356725,168.862275 L219.356725,37.5976844 C219.356725,29.7529593 214.753984,22.6742958 207.661155,19.2298401 Z" id="Fill-8" fill="#F1DCE0"></path>
                            <path d="M198.859517,101.317365 L43.140483,101.317365 C39.6805168,101.317365 36.7953216,98.4641923 36.7953216,95.0410857 L36.7953216,51.3062197 C36.7953216,47.8838142 39.6805168,45.0299401 43.140483,45.0299401 L198.859517,45.0299401 C202.320192,45.0299401 205.204678,47.8838142 205.204678,51.3062197 L205.204678,95.0410857 C205.204678,98.4641923 202.320192,101.317365 198.859517,101.317365 Z" id="Fill-9" fill="#F0818E"></path>
                            <path d="M218.111473,167.45509 L22.6589094,167.45509 C18.8259244,167.45509 15.5672515,170.686124 15.5672515,174.489896 L15.5672515,195.59712 C15.5672515,199.400893 18.8259244,202.634731 22.6589094,202.634731 L217.917916,202.634731 C221.750901,202.634731 225.009574,199.400893 225.009574,195.59712 L225.009574,174.489896 C225.200305,170.497547 221.940925,167.45509 218.111473,167.45509 Z" id="Fill-17" fill="#F6E0E2"></path>
                            <path d="M218.111473,195.903715 L22.6589094,195.903715 C18.8259244,195.903715 15.5672515,192.532122 15.5672515,188.562874 L15.5672515,196.69815 C15.5672515,200.667397 18.8259244,204.041916 22.6589094,204.041916 L217.917916,204.041916 C221.750901,204.041916 225.009574,200.667397 225.009574,196.69815 L225.009574,188.562874 C225.200305,192.532122 221.940925,195.903715 218.111473,195.903715 Z" id="Fill-18" fill="#EFDADD"></path>
                            <polygon id="Fill-19" fill="#F9E5E7" points="67.9298246 168.862275 175.48538 168.862275 175.48538 109.760479 67.9298246 109.760479"></polygon>
                            <polygon id="Fill-20" fill="#F9E5E7" points="163.000507 132.275449 80.4146975 132.275449 67.9298246 109.760479 175.48538 109.760479"></polygon>
                            <polygon id="Fill-21" fill="#F295A0" points="79.251462 168.862275 161.333333 168.862275 161.333333 132.275449 79.251462 132.275449"></polygon>
                            <path d="M30.9079455,167.45509 L63.5298246,167.45509 L63.5298246,142.125749 L30.9079455,142.125749 C23.913441,142.125749 18.2432749,147.795915 18.2432749,154.790419 L18.2432749,154.790419 C18.2432749,161.784924 23.913441,167.45509 30.9079455,167.45509 Z" id="Fill-22" fill="#F295A0"></path>
                            <path d="M42.3017544,154.79148 C42.3017544,159.453214 38.5006039,163.233533 33.8123049,163.233533 C29.1211602,163.233533 25.3192982,159.453214 25.3192982,154.79148 C25.3192982,150.127625 29.1211602,146.347305 33.8123049,146.347305 C38.5006039,146.347305 42.3017544,150.127625 42.3017544,154.79148 Z" id="Fill-23" fill="#FCFCFD"></path>
                            <path d="M55.0385965,154.791423 C55.0385965,157.89816 52.5030775,160.419162 49.3791243,160.419162 C46.2518047,160.419162 43.7169591,157.89816 43.7169591,154.791423 C43.7169591,151.682679 46.2518047,149.161677 49.3791243,149.161677 C52.5030775,149.161677 55.0385965,151.682679 55.0385965,154.791423 Z" id="Fill-24" fill="#FCFCFD"></path>
                            <path d="M178.470175,167.45509 L211.092054,167.45509 C218.086559,167.45509 223.756725,161.784924 223.756725,154.790419 L223.756725,154.790419 C223.756725,147.795915 218.086559,142.125749 211.092054,142.125749 L178.470175,142.125749 L178.470175,167.45509 Z" id="Fill-25" fill="#F295A0"></path>
                            <path d="M216.680702,154.79148 C216.680702,159.453214 212.879551,163.233533 208.188407,163.233533 C203.500108,163.233533 199.698246,159.453214 199.698246,154.79148 C199.698246,150.127625 203.500108,146.347305 208.188407,146.347305 C212.879551,146.347305 216.680702,150.127625 216.680702,154.79148 Z" id="Fill-28" fill="#FCFCFD"></path>
                            <path d="M196.867836,154.791423 C196.867836,157.89816 194.332317,160.419162 191.205671,160.419162 C188.081045,160.419162 185.546199,157.89816 185.546199,154.791423 C185.546199,151.682679 188.081045,149.161677 191.205671,149.161677 C194.332317,149.161677 196.867836,151.682679 196.867836,154.791423 Z" id="Fill-29" fill="#FCFCFD"></path>
                            <path d="M150.322025,140.718563 L92.9029578,140.718563 C91.5428011,140.718563 90.5730994,141.597622 90.5730994,142.828045 C90.5730994,144.059116 91.5428011,144.94012 92.9029578,144.94012 L150.515107,144.94012 C151.872404,144.94012 152.842105,144.059116 152.842105,142.828045 C152.842105,141.597622 151.680037,140.718563 150.322025,140.718563 Z" id="Fill-30" fill="#F9E5E7"></path>
                            <path d="M150.322025,153.383234 L92.9029578,153.383234 C91.5428011,153.383234 90.5730994,154.262292 90.5730994,155.492715 C90.5730994,156.72638 91.5428011,157.60479 92.9029578,157.60479 L150.515107,157.60479 C151.872404,157.60479 152.842105,156.72638 152.842105,155.492715 C152.649023,154.439271 151.680037,153.383234 150.322025,153.383234 Z" id="Fill-31" fill="#F9E5E7"></path>
                        </g>
                        <g id="Group-35" transform="translate(0.000000, 77.000000)">
                            <g id="Group-37" transform="translate(17.000000, 0.000000)">
                                <rect id="Rectangle-7" fill="#F295A0" x="34" y="77" width="10.0760095" height="156.96"></rect>
                                <rect id="Rectangle-8" fill="#EAC7CD" x="0" y="0" width="80.608076" height="80.64" rx="11.52"></rect>
                                <g id="Group-31-Copy" transform="translate(10.000000, 13.000000)">
                                    <path d="M6.21052632,24.986828 L3.41947703,24.986828 C3.00081106,24.986828 2.62828239,24.6699421 2.62828239,24.2166518 L2.62828239,11.0830862 C2.62828239,10.6753754 2.95450225,10.3134109 3.41947703,10.3134109 L6.21052632,10.3134109 L6.21052632,9.7245509 L3.41947703,9.7245509 C2.67510574,9.7245509 2.07017544,10.3134109 2.07017544,11.0380076 L2.07017544,24.1715732 C2.07017544,24.8961699 2.67510574,25.4850299 3.41947703,25.4850299 L6.21052632,25.4850299 L6.21052632,24.986828 Z" id="Fill-2" fill="#EFDADD"></path>
                                    <path d="M3.67436574,9.05389222 L0.810837484,9.05389222 C0.381405004,9.05389222 0,9.53605192 0,10.0781486 L0,25.1316542 C0,25.6735289 0.382108704,26.1556886 0.810837484,26.1556886 L3.67436574,26.1556886 C4.10397414,26.1556886 4.48537915,25.6735289 4.48537915,25.1316542 L4.48537915,10.0781486 C4.48608285,9.53605192 4.10397414,9.05389222 3.67436574,9.05389222 Z" id="Fill-3" fill="#EFDADD"></path>
                                    <path d="M52.7894737,24.986828 L55.5805789,24.986828 C55.9992275,24.986828 56.3717407,24.6699421 56.3717407,24.2166518 L56.3717407,11.0830862 C56.3717407,10.6753754 56.0455344,10.3134109 55.5805789,10.3134109 L52.7894737,10.3134109 L52.7894737,9.7245509 L55.5805789,9.7245509 C56.3249193,9.7245509 56.9298246,10.3134109 56.9298246,11.0380076 L56.9298246,24.1715732 C56.9298246,24.8961699 56.3249193,25.4850299 55.5805789,25.4850299 L52.7894737,25.4850299 L52.7894737,24.986828 Z" id="Fill-4" fill="#EFDADD"></path>
                                    <path d="M55.3254575,9.38922156 L58.1891623,9.38922156 C58.6185949,9.38922156 59,9.85247304 59,10.373311 L59,24.8364831 C59,25.3571078 58.6178912,25.8203593 58.1891623,25.8203593 L55.3254575,25.8203593 C54.896025,25.8203593 54.5146199,25.3571078 54.5146199,24.8364831 L54.5146199,10.373311 C54.5146199,9.85247304 54.896025,9.38922156 55.3254575,9.38922156 Z" id="Fill-5" fill="#EFDADD"></path>
                                    <path d="M4.48538012,47.6167665 L4.48538012,54.8220136 C4.48538012,55.4563654 5.15964796,56 5.94667378,56 L10.6136934,56 C11.4007192,56 12.0760234,55.4563654 12.0760234,54.8220136 L12.0760234,47.6167665 L4.48538012,47.6167665 Z" id="Fill-6" fill="#F0818E"></path>
                                    <path d="M47.6140351,47.6167665 L47.6140351,54.8220136 C47.6140351,55.4563654 48.2883029,56 49.0753287,56 L53.7423483,56 C54.5293741,56 55.2046784,55.4563654 55.2046784,54.8220136 L55.2046784,47.6167665 L47.6140351,47.6167665 Z" id="Fill-6-Copy" fill="#F0818E"></path>
                                    <path d="M50.6281329,4.58242997 C37.2591077,-1.52747666 21.7408923,-1.52747666 8.3716948,4.58242997 C6.64245132,5.3571785 5.52046784,7.0900669 5.52046784,8.9594482 L5.52046784,40.239521 L53.4795322,40.239521 L53.4795322,8.9594482 C53.4795322,7.0900669 52.3573764,5.40323645 50.6281329,4.58242997 Z" id="Fill-8" fill="#F1DCE0"></path>
                                    <path d="M48.4822789,24.1437126 L10.5177211,24.1437126 C9.67417557,24.1437126 8.97076023,23.4638075 8.97076023,22.6480885 L8.97076023,12.226163 C8.97076023,11.410611 9.67417557,10.7305389 10.5177211,10.7305389 L48.4822789,10.7305389 C49.3259972,10.7305389 50.0292398,11.410611 50.0292398,12.226163 L50.0292398,22.6480885 C50.0292398,23.4638075 49.3259972,24.1437126 48.4822789,24.1437126 Z" id="Fill-9" fill="#F0818E"></path>
                                    <path d="M53.1759375,39.9041916 L5.52427956,39.9041916 C4.5897915,39.9041916 3.79532164,40.6741401 3.79532164,41.580571 L3.79532164,46.6103775 C3.79532164,47.5168085 4.5897915,48.2874251 5.52427956,48.2874251 L53.1287481,48.2874251 C54.0632362,48.2874251 54.857706,47.5168085 54.857706,46.6103775 L54.857706,41.580571 C54.9042065,40.6292027 54.1095645,39.9041916 53.1759375,39.9041916 Z" id="Fill-17" fill="#F6E0E2"></path>
                                    <path d="M53.1759375,46.6834384 L5.52427956,46.6834384 C4.5897915,46.6834384 3.79532164,45.879995 3.79532164,44.9341317 L3.79532164,46.8727505 C3.79532164,47.8186138 4.5897915,48.6227545 5.52427956,48.6227545 L53.1287481,48.6227545 C54.0632362,48.6227545 54.857706,47.8186138 54.857706,46.8727505 L54.857706,44.9341317 C54.9042065,45.879995 54.1095645,46.6834384 53.1759375,46.6834384 Z" id="Fill-18" fill="#EFDADD"></path>
                                    <polygon id="Fill-19" fill="#F9E5E7" points="16.5614035 40.239521 42.7836257 40.239521 42.7836257 26.1556886 16.5614035 26.1556886"></polygon>
                                    <polygon id="Fill-20" fill="#F9E5E7" points="39.7397931 31.5209581 19.6052362 31.5209581 16.5614035 26.1556886 42.7836257 26.1556886"></polygon>
                                    <polygon id="Fill-21" fill="#F295A0" points="19.3216374 40.239521 39.3333333 40.239521 39.3333333 31.5209581 19.3216374 31.5209581"></polygon>
                                    <path d="M7.46570464,39.9041916 L15.4886762,39.9041916 L15.4886762,33.8682635 L7.46570464,33.8682635 C5.7989291,33.8682635 4.44774056,35.219452 4.44774056,36.8862275 L4.44774056,36.8862275 C4.44774056,38.5530031 5.7989291,39.9041916 7.46570464,39.9041916 Z" id="Fill-22" fill="#F295A0"></path>
                                    <path d="M10.3132376,36.8864804 C10.3132376,37.9973616 9.38651087,38.8982036 8.24349582,38.8982036 C7.09978698,38.8982036 6.17288676,37.9973616 6.17288676,36.8864804 C6.17288676,35.7750935 7.09978698,34.8742515 8.24349582,34.8742515 C9.38651087,34.8742515 10.3132376,35.7750935 10.3132376,36.8864804 Z" id="Fill-23" fill="#FCFCFD"></path>
                                    <path d="M13.4185008,36.8864668 C13.4185008,37.6267955 12.8003371,38.2275449 12.0387121,38.2275449 C11.2762664,38.2275449 10.6582669,37.6267955 10.6582669,36.8864668 C10.6582669,36.1456596 11.2762664,35.5449102 12.0387121,35.5449102 C12.8003371,35.5449102 13.4185008,36.1456596 13.4185008,36.8864668 Z" id="Fill-24" fill="#FCFCFD"></path>
                                    <path d="M43.5113238,39.9041916 L51.5342954,39.9041916 C53.2010709,39.9041916 54.5522594,38.5530031 54.5522594,36.8862275 L54.5522594,36.8862275 C54.5522594,35.219452 53.2010709,33.8682635 51.5342954,33.8682635 L43.5113238,33.8682635 L43.5113238,39.9041916 Z" id="Fill-25" fill="#F295A0"></path>
                                    <path d="M52.8271132,36.8864804 C52.8271132,37.9973616 51.9003865,38.8982036 50.7566776,38.8982036 C49.6136626,38.8982036 48.6867624,37.9973616 48.6867624,36.8864804 C48.6867624,35.7750935 49.6136626,34.8742515 50.7566776,34.8742515 C51.9003865,34.8742515 52.8271132,35.7750935 52.8271132,36.8864804 Z" id="Fill-28" fill="#FCFCFD"></path>
                                    <path d="M47.9967039,36.8864668 C47.9967039,37.6267955 47.3785402,38.2275449 46.6162586,38.2275449 C45.8544695,38.2275449 45.23647,37.6267955 45.23647,36.8864668 C45.23647,36.1456596 45.8544695,35.5449102 46.6162586,35.5449102 C47.3785402,35.5449102 47.9967039,36.1456596 47.9967039,36.8864668 Z" id="Fill-29" fill="#FCFCFD"></path>
                                    <path d="M36.6487582,33.5329341 L22.6498947,33.5329341 C22.3182862,33.5329341 22.0818713,33.742412 22.0818713,34.0356192 C22.0818713,34.3289809 22.3182862,34.5389222 22.6498947,34.5389222 L36.695832,34.5389222 C37.026743,34.5389222 37.2631579,34.3289809 37.2631579,34.0356192 C37.2631579,33.742412 36.9798436,33.5329341 36.6487582,33.5329341 Z" id="Fill-30" fill="#F9E5E7"></path>
                                    <path d="M36.6487582,36.5508982 L22.6498947,36.5508982 C22.3182862,36.5508982 22.0818713,36.7603761 22.0818713,37.0535833 C22.0818713,37.3475629 22.3182862,37.5568862 22.6498947,37.5568862 L36.695832,37.5568862 C37.026743,37.5568862 37.2631579,37.3475629 37.2631579,37.0535833 C37.2160841,36.8025497 36.9798436,36.5508982 36.6487582,36.5508982 Z" id="Fill-31" fill="#F9E5E7"></path>
                                </g>
                                <g id="Group-38" transform="translate(71.000000, 84.000000)">
                                    <path d="M26.8582077,81.6363329 C30.7975311,81.6363329 33.9912464,78.4473448 33.9912464,74.5138523 L33.9912464,43.1232951 C33.9912464,39.188988 30.7975311,36 26.8582077,36 L7.13303876,36 C3.19371532,36 0,39.188988 0,43.1232951 L0,74.5138523 C0,78.4473448 3.19371532,81.6363329 7.13303876,81.6363329 L26.8582077,81.6363329 Z" id="Fill-18" fill="#E71D36"></path>
                                    <path d="M17.5340153,26 C20.0375944,26 22.0672148,29.1458165 22.0672148,33.0263629 L22.0672148,38.978326 C20.7603611,39.6918773 19.2055153,40.1073011 17.5340153,40.1073011 C15.8625152,40.1073011 14.3076694,39.6918773 13,38.978326 L13,33.0263629 C13,29.1458165 15.0304361,26 17.5340153,26" id="Fill-30" fill="#EFDADD"></path>
                                    <path d="M0,18.8075553 C0,28.0902392 7.53521031,35.6151106 16.8324705,35.6151106 C26.1280991,35.6151106 33.6649409,28.0902392 33.6649409,18.8075553 C33.6649409,9.52487136 26.1280991,2 16.8324705,2 C7.53521031,2 0,9.52487136 0,18.8075553" id="Fill-40" fill="#F9E5E7"></path>
                                    <path d="M4.31828979,16.0016327 C3.33223591,17.3303129 0,17.0625412 0,17.0625412 C0,7.63926324 7.69588247,0 17.1898223,0 C26.6829419,0 34.3780041,7.63926324 34.3780041,17.0625412 C34.3780041,17.0625412 31.7330574,20.0454248 30.2280285,17.4563265 C26,10.1828571 35,10 17.1894422,10 C-0.621115684,10 8.63657957,10.1828571 4.31828979,16.0016327 Z" id="Fill-58" fill="#E71D36"></path>
                                    <path d="M33.626796,47 L33.3388313,72.848316 C33.3176215,74.78696 31.6485687,76.3566101 29.630369,76.3362462 C27.6121694,76.3150677 25.9781945,74.7120209 26.0002201,72.7725622 L26.2865532,47 L33.626796,47 Z" id="Fill-56-Copy" fill="#F9E5E7"></path>
                                    <path d="M7.62679595,48 L7.33883133,73.848316 C7.31762147,75.78696 5.64856871,77.3566101 3.63036904,77.3362462 C1.61216938,77.3150677 -0.0218055337,75.7120209 0.000220089211,73.7725622 L0.286553187,48 L7.62679595,48 Z" id="Fill-37" fill="#F9E5E7"></path>
                                    <path d="M15,28 C16.8128085,29.9579491 18.5123164,29.9579491 20.0985238,28" id="Path-3-Copy-2" stroke="#E71D36" stroke-width="1.36559002" stroke-linecap="round"></path>
                                    <path d="M1.60535852,118.640408 C1.27104928,118.640408 1,118.437884 1,118.188093 L1,79 L31.9477435,79 L31.9477435,118.188093 C31.9477435,118.437884 31.6766942,118.640408 31.342385,118.640408 L1.60535852,118.640408 Z" id="Fill-1" fill="#F23950"></path>
                                    <path d="M1.60535852,106.639184 L31.342385,106.639184 C31.6766942,106.639184 31.9477435,106.363051 31.9477435,106.022472 L31.9477435,79 L1,79 L1,106.022472 C1,106.363051 1.27104928,106.639184 1.60535852,106.639184" id="Fill-11" fill="#F23950"></path>
                                    <polygon id="Fill-14" fill="#F23950" points="1 141.639184 31.9477435 141.639184 31.9477435 114 1 114"></polygon>
                                    <path d="M15,141.732245 L19.3182898,141.732245 L19.3182898,95.1591449 C19.3182898,93.9666821 18.3516077,93 17.1591449,93 L17.1591449,93 C15.9666821,93 15,93.9666821 15,95.1591449 L15,141.732245 Z" id="Fill-15" fill="#FFFFFF"></path>
                                    <path d="M32.7742323,142.000816 L19.7792119,142.000816 C18.2708058,142.000816 17.4492245,140.235192 18.418914,139.077143 L20.3520832,136.768512 C23.4431047,133.077163 29.1103395,133.077163 32.2013609,136.768512 L34.1345301,139.077143 C35.1042197,140.235192 34.2826383,142.000816 32.7742323,142.000816" id="Fill-20" fill="#EFDADD"></path>
                                    <path d="M14.7742323,142.000816 L1.77921187,142.000816 C0.270805836,142.000816 -0.550775548,140.235192 0.418914045,139.077143 L2.35208324,136.768512 C5.44310466,133.077163 11.1103395,133.077163 14.2013609,136.768512 L16.1345301,139.077143 C17.1042197,140.235192 16.2826383,142.000816 14.7742323,142.000816" id="Fill-21" fill="#EFDADD"></path>
                                    <path d="M1.60535852,118.640408 C1.27104928,118.640408 1,118.437884 1,118.188093 L1,79 L31.9477435,79 L31.9477435,118.188093 C31.9477435,118.437884 31.6766942,118.640408 31.342385,118.640408 L1.60535852,118.640408 Z" id="Fill-1" fill="#E93047"></path>
                                    <path d="M1.60535852,118.640408 C1.27104928,118.640408 1,118.437884 1,118.188093 L1,79 L31.9477435,79 L31.9477435,118.188093 C31.9477435,118.437884 31.6766942,118.640408 31.342385,118.640408 L1.60535852,118.640408 Z" id="Path" fill="#E93047"></path>
                                    <path d="M1.60535852,106.639184 L31.342385,106.639184 C31.6766942,106.639184 31.9477435,106.363051 31.9477435,106.022472 L31.9477435,79 L1,79 L1,106.022472 C1,106.363051 1.27104928,106.639184 1.60535852,106.639184" id="Fill-11" fill="#E93047"></path>
                                    <path d="M1.60535852,106.639184 L31.342385,106.639184 C31.6766942,106.639184 31.9477435,106.363051 31.9477435,106.022472 L31.9477435,79 L1,79 L1,106.022472 C1,106.363051 1.27104928,106.639184 1.60535852,106.639184" id="Path" fill="#E93047"></path>
                                    <polygon id="Fill-14" fill="#E93047" points="1 141.639184 31.9477435 141.639184 31.9477435 114 1 114"></polygon>
                                    <polygon id="Path" fill="#E93047" points="1 141.639184 31.9477435 141.639184 31.9477435 114 1 114"></polygon>
                                    <path d="M15,141.732245 L19.3182898,141.732245 L19.3182898,95.1591449 C19.3182898,93.9666821 18.3516077,93 17.1591449,93 L17.1591449,93 C15.9666821,93 15,93.9666821 15,95.1591449 L15,141.732245 Z" id="Fill-15" fill="#E93047"></path>
                                    <path d="M15,141.732245 L19.3182898,141.732245 L19.3182898,95.1591449 C19.3182898,93.9666821 18.3516077,93 17.1591449,93 L17.1591449,93 C15.9666821,93 15,93.9666821 15,95.1591449 L15,141.732245 Z" id="Path" fill="#FFFFFF"></path>
                                    <path d="M32.7742323,142.000816 L19.7792119,142.000816 C18.2708058,142.000816 17.4492245,140.235192 18.418914,139.077143 L20.3520832,136.768512 C23.4431047,133.077163 29.1103395,133.077163 32.2013609,136.768512 L34.1345301,139.077143 C35.1042197,140.235192 34.2826383,142.000816 32.7742323,142.000816" id="Fill-20" fill="#E93047"></path>
                                    <path d="M32.7742323,142.000816 L19.7792119,142.000816 C18.2708058,142.000816 17.4492245,140.235192 18.418914,139.077143 L20.3520832,136.768512 C23.4431047,133.077163 29.1103395,133.077163 32.2013609,136.768512 L34.1345301,139.077143 C35.1042197,140.235192 34.2826383,142.000816 32.7742323,142.000816" id="Path" fill="#EFDADD"></path>
                                    <path d="M14.7742323,142.000816 L1.77921187,142.000816 C0.270805836,142.000816 -0.550775548,140.235192 0.418914045,139.077143 L2.35208324,136.768512 C5.44310466,133.077163 11.1103395,133.077163 14.2013609,136.768512 L16.1345301,139.077143 C17.1042197,140.235192 16.2826383,142.000816 14.7742323,142.000816" id="Fill-21" fill="#E93047"></path>
                                    <path d="M14.7742323,142.000816 L1.77921187,142.000816 C0.270805836,142.000816 -0.550775548,140.235192 0.418914045,139.077143 L2.35208324,136.768512 C5.44310466,133.077163 11.1103395,133.077163 14.2013609,136.768512 L16.1345301,139.077143 C17.1042197,140.235192 16.2826383,142.000816 14.7742323,142.000816" id="Path" fill="#EFDADD"></path>
                                    <polygon id="Path" fill="#E71D36" points="2 81.9093878 32.9477435 81.9093878 32.9477435 79 2 79"></polygon>
                                </g>
                            </g>
                            <g id="Group-34" transform="translate(152.000000, 195.000000)"></g>
                            <rect id="Rectangle-4-Copy" fill="#E9D0D4" x="0" y="224" width="488" height="15" rx="7.5"></rect>
                            <g id="Group-46" transform="translate(152.000000, 61.000000)">
                                <g id="Group-43-Copy" transform="translate(0.000000, 41.023529)">
                                    <g id="Group-25">
                                        <path d="M32.7342225,52.0066857 C37.33192,52.0066857 41.0593968,48.4214723 41.0593968,43.9992512 L41.0593968,8.70848017 C41.0593968,4.28534334 37.33192,0.700129947 32.7342225,0.700129947 L9.71241147,0.700129947 C5.11471397,0.700129947 1.38723712,4.28534334 1.38723712,8.70848017 L1.38723712,43.9992512 C1.38723712,48.4214723 5.11471397,52.0066857 9.71241147,52.0066857 L32.7342225,52.0066857 Z" id="Fill-18" fill="#E71D36"></path>
                                        <path d="M41.2319841,13.5208164 L40.8958923,42.5807338 C40.8711376,44.7602505 38.9231382,46.5249264 36.5676395,46.5020323 C34.2121407,46.4782225 32.3050816,44.6760003 32.3307884,42.4955678 L32.664976,13.5208164 L41.2319841,13.5208164 Z" id="Fill-56-Copy" fill="#F9E5E7"></path>
                                        <path d="M9.89198076,13.9786981 L9.55588898,43.0386155 C9.53113434,45.2181322 7.58313495,46.9828081 5.22763617,46.959914 C2.87213739,46.9361042 0.965078357,45.1338819 0.990785094,42.9534495 L1.32497267,13.9786981 L9.89198076,13.9786981 Z" id="Fill-37" fill="#F9E5E7"></path>
                                    </g>
                                    <g id="Group-32" transform="translate(1.909091, 48.552941)">
                                        <g id="Page-1-Copy-2">
                                            <path d="M1.5377442,44.8532086 C1.14977923,44.8532086 0.835227273,44.6240523 0.835227273,44.3414135 L0.835227273,0 L36.75,0 L36.75,44.3414135 C36.75,44.6240523 36.435448,44.8532086 36.0474831,44.8532086 L1.5377442,44.8532086 Z" id="Fill-1" fill="#F23950"></path>
                                            <path d="M1.5377442,31.2737968 L36.0474831,31.2737968 C36.435448,31.2737968 36.75,30.9613519 36.75,30.5759858 L36.75,0 L0.835227273,0 L0.835227273,30.5759858 C0.835227273,30.9613519 1.14977923,31.2737968 1.5377442,31.2737968" id="Fill-11" fill="#F23950"></path>
                                            <polygon id="Fill-14" fill="#F23950" points="0.835227273 70.7775401 36.75 70.7775401 36.75 39.5037433 0.835227273 39.5037433"></polygon>
                                            <path d="M17.5397727,70.7775401 L22.5511364,70.7775401 L22.5511364,18.1425802 C22.5511364,16.7587304 21.4293044,15.6368984 20.0454545,15.6368984 L20.0454545,15.6368984 C18.6616047,15.6368984 17.5397727,16.7587304 17.5397727,18.1425802 L17.5397727,70.7775401 Z" id="Fill-15" fill="#FFFFFF"></path>
                                            <path d="M38.0261385,71.6005348 L22.9454524,71.6005348 C21.1949513,71.6005348 20.2415083,69.6027269 21.3668304,68.2923916 L23.6102681,65.6801715 C27.1973901,61.5034009 33.7742008,61.5034009 37.3613228,65.6801715 L39.6047605,68.2923916 C40.7300826,69.6027269 39.7766396,71.6005348 38.0261385,71.6005348" id="Fill-20" fill="#EFDADD"></path>
                                            <path d="M17.1454567,71.6005348 L2.06477057,71.6005348 C0.314269441,71.6005348 -0.639173537,69.6027269 0.486148618,68.2923916 L2.72958625,65.6801715 C6.31670826,61.5034009 12.893519,61.5034009 16.480641,65.6801715 L18.7240787,68.2923916 C19.8494008,69.6027269 18.8959578,71.6005348 17.1454567,71.6005348" id="Fill-21" fill="#EFDADD"></path>
                                        </g>
                                        <path d="M1.5377442,44.8532086 C1.14977923,44.8532086 0.835227273,44.6240523 0.835227273,44.3414135 L0.835227273,0 L36.75,0 L36.75,44.3414135 C36.75,44.6240523 36.435448,44.8532086 36.0474831,44.8532086 L1.5377442,44.8532086 Z" id="Fill-1" fill="#E93047"></path>
                                        <path d="M1.5377442,44.8532086 C1.14977923,44.8532086 0.835227273,44.6240523 0.835227273,44.3414135 L0.835227273,0 L36.75,0 L36.75,44.3414135 C36.75,44.6240523 36.435448,44.8532086 36.0474831,44.8532086 L1.5377442,44.8532086 Z" id="Path" fill="#E93047"></path>
                                        <path d="M1.5377442,31.2737968 L36.0474831,31.2737968 C36.435448,31.2737968 36.75,30.9613519 36.75,30.5759858 L36.75,0 L0.835227273,0 L0.835227273,30.5759858 C0.835227273,30.9613519 1.14977923,31.2737968 1.5377442,31.2737968" id="Fill-11" fill="#E93047"></path>
                                        <path d="M1.5377442,31.2737968 L36.0474831,31.2737968 C36.435448,31.2737968 36.75,30.9613519 36.75,30.5759858 L36.75,0 L0.835227273,0 L0.835227273,30.5759858 C0.835227273,30.9613519 1.14977923,31.2737968 1.5377442,31.2737968" id="Path" fill="#E93047"></path>
                                        <polygon id="Fill-14" fill="#E93047" points="0.835227273 70.7775401 36.75 70.7775401 36.75 39.5037433 0.835227273 39.5037433"></polygon>
                                        <polygon id="Path" fill="#E93047" points="0.835227273 70.7775401 36.75 70.7775401 36.75 39.5037433 0.835227273 39.5037433"></polygon>
                                        <path d="M17.5397727,70.7775401 L22.5511364,70.7775401 L22.5511364,18.1425802 C22.5511364,16.7587304 21.4293044,15.6368984 20.0454545,15.6368984 L20.0454545,15.6368984 C18.6616047,15.6368984 17.5397727,16.7587304 17.5397727,18.1425802 L17.5397727,70.7775401 Z" id="Fill-15" fill="#E93047"></path>
                                        <path d="M17.5397727,70.7775401 L22.5511364,70.7775401 L22.5511364,18.1425802 C22.5511364,16.7587304 21.4293044,15.6368984 20.0454545,15.6368984 L20.0454545,15.6368984 C18.6616047,15.6368984 17.5397727,16.7587304 17.5397727,18.1425802 L17.5397727,70.7775401 Z" id="Path" fill="#FFFFFF"></path>
                                        <path d="M38.0261385,71.6005348 L22.9454524,71.6005348 C21.1949513,71.6005348 20.2415083,69.6027269 21.3668304,68.2923916 L23.6102681,65.6801715 C27.1973901,61.5034009 33.7742008,61.5034009 37.3613228,65.6801715 L39.6047605,68.2923916 C40.7300826,69.6027269 39.7766396,71.6005348 38.0261385,71.6005348" id="Fill-20" fill="#E93047"></path>
                                        <path d="M38.0261385,71.6005348 L22.9454524,71.6005348 C21.1949513,71.6005348 20.2415083,69.6027269 21.3668304,68.2923916 L23.6102681,65.6801715 C27.1973901,61.5034009 33.7742008,61.5034009 37.3613228,65.6801715 L39.6047605,68.2923916 C40.7300826,69.6027269 39.7766396,71.6005348 38.0261385,71.6005348" id="Path" fill="#EFDADD"></path>
                                        <path d="M17.1454567,71.6005348 L2.06477057,71.6005348 C0.314269441,71.6005348 -0.639173537,69.6027269 0.486148618,68.2923916 L2.72958625,65.6801715 C6.31670826,61.5034009 12.893519,61.5034009 16.480641,65.6801715 L18.7240787,68.2923916 C19.8494008,69.6027269 18.8959578,71.6005348 17.1454567,71.6005348" id="Fill-21" fill="#E93047"></path>
                                        <path d="M17.1454567,71.6005348 L2.06477057,71.6005348 C0.314269441,71.6005348 -0.639173537,69.6027269 0.486148618,68.2923916 L2.72958625,65.6801715 C6.31670826,61.5034009 12.893519,61.5034009 16.480641,65.6801715 L18.7240787,68.2923916 C19.8494008,69.6027269 18.8959578,71.6005348 17.1454567,71.6005348" id="Path" fill="#EFDADD"></path>
                                        <polygon id="Path" fill="#E71D36" points="1.67045455 3.29197861 37.5852273 3.29197861 37.5852273 0 1.67045455 0"></polygon>
                                    </g>
                                </g>
                                <g id="Group-44" transform="translate(3.818182, 15.247059)" fill="#E71D36">
                                    <polygon id="Fill-44" points="0 24.6571642 34.7433707 24.6571642 34.7433707 1.0125 0 1.0125"></polygon>
                                </g>
                                <g id="Group-45" transform="translate(15.272727, 30.494118)" fill="#EFDADD">
                                    <path d="M6.40188575,0.240381884 C9.32388485,0.240381884 11.692713,3.77705982 11.692713,8.13975627 L11.692713,14.8312388 C10.1674467,15.6334475 8.35274145,16.1004868 6.40188575,16.1004868 C4.45103005,16.1004868 2.63632485,15.6334475 1.11010636,14.8312388 L1.11010636,8.13975627 C1.11010636,3.77705982 3.47988666,0.240381884 6.40188575,0.240381884" id="Fill-30"></path>
                                </g>
                                <path d="M5.72727273,22.7150097 C5.72727273,32.1030879 13.2171606,39.7123724 22.4568693,39.7123724 C31.6957174,39.7123724 39.1856052,32.1030879 39.1856052,22.7150097 C39.1856052,13.327806 31.6957174,5.71764706 22.4568693,5.71764706 C13.2171606,5.71764706 5.72727273,13.327806 5.72727273,22.7150097" id="Fill-57" fill="#EFDADD"></path>
                                <path d="M18.4295741,12.7838777 C18.4295741,12.7838777 17.2839707,15.5954913 12.2935812,18.3257735 C10.3001797,19.4163123 3.81818182,18.3257735 3.81818182,18.3257735 C3.81818182,8.20483929 11.8933516,0 21.8551951,0 C31.8161778,0 39.8904869,8.20483929 39.8904869,18.3257735 C39.8904869,18.3257735 33.6271091,18.689578 27.0642046,16.7848519 C23.3356142,15.7030584 18.4295741,12.7838777 18.4295741,12.7838777" id="Fill-58" fill="#E71D36"></path>
                                <path d="M19.5363636,32.5191176 C21.4490498,34.6212252 23.2421931,34.6212252 24.9157935,32.5191176" id="Path-3-Copy" stroke="#E71D36" stroke-width="1.430016" stroke-linecap="round"></path>
                            </g>
                            <g id="Group-27" transform="translate(271.000000, 118.000000)"></g>
                        </g>
                        <path d="M249,41 C249,49.285 242.283,56 234,56 C225.715,56 219,49.285 219,41 C219,32.715 225.715,26 234,26 C242.283,26 249,32.715 249,41 Z" id="Stroke-1" stroke="#F295A0" stroke-width="2" fill="#F295A0" stroke-linecap="round"></path>
                        <path d="M234,60 L234,64" id="Stroke-3" stroke="#F295A0" stroke-width="2" fill="#F295A0" stroke-linecap="round"></path>
                        <path d="M248,55 L251,58" id="Stroke-5" stroke="#F295A0" stroke-width="2" fill="#F295A0" stroke-linecap="round"></path>
                        <path d="M253,41 L257,41" id="Stroke-7" stroke="#F295A0" stroke-width="2" fill="#F295A0" stroke-linecap="round"></path>
                        <path d="M248,27 L251,24" id="Stroke-9" stroke="#F295A0" stroke-width="2" fill="#F295A0" stroke-linecap="round"></path>
                        <path d="M234,22 L234.001,18" id="Stroke-11" stroke="#F295A0" stroke-width="2" fill="#F295A0" stroke-linecap="round"></path>
                        <path d="M220,27 L217,24" id="Stroke-13" stroke="#F295A0" stroke-width="2" fill="#F295A0" stroke-linecap="round"></path>
                        <path d="M215,41 L211,41" id="Stroke-15" stroke="#F295A0" stroke-width="2" fill="#F295A0" stroke-linecap="round"></path>
                        <path d="M220,55 L217,58" id="Stroke-17" stroke="#F295A0" stroke-width="2" fill="#F295A0" stroke-linecap="round"></path>
                        <path d="M412.752283,28.8033648 C414.751413,22.9864643 410.074022,17.0660344 404.027609,17.6727641 C402.067935,12.0412532 396.760435,8 390.5,8 C382.576413,8 376.152174,14.4657643 376.152174,22.4459452 C368.886196,22.4459452 363,28.408509 363,35.7229726 C363,43.0374361 368.886196,49 376.152174,49 L407.23913,49 C413.181522,49 418,44.1148629 418,38.1306301 C418,34.1784603 415.89087,30.6957837 412.752283,28.8033648 Z" id="Stroke-1" fill="#EFDADD"></path>
                        <path d="M114.557783,28.9217511 C117.392913,20.8348406 110.759522,12.6039991 102.184609,13.4475013 C99.4054348,5.61832756 91.8784348,0 83,0 C71.762913,0 62.6521739,8.98898937 62.6521739,20.0833872 C52.3476957,20.0833872 44,28.3728052 44,38.5416936 C44,48.7105819 52.3476957,57 62.6521739,57 L106.73913,57 C115.166522,57 122,50.2084679 122,41.8889248 C122,36.3944448 119.00887,31.5526748 114.557783,28.9217511 Z" id="Stroke-1" fill="#EFDADD"></path>
                        <path d="M139.557783,28.9217511 C142.392913,20.8348406 135.759522,12.6039991 127.184609,13.4475013 C124.405435,5.61832756 116.878435,0 108,0 C96.762913,0 87.6521739,8.98898937 87.6521739,20.0833872 C77.3476957,20.0833872 69,28.3728052 69,38.5416936 C69,48.7105819 77.3476957,57 87.6521739,57 L131.73913,57 C140.166522,57 147,50.2084679 147,41.8889248 C147,36.3944448 144.00887,31.5526748 139.557783,28.9217511 Z" id="Stroke-1-Copy" fill="#EFDADD"></path>
                    </g>
                    <polygon id="Fill-18" fill="#FBEFF0" points="137.002681 88 141.554621 95.4483991 149 100.001787 141.554621 104.555175 137.002681 112 132.448954 104.555175 125 100.001787 132.448954 95.4483991"></polygon>
                    <polygon id="Fill-18-Copy" fill="#FBEFF0" points="268.002681 0 272.554621 7.44839911 280 12.001787 272.554621 16.555175 268.002681 24 263.448954 16.555175 256 12.001787 263.448954 7.44839911"></polygon>
                </g>
            </g>
        </g>
    </g>
</svg>