<?xml version="1.0" encoding="UTF-8"?>
<svg width="90px" height="74px" viewBox="0 0 90 74" version="1.1" xmlns="http://www.w3.org/2000/svg" xmlns:xlink="http://www.w3.org/1999/xlink">
    <!-- Generator: Sketch 50 (54983) - http://www.bohemiancoding.com/sketch -->
    <title>Group 11</title>
    <desc>Created with Sketch.</desc>
    <defs></defs>
    <g id="Finals" stroke="none" stroke-width="1" fill="none" fill-rule="evenodd">
        <g id="Skool-Tales--Landing" transform="translate(-183.000000, -2520.000000)">
            <g id="info-box" transform="translate(0.000000, 2390.000000)">
                <g id="#1" transform="translate(153.000000, 100.000000)">
                    <g id="Group-11" transform="translate(30.000000, 30.000000)">
                        <g id="Group">
                            <polygon id="Fill-4" fill="#EFDADD" points="3.75510204 73 86.244898 73 86.244898 69.4879725 3.75510204 69.4879725"></polygon>
                            <rect id="Rectangle-4" fill="#EFDADD" x="21" y="70" width="69" height="4" rx="2"></rect>
                            <rect id="Rectangle-4-Copy-10" fill="#EFDADD" x="0" y="70" width="69" height="4" rx="2"></rect>
                            <polygon id="Fill-10" fill="#F9E5E7" points="3.75510204 69.7388316 86.244898 69.7388316 86.244898 25.5876289 3.75510204 25.5876289"></polygon>
                            <polygon id="Fill-11" fill="#F0818E" points="6.66136076 11.5395189 83.3386392 11.5395189 88 26.5910653 2 26.5910653"></polygon>
                            <polygon id="Fill-12" fill="#E6E6E6" points="3.75510204 28.347079 86.244898 28.347079 86.244898 27.0927835 3.75510204 27.0927835"></polygon>
                            <polygon id="Fill-16" fill="#F0818E" points="46.1281544 0 46.1281544 0 75.7142857 27.8453608 72.4048795 27.8453608 46.1281544 2.95443684 19.8516802 27.8453608 16.5422741 27.8453608"></polygon>
                            <polygon id="Fill-17" fill="#F295A0" points="46.0029155 3.01030928 21.3061224 26.5910653 70.6997085 26.5910653"></polygon>
                            <g id="Group-91" transform="translate(3.755102, 1.505155)">
                                <path d="M42.2479397,9.28178694 L42.2484447,9.28178694 L42.2492023,9.28178694 L42.2499598,9.28178694 C42.2567778,9.28178694 42.2635958,9.28203959 42.2704139,9.28203959 L42.2709189,9.28203959 L42.272434,9.28203959 L42.272939,9.28203959 L42.2736966,9.28203959 L42.2742016,9.28203959 L42.2749592,9.28203959 L42.2754642,9.28203959 L42.2762218,9.28203959 L42.2769793,9.28203959 L42.2774844,9.28203959 L42.2782419,9.28203959 L42.2789995,9.28229224 L42.2795045,9.28229224 L42.2802621,9.28229224 L42.2807671,9.28229224 L42.2815247,9.28229224 L42.2822822,9.28229224 L42.2835448,9.28229224 L42.2843024,9.28229224 L42.2848074,9.28229224 L42.285565,9.28229224 L42.2863225,9.28229224 L42.2868276,9.28229224 L42.2875851,9.28229224 L42.2880902,9.28229224 L42.2888477,9.28229224 L42.2893528,9.28229224 L42.2901103,9.28229224 C45.3862451,9.30503075 47.8892128,11.8226891 47.8892128,14.9259905 C47.8892128,18.0292919 45.3862451,20.5472029 42.2901103,20.5699414 L42.2893528,20.5699414 L42.2888477,20.5699414 L42.2880902,20.5699414 L42.2875851,20.5699414 L42.2868276,20.5699414 L42.2863225,20.5699414 L42.285565,20.5699414 L42.2848074,20.5699414 L42.2843024,20.5699414 L42.2835448,20.5699414 L42.2822822,20.5699414 L42.2815247,20.5699414 L42.2807671,20.5699414 L42.2802621,20.5701941 L42.2795045,20.5701941 L42.2789995,20.5701941 L42.2782419,20.5701941 L42.2774844,20.5701941 L42.2769793,20.5701941 L42.2762218,20.5701941 L42.2754642,20.5701941 L42.2749592,20.5701941 L42.2742016,20.5701941 L42.2736966,20.5701941 L42.272939,20.5701941 L42.272434,20.5701941 L42.2709189,20.5701941 L42.2704139,20.5701941 L42.2499598,20.5704467 L42.2492023,20.5704467 L42.2484447,20.5704467 L42.2479397,20.5704467 C39.1321084,20.5704467 36.606414,18.0434403 36.606414,14.9259905 C36.606414,11.8087934 39.1321084,9.28178694 42.2479397,9.28178694" id="Fill-18" fill="#F9E5E7"></path>
                                <path d="M42.2478134,15.3024055 C42.4550803,15.3024055 42.6239067,15.1334914 42.6239067,14.9261168 C42.6239067,14.7190022 42.4550803,14.5498282 42.2478134,14.5498282 C42.0408063,14.5498282 41.8717201,14.7190022 41.8717201,14.9261168 C41.8717201,15.1334914 42.0408063,15.3024055 42.2478134,15.3024055" id="Fill-24" fill="#F9E5E7"></path>
                                <polygon id="Fill-28" fill="#F6E0E2" points="21.3119534 71.4948454 60.9271137 71.4948454 60.9271137 70.2405498 21.3119534 70.2405498"></polygon>
                                <polygon id="Fill-30" fill="#F1DCE0" points="22.5655977 70.4914089 59.9241983 70.4914089 59.9241983 69.2371134 22.5655977 69.2371134"></polygon>
                                <polygon id="Fill-31" fill="#F6E0E2" points="23.819242 69.2371134 58.6705539 69.2371134 58.6705539 67.9828179 23.819242 67.9828179"></polygon>
                                <polygon id="Fill-32" fill="#F1DCE0" points="25.3236152 68.233677 56.9154519 68.233677 56.9154519 66.9793814 25.3236152 66.9793814"></polygon>
                                <polygon id="Fill-33" fill="#F6E0E2" points="26.8279883 66.9793814 55.4110787 66.9793814 55.4110787 65.7250859 26.8279883 65.7250859"></polygon>
                                <polygon id="Fill-36" fill="#F0818E" points="26.8279883 46.1580756 26.8279883 48.1877766 26.8279883 50.1718213 55.4110787 50.1718213 55.4110787 48.1877766 55.4110787 46.1580756"></polygon>
                                <path d="M48.1399417,52.9312715 L48.1399417,65.7250859 L34.3498542,65.7250859 L34.3498542,49.6701031 L48.1396929,49.6701031 L48.1396929,52.9312715 Z" id="Combined-Shape" stroke="#F0818E" fill="#F6CED3"></path>
                                <polygon id="Fill-39" fill="#F1DCE0" points="32.498723 50.1718213 31.0743324 50.1718213 29.5860058 50.1718213 29.5860058 65.6221667 31.0743324 65.6221667 32.498723 65.6221667 32.5947522 65.7250859 32.5947522 50.192754"></polygon>
                                <polygon id="Fill-40" fill="#F1DCE0" points="51.5829504 50.1718213 50.1457726 50.1718213 50.1457726 65.7250859 51.5829504 65.7250859 52.9037901 65.7250859 52.9037901 50.1718213"></polygon>
                                <polygon id="Fill-85" fill="#F295A0" points="22.5146789 20.1208622 33.2413028 9.961916 34.3483549 8.91342503 41.0215654 2.59343791 42.2476878 1.43228673 50.1472719 8.91342503 51.2540728 9.961916 61.9806967 20.1208622 63.088 21.1693532 65.9780918 23.9064954 67.0323912 24.9049152 68.5478995 26.3402062 70.2040816 26.3402062 68.6805348 24.9049152 67.6204577 23.9064954 64.7150425 21.1693532 63.6019616 20.1208622 52.8178122 9.961916 51.7047312 8.91342503 42.2426637 0 32.7838619 8.91342503 31.6715346 9.961916 20.8911532 20.1208622 19.7785747 21.1693532 16.8741643 23.9064954 15.8145896 24.9049152 14.2915452 26.3402062 15.9477273 26.3402062 17.4632356 24.9049152 18.5175351 23.9064954 21.4076268 21.1693532"></polygon>
                                <polygon id="Fill-86" fill="#EFDADD" points="1.50437318 71.4948454 21.3119534 71.4948454 21.3119534 69.7388316 1.50437318 69.7388316"></polygon>
                                <polyline id="Fill-90" fill="#F295A0" points="82.4897959 26.5910653 82.4897959 25.0859107 0 25.0859107 0 26.5910653"></polyline>
                                <path d="M41.3702624,51.9278351 L41.3702624,63.2164948" id="Path-2" stroke="#F0818E"></path>
                            </g>
                        </g>
                        <path d="M48.1341108,18.5635739 L46.3790087,16.8075601" id="Stroke-3" stroke="#E71D36" stroke-width="0.5" stroke-linecap="round" stroke-linejoin="round"></path>
                        <path d="M46.6297376,16.556701 C46.6297376,16.8336495 46.4045831,17.0584192 46.1282799,17.0584192 C45.8509738,17.0584192 45.6268222,16.8336495 45.6268222,16.556701 C45.6268222,16.2797526 45.8509738,16.0549828 46.1282799,16.0549828 C46.4045831,16.0549828 46.6297376,16.2797526 46.6297376,16.556701 Z" id="Stroke-5" fill="#E71D36"></path>
                        <path d="M45.877551,14.5498282 L45.877551,16.0549828" id="Stroke-7" stroke="#E71D36" stroke-width="0.5" stroke-linecap="round" stroke-linejoin="round"></path>
                        <polygon id="Stroke-50-Copy-12" fill="#F295A0" points="19.1864606 53.4329897 11.5276968 53.4329897 11.5276968 63.4676048 19.0495627 63.4676048"></polygon>
                        <polygon id="Stroke-50-Copy-14" fill="#F295A0" points="30.9707172 53.4329897 23.3119534 53.4329897 23.3119534 63.4676048 30.8338192 63.4676048"></polygon>
                        <polygon id="Stroke-50-Copy-13" fill="#F295A0" points="78.1077434 53.4329897 70.4489796 53.4329897 70.4489796 63.4676048 77.9708455 63.4676048"></polygon>
                        <g id="Group-3" transform="translate(11.527697, 32.862543)" fill="#F295A0">
                            <polygon id="Stroke-50-Copy-6" points="7.65876385 0 0 0 0 10.0346151 7.52186589 10.0346151"></polygon>
                            <polygon id="Stroke-50-Copy-7" points="19.4430204 0 11.7842566 0 11.7842566 10.0346151 19.3061224 10.0346151"></polygon>
                            <polygon id="Stroke-50-Copy-8" points="31.227277 0 23.5685131 0 23.5685131 10.0346151 31.090379 10.0346151"></polygon>
                            <polygon id="Stroke-50-Copy-9" points="43.0115335 0 35.3527697 0 35.3527697 10.0346151 42.8746356 10.0346151"></polygon>
                            <polygon id="Stroke-50-Copy-10" points="54.7957901 0 47.1370262 0 47.1370262 10.0346151 54.6588921 10.0346151"></polygon>
                            <polygon id="Stroke-50-Copy-15" points="54.7957901 20.5704467 47.1370262 20.5704467 47.1370262 30.6050619 54.6588921 30.6050619"></polygon>
                            <polygon id="Stroke-50-Copy-11" points="66.5800466 0 58.9212828 0 58.9212828 10.0346151 66.4431487 10.0346151"></polygon>
                        </g>
                    </g>
                </g>
            </g>
        </g>
    </g>
</svg>