<?xml version="1.0" encoding="UTF-8"?>
<svg width="70px" height="74px" viewBox="0 0 70 74" version="1.1" xmlns="http://www.w3.org/2000/svg" xmlns:xlink="http://www.w3.org/1999/xlink">
    <!-- Generator: Sketch 50 (54983) - http://www.bohemiancoding.com/sketch -->
    <title>Group 29</title>
    <desc>Created with Sketch.</desc>
    <defs>
        <path d="M69.2139658,45.7704865 C67.2965091,47.665536 65.1960028,49.3816914 62.940678,50.8912232 L62.940678,43.0015748 L69.2139658,43.0015748 L69.2139658,45.7704865 Z" id="path-1"></path>
        <path d="M69.4700606,45.5890155 C68.4160599,46.6432453 67.3058041,47.6430303 66.1440678,48.5836805 L66.1440678,43.0015748 L69.4700606,43.0015748 L69.4700606,45.5890155 Z" id="path-3"></path>
        <path d="M69.2139658,45.6508721 C67.2964613,47.5455325 65.1959576,49.2613145 62.940678,50.7704962 L62.940678,38.1070866 L69.2139658,38.1070866 L69.2139658,45.6508721 Z" id="path-5"></path>
        <path d="M69.4700606,45.4695138 C68.4160433,46.523511 67.3057879,47.5230695 66.1440678,48.4635008 L66.1440678,38.1070866 L69.4700606,38.1070866 L69.4700606,45.4695138 Z" id="path-7"></path>
        <path d="M39.8050847,58.0411537 C41.9393442,58.0054021 44.0354725,57.8158888 46.0824813,57.4834067 L46.0824813,45.4488189 L39.8050847,45.4488189 L39.8050847,58.0411537 Z" id="path-9"></path>
        <path d="M39.8050847,58.0558386 C42.0709156,58.0178875 44.2937692,57.8066323 46.4604971,57.4349877 L46.4604971,44.7496063 L39.8050847,44.7496063 L39.8050847,58.0558386 Z" id="path-11"></path>
        <path d="M46.238632,51.3929622 C44.7121131,52.9105745 43.0398653,54.284923 41.244364,55.4938012 L41.244364,49.175535 L46.238632,49.175535 L46.238632,51.3929622 Z" id="path-13"></path>
        <path d="M46.4425133,51.2476348 C45.603406,52.0918935 44.7195129,52.8925512 43.7946355,53.6458521 L43.7946355,49.175535 L46.4425133,49.175535 L46.4425133,51.2476348 Z" id="path-15"></path>
        <path d="M46.238632,51.2971714 C44.712075,52.8144721 43.0398293,54.1885216 41.244364,55.3971194 L41.244364,45.2558826 L46.238632,45.2558826 L46.238632,51.2971714 Z" id="path-17"></path>
        <path d="M46.4425133,51.1519343 C45.6033927,51.9960067 44.7195001,52.796483 43.7946355,53.5496085 L43.7946355,45.2558826 L46.4425133,45.2558826 L46.4425133,51.1519343 Z" id="path-19"></path>
        <path d="M22.8257364,61.2196791 C24.5248556,61.1910481 26.1936179,61.0392802 27.8232754,60.7730187 L27.8232754,51.1353612 L22.8257364,51.1353612 L22.8257364,61.2196791 Z" id="path-21"></path>
        <path d="M22.8257364,61.2314392 C24.6296017,61.2010468 26.3992521,61.0318673 28.12422,60.7342432 L28.12422,50.5754109 L22.8257364,50.5754109 L22.8257364,61.2314392 Z" id="path-23"></path>
    </defs>
    <g id="Finals" stroke="none" stroke-width="1" fill="none" fill-rule="evenodd">
        <g id="Skool-Tales--Landing" transform="translate(-757.000000, -2520.000000)">
            <g id="info-box" transform="translate(0.000000, 2390.000000)">
                <g id="Group-10" transform="translate(757.000000, 130.000000)">
                    <g id="Group-29">
                        <polygon id="Fill-44" fill="#F0818E" points="1.1560678 32.0407181 29.8911864 32.0407181 29.8911864 13.1361071 1.1560678 13.1361071"></polygon>
                        <path d="M26.7498,37.9171106 C25.1032576,37.8996302 23.741461,39.2085562 23.7243763,40.825835 L23.4382068,67.0574948 C23.421122,68.6747735 24.7537322,70.0123672 26.4002746,70.0298476 C28.0468169,70.0466287 29.4086136,68.7377027 29.4256983,67.1204239 L29.7111559,40.8887641 C29.7289525,39.2714854 28.3963424,37.9345909 26.7498,37.9171106" id="Fill-48" fill="#F2987E"></path>
                        <path d="M23.6127797,70.0313858 C23.6085085,70.0313858 23.6042373,70.0306866 23.5999661,70.0306866 L23.9494915,37.919348 C23.9537627,37.919348 23.9580339,37.9186488 23.9623051,37.9186488 C25.6088475,37.9361291 26.9428814,39.1898173 26.9257966,40.7043118 L26.6367797,67.3093512 C26.6196949,68.8238457 25.259322,70.0488661 23.6127797,70.0313858" id="Fill-49" fill="#F2987E"></path>
                        <path d="M23.7090712,73.4019402 C27.1466644,73.4019402 29.9336136,70.6645228 29.9336136,67.2880252 L29.9336136,40.3424693 C29.9336136,36.9652724 27.1466644,34.2278551 23.7090712,34.2278551 L6.49618983,34.2278551 C3.05859661,34.2278551 0.271647458,36.9652724 0.271647458,40.3424693 L0.271647458,67.2880252 C0.271647458,70.6645228 3.05859661,73.4019402 6.49618983,73.4019402 L23.7090712,73.4019402 Z" id="Fill-50" fill="#F295A0"></path>
                        <path d="M9.94723729,70.8522614 L21.5741186,70.8522614 L21.5741186,39.7079339 C21.5741186,37.218737 18.9579356,35.1819307 15.760678,35.1819307 C12.5634203,35.1819307 9.94723729,37.218737 9.94723729,39.7079339 L9.94723729,70.8522614 Z" id="Fill-53" fill="#F295A0"></path>
                        <path d="M15.7944915,25.8129014 C17.9792034,25.8129014 19.750322,28.5132605 19.750322,31.8443093 L19.750322,36.9534557 C18.6099153,37.565966 17.2531017,37.9232636 15.7944915,37.9232636 C14.3358814,37.9232636 12.9790678,37.565966 11.8379492,36.9534557 L11.8379492,31.8443093 C11.8379492,28.5132605 13.6097797,25.8129014 15.7944915,25.8129014" id="Fill-54" fill="#EFDADD"></path>
                        <path d="M6.6554124,44.2834646 L6.40412426,66.471578 C6.38561579,68.1357039 4.92914121,69.4830866 3.16798867,69.4656063 C1.40683613,69.4474268 -0.0190282813,68.0713764 0.000192057644,66.4065512 L0.250056464,44.2834646 L6.6554124,44.2834646 Z" id="Fill-56" fill="#EFDADD"></path>
                        <path d="M29.9336136,44.2834646 L29.6823254,66.471578 C29.6638169,68.1357039 28.2073424,69.4830866 26.4461898,69.4656063 C24.6850373,69.4474268 23.2591729,68.0713764 23.2783932,66.4065512 L23.5282576,44.2834646 L29.9336136,44.2834646 Z" id="Fill-56-Copy-2" fill="#F9E5E7"></path>
                        <path d="M1.94908475,17.2180403 C1.94908475,24.7240876 8.14372881,30.8079364 15.7855932,30.8079364 C23.4267458,30.8079364 29.6213898,24.7240876 29.6213898,17.2180403 C29.6213898,9.71269228 23.4267458,3.62814425 15.7855932,3.62814425 C8.14372881,3.62814425 1.94908475,9.71269228 1.94908475,17.2180403" id="Fill-57" fill="#EFDADD"></path>
                        <path d="M12.4405424,10.2210898 C12.4405424,10.2210898 11.4930508,12.4690583 7.36566102,14.652 C5.71698305,15.5239181 0.355932203,14.652 0.355932203,14.652 C0.355932203,6.5600126 7.03464407,0 15.2737627,0 C23.5121695,0 30.1901695,6.5600126 30.1901695,14.652 C30.1901695,14.652 25.0099322,14.9428724 19.5819661,13.4199874 C16.4981695,12.5550614 12.4405424,10.2210898 12.4405424,10.2210898" id="Fill-58" fill="#F0818E"></path>
                        <path d="M13.940678,25.9291339 C15.5225989,27.6098312 17.0056497,27.6098312 18.3898305,25.9291339" id="Path-3-Copy" stroke="#F0818E" stroke-width="1.176" stroke-linecap="round"></path>
                        <mask id="mask-2" fill="white">
                            <use xlink:href="#path-1"></use>
                        </mask>
                        <g id="Clip-7"></g>
                        <mask id="mask-4" fill="white">
                            <use xlink:href="#path-3"></use>
                        </mask>
                        <g id="Clip-10"></g>
                        <mask id="mask-6" fill="white">
                            <use xlink:href="#path-5"></use>
                        </mask>
                        <g id="Clip-13"></g>
                        <path d="M66.2524336,38.1072597 C64.6058913,38.0897794 63.2440947,39.3987054 63.2270099,41.0159841 L62.9408404,67.2476439 C62.9237557,68.8649227 64.2563659,70.2025164 65.9029082,70.2199967 C67.5494506,70.2367778 68.9112472,68.9278518 68.928332,67.3105731 L69.2137896,41.0789132 C69.2315862,39.4616345 67.898976,38.12474 66.2524336,38.1072597" id="Fill-12" fill="#F2987E"></path>
                        <mask id="mask-8" fill="white">
                            <use xlink:href="#path-7"></use>
                        </mask>
                        <g id="Clip-16"></g>
                        <path d="M66.1568814,70.2198236 C66.1526102,70.2198236 66.148339,70.2191244 66.1440678,70.2191244 L66.4935932,38.1077858 C66.4978644,38.1077858 66.5021356,38.1070866 66.5064068,38.1070866 C68.1529492,38.1245669 69.4869831,39.3782551 69.4698983,40.8927496 L69.1808814,67.497789 C69.1637966,69.0122835 67.8034237,70.2373039 66.1568814,70.2198236" id="Fill-15" fill="#F2987E"></path>
                        <path d="M63.2425085,73.7851087 C66.6801017,73.7851087 69.4670508,71.0476913 69.4670508,67.6711937 L69.4670508,40.7256378 C69.4670508,37.3484409 66.6801017,34.6110236 63.2425085,34.6110236 L46.0296271,34.6110236 C42.5920339,34.6110236 39.8050847,37.3484409 39.8050847,40.7256378 L39.8050847,67.6711937 C39.8050847,71.0476913 42.5920339,73.7851087 46.0296271,73.7851087 L63.2425085,73.7851087 Z" id="Fill-18" fill="#F295A0"></path>
                        <path d="M54.9734915,26.2204724 C57.1582034,26.2204724 58.929322,28.9208315 58.929322,32.2518803 L58.929322,37.3610268 C57.7889153,37.973537 56.4321017,38.3301354 54.9734915,38.3301354 C53.5148814,38.3301354 52.1580678,37.973537 51.0169492,37.3610268 L51.0169492,32.2518803 C51.0169492,28.9208315 52.7887797,26.2204724 54.9734915,26.2204724" id="Fill-30" fill="#EFDADD"></path>
                        <mask id="mask-10" fill="white">
                            <use xlink:href="#path-9"></use>
                        </mask>
                        <g id="Clip-35"></g>
                        <mask id="mask-12" fill="white">
                            <use xlink:href="#path-11"></use>
                        </mask>
                        <g id="Clip-38"></g>
                        <path d="M40.3389831,18.2149543 C40.3389831,26.1831811 46.9144746,32.6425071 55.0275932,32.6425071 C63.1392881,32.6425071 69.7162034,26.1831811 69.7162034,18.2149543 C69.7162034,10.2467276 63.1392881,3.78740157 55.0275932,3.78740157 C46.9144746,3.78740157 40.3389831,10.2467276 40.3389831,18.2149543" id="Fill-40" fill="#EFDADD"></path>
                        <path d="M69.5960904,44.4 L69.3448022,66.5881134 C69.3262938,68.2522394 67.8698192,69.599622 66.1086666,69.5821417 C64.3475141,69.5639622 62.9216497,68.1879118 62.94087,66.5230866 L63.1907344,44.4 L69.5960904,44.4 Z" id="Fill-56-Copy" fill="#EFDADD"></path>
                        <path d="M46.163887,44.7496063 L45.9125988,66.9377197 C45.8940904,68.6018457 44.4376158,69.9492283 42.6764632,69.931748 C40.9153107,69.9135685 39.4894463,68.5375181 39.5086666,66.8726929 L39.758531,44.7496063 L46.163887,44.7496063 Z" id="Fill-37" fill="#F9E5E7"></path>
                        <path d="M53.0932203,25.9291339 C54.6751412,27.6098312 56.1581921,27.6098312 57.5423729,25.9291339" id="Path-3-Copy-2" stroke="#F0818E" stroke-width="1.176" stroke-linecap="round"></path>
                        <mask id="mask-14" fill="white">
                            <use xlink:href="#path-13"></use>
                        </mask>
                        <g id="Clip-7"></g>
                        <mask id="mask-16" fill="white">
                            <use xlink:href="#path-15"></use>
                        </mask>
                        <g id="Clip-10"></g>
                        <mask id="mask-18" fill="white">
                            <use xlink:href="#path-17"></use>
                        </mask>
                        <g id="Clip-13"></g>
                        <path d="M43.8809074,45.2560212 C42.5700678,45.2420225 41.485919,46.2902495 41.4723176,47.5854146 L41.2444933,68.5925115 C41.2308919,69.8876767 42.2918048,70.9588617 43.6026444,70.9728604 C44.913484,70.9862992 45.9976327,69.9380722 46.0112342,68.6429071 L46.2384917,47.6358102 C46.2526599,46.340645 45.1917469,45.27002 43.8809074,45.2560212" id="Fill-12" fill="#F2987E"></path>
                        <mask id="mask-20" fill="white">
                            <use xlink:href="#path-19"></use>
                        </mask>
                        <g id="Clip-16"></g>
                        <path d="M43.8048366,70.9727218 C43.8014362,70.9727218 43.7980359,70.9721619 43.7946355,70.9721619 L44.0728985,45.2564426 C44.0762988,45.2564426 44.0796992,45.2558826 44.0830996,45.2558826 C45.3939391,45.2698814 46.4559855,46.2738724 46.4423841,47.4867248 L46.2122929,68.7928352 C46.1986915,70.0056876 45.1156762,70.9867206 43.8048366,70.9727218" id="Fill-15" fill="#F2987E"></path>
                        <mask id="mask-22" fill="white">
                            <use xlink:href="#path-21"></use>
                        </mask>
                        <g id="Clip-35"></g>
                        <mask id="mask-24" fill="white">
                            <use xlink:href="#path-23"></use>
                        </mask>
                        <g id="Clip-38"></g>
                        <g id="Group-47" transform="translate(10.000000, 18.000000)">
                            <path d="M19.4846562,55.8279086 C22.2213809,55.8279086 24.4401172,53.635703 24.4401172,50.9317028 L24.4401172,29.3528967 C24.4401172,26.6483365 22.2213809,24.456131 19.4846562,24.456131 L5.7811973,24.456131 C3.0444726,24.456131 0.825736383,26.6483365 0.825736383,29.3528967 L0.825736383,50.9317028 C0.825736383,53.635703 3.0444726,55.8279086 5.7811973,55.8279086 L19.4846562,55.8279086 Z" id="Fill-18" fill="#E71D36"></path>
                            <path d="M12.9015554,17.7367269 C14.6408405,17.7367269 16.0508573,19.8992551 16.0508573,22.5668585 L16.0508573,26.6584156 C15.1429607,27.1489321 14.062779,27.4345068 12.9015554,27.4345068 C11.7403317,27.4345068 10.6601501,27.1489321 9.75168669,26.6584156 L9.75168669,22.5668585 C9.75168669,19.8992551 11.1622702,17.7367269 12.9015554,17.7367269" id="Fill-30" fill="#EFDADD"></path>
                            <path d="M1.25078164,12.4910232 C1.25078164,18.8722172 6.48563897,24.0450384 12.9446266,24.0450384 C19.4024808,24.0450384 24.6384716,18.8722172 24.6384716,12.4910232 C24.6384716,6.1098291 19.4024808,0.937007874 12.9446266,0.937007874 C6.48563897,0.937007874 1.25078164,6.1098291 1.25078164,12.4910232" id="Fill-40" fill="#F9E5E7"></path>
                            <path d="M24.5428477,32.2954357 L24.342793,50.0643398 C24.3280581,51.3970216 23.1685347,52.4760459 21.7664521,52.4620471 C20.3643695,52.4474884 19.2292153,51.3455061 19.2445169,50.0122644 L19.4434381,32.2954357 L24.5428477,32.2954357 Z" id="Fill-56-Copy" fill="#F9E5E7"></path>
                            <path d="M5.88808379,32.5754109 L5.68802915,50.3443149 C5.67329425,51.6769967 4.5137708,52.756021 3.1116882,52.7420223 C1.70960559,52.7274636 0.574451403,51.6254813 0.589753032,50.2922396 L0.78867421,32.5754109 L5.88808379,32.5754109 Z" id="Fill-37" fill="#F9E5E7"></path>
                            <path d="M11.4046404,18.6687686 C12.6640338,20.0147213 13.844715,20.0147213 14.9466842,18.6687686" id="Path-3-Copy-2" stroke="#E71D36" stroke-width="0.9408" stroke-linecap="round"></path>
                        </g>
                        <g id="Group-47-Copy" transform="translate(35.000000, 18.000000)">
                            <path d="M19.4846562,55.8279086 C22.2213809,55.8279086 24.4401172,53.635703 24.4401172,50.9317028 L24.4401172,29.3528967 C24.4401172,26.6483365 22.2213809,24.456131 19.4846562,24.456131 L5.7811973,24.456131 C3.0444726,24.456131 0.825736383,26.6483365 0.825736383,29.3528967 L0.825736383,50.9317028 C0.825736383,53.635703 3.0444726,55.8279086 5.7811973,55.8279086 L19.4846562,55.8279086 Z" id="Fill-18" fill="#E71D36"></path>
                            <polygon id="Fill-44" fill="#E71D36" points="2 24 25 24 25 9 2 9"></polygon>
                            <path d="M12.9015554,17.7367269 C14.6408405,17.7367269 16.0508573,19.8992551 16.0508573,22.5668585 L16.0508573,26.6584156 C15.1429607,27.1489321 14.062779,27.4345068 12.9015554,27.4345068 C11.7403317,27.4345068 10.6601501,27.1489321 9.75168669,26.6584156 L9.75168669,22.5668585 C9.75168669,19.8992551 11.1622702,17.7367269 12.9015554,17.7367269" id="Fill-30" fill="#EFDADD"></path>
                            <path d="M1.25078164,12.4910232 C1.25078164,18.8722172 6.48563897,24.0450384 12.9446266,24.0450384 C19.4024808,24.0450384 24.6384716,18.8722172 24.6384716,12.4910232 C24.6384716,6.1098291 19.4024808,0.937007874 12.9446266,0.937007874 C6.48563897,0.937007874 1.25078164,6.1098291 1.25078164,12.4910232" id="Fill-40" fill="#F9E5E7"></path>
                            <path d="M24.5428477,32.2954357 L24.342793,50.0643398 C24.3280581,51.3970216 23.1685347,52.4760459 21.7664521,52.4620471 C20.3643695,52.4474884 19.2292153,51.3455061 19.2445169,50.0122644 L19.4434381,32.2954357 L24.5428477,32.2954357 Z" id="Fill-56-Copy" fill="#F9E5E7"></path>
                            <path d="M5.88808379,32.5754109 L5.68802915,50.3443149 C5.67329425,51.6769967 4.5137708,52.756021 3.1116882,52.7420223 C1.70960559,52.7274636 0.574451403,51.6254813 0.589753032,50.2922396 L0.78867421,32.5754109 L5.88808379,32.5754109 Z" id="Fill-37" fill="#F9E5E7"></path>
                            <path d="M11.4046404,18.6687686 C12.6640338,20.0147213 13.844715,20.0147213 14.9466842,18.6687686" id="Path-3-Copy-2" stroke="#E71D36" stroke-width="0.9408" stroke-linecap="round"></path>
                        </g>
                    </g>
                </g>
            </g>
        </g>
    </g>
</svg>