<?xml version="1.0" encoding="UTF-8"?>
<svg width="18px" height="18px" viewBox="0 0 18 18" version="1.1" xmlns="http://www.w3.org/2000/svg" xmlns:xlink="http://www.w3.org/1999/xlink">
    <!-- Generator: Sketch 50 (54983) - http://www.bohemiancoding.com/sketch -->
    <title>Facebook</title>
    <desc>Created with Sketch.</desc>
    <defs></defs>
    <g id="Finals" stroke="none" stroke-width="1" fill="none" fill-rule="evenodd">
        <g id="Skool-Tales--Landing-Mobile-Menu" transform="translate(-135.000000, -594.000000)" fill="#FFFFFF">
            <g id="Group-41" transform="translate(135.000000, 594.000000)">
                <path d="M18,17.006156 C18,17.554805 17.5552832,18 17.0066193,18 L12.4197107,18 L12.4197107,11.0293637 L14.7594999,11.0293637 L15.110076,8.31308564 L12.4197107,8.31308564 L12.4197107,6.57839399 C12.4197107,5.79194814 12.6383918,5.25604707 13.7661191,5.25604707 L15.204707,5.25555677 L15.204707,2.8256156 C14.9556264,2.79276531 14.1019858,2.71872957 13.1086051,2.71872957 C11.0345673,2.71872957 9.61461142,3.98469165 9.61461142,6.309708 L9.61461142,8.31308564 L7.26893847,8.31308564 L7.26893847,11.0293637 L9.61461142,11.0293637 L9.61461142,18 L0.993380731,18 C0.444716842,18 0,17.554805 0,17.006156 L0,0.993843975 C0,0.444704729 0.444716842,0 0.993380731,0 L17.0066193,0 C17.5552832,0 18,0.444704729 18,0.993843975 L18,17.006156" id="Facebook"></path>
            </g>
        </g>
    </g>
</svg>