<?xml version="1.0" encoding="UTF-8"?>
<svg width="23px" height="23px" viewBox="0 0 23 23" version="1.1" xmlns="http://www.w3.org/2000/svg" xmlns:xlink="http://www.w3.org/1999/xlink">
    <!-- Generator: Sketch 50 (54983) - http://www.bohemiancoding.com/sketch -->
    <title>Fill 1</title>
    <desc>Created with Sketch.</desc>
    <defs></defs>
    <g id="Finals" stroke="none" stroke-width="1" fill="none" fill-rule="evenodd">
        <g id="Skool-Tales--FAQ-Mobile" transform="translate(-313.000000, -1754.000000)" fill="#E71D36">
            <path d="M324.979167,1766.42431 L324.979167,1768.85417 C324.979167,1769.11915 324.7645,1769.33333 324.5,1769.33333 C324.2355,1769.33333 324.020833,1769.11915 324.020833,1768.85417 L324.020833,1765.97917 C324.020833,1765.71467 324.2355,1765.5 324.5,1765.5 C325.821062,1765.5 326.895833,1764.42523 326.895833,1763.10417 C326.895833,1761.7831 325.821062,1760.70833 324.5,1760.70833 C323.178938,1760.70833 322.104167,1761.7831 322.104167,1763.10417 C322.104167,1763.36915 321.8895,1763.58333 321.625,1763.58333 C321.3605,1763.58333 321.145833,1763.36915 321.145833,1763.10417 C321.145833,1761.25506 322.650417,1759.75 324.5,1759.75 C326.349583,1759.75 327.854167,1761.25506 327.854167,1763.10417 C327.854167,1764.79131 326.602583,1766.19144 324.979167,1766.42431 M324.5,1772.20833 C323.970521,1772.20833 323.541667,1771.77996 323.541667,1771.25 C323.541667,1770.72148 323.970521,1770.29167 324.5,1770.29167 C325.028521,1770.29167 325.458333,1770.72148 325.458333,1771.25 C325.458333,1771.77996 325.028521,1772.20833 324.5,1772.20833 M313,1765.5 C313,1771.84129 318.159187,1777 324.5,1777 C330.840813,1777 336,1771.84129 336,1765.5 C336,1759.15919 330.840813,1754 324.5,1754 C318.159187,1754 313,1759.15919 313,1765.5 Z" id="Fill-1"></path>
        </g>
    </g>
</svg>