<?xml version="1.0" encoding="UTF-8"?>
<svg width="154px" height="52px" viewBox="0 0 154 52" version="1.1" xmlns="http://www.w3.org/2000/svg" xmlns:xlink="http://www.w3.org/1999/xlink">
    <!-- Generator: Sketch 50 (54983) - http://www.bohemiancoding.com/sketch -->
    <title>Group</title>
    <desc>Created with Sketch.</desc>
    <defs>
        <polygon id="path-1" points="0 0.209022472 153.638479 0.209022472 153.638479 50.9662011 0 50.9662011"></polygon>
        <linearGradient x1="50%" y1="3.5111091%" x2="50%" y2="100%" id="linearGradient-3">
            <stop stop-color="#FFFFFF" offset="0%"></stop>
            <stop stop-color="#9B9D9F" offset="100%"></stop>
        </linearGradient>
        <path d="M0.0744942966,0.232382022 L16.6705019,16.8525506 L21.2801369,12.2364607 L14.3527681,8.19707865 C14.3527681,8.19707865 14.3254335,8.181 14.2731673,8.15066292 L14.2704639,8.14914607 C14.2668593,8.14702247 14.2629544,8.14489888 14.2593498,8.14247191 L14.2575475,8.1415618 C14.2554449,8.14034831 14.2533422,8.13913483 14.2509392,8.13761798 C14.2491369,8.13670787 14.247635,8.13579775 14.2458327,8.13458427 L14.2401255,8.13124719 C14.2395247,8.13124719 14.2392243,8.13094382 14.238924,8.13064045 L14.2317148,8.12639326 C14.2317148,8.12639326 14.2317148,8.12639326 14.2314144,8.12639326 L14.2236046,8.1218427 C14.2236046,8.12153933 14.2233042,8.12153933 14.2233042,8.12153933 L0.965722433,0.390438202 C0.739836502,0.263629213 0.515152091,0.20052809 0.312095057,0.20052809 C0.228889734,0.20052809 0.148988593,0.211146067 0.0744942966,0.232382022" id="path-4"></path>
        <linearGradient x1="-2.66757394%" y1="48.0207269%" x2="100.000424%" y2="48.0207269%" id="linearGradient-6">
            <stop stop-color="#797B7D" offset="0%"></stop>
            <stop stop-color="#DDDEDF" offset="100%"></stop>
        </linearGradient>
        <path d="M0.234897338,16.9271798 C0.433448669,16.9945281 0.686669202,16.9614607 0.962117871,16.8061348 L3.3240076,15.4288315 C6.92947148,13.3264719 13.4891749,9.50126966 14.5161749,8.90241573 L14.538403,8.88937079 C14.5429087,8.88664045 14.5471141,8.88421348 14.5516198,8.88178652 L14.5519202,8.88148315 C14.5564259,8.87875281 14.5609316,8.87602247 14.5651369,8.87359551 L14.5672395,8.87238202 C14.5729468,8.86904494 14.578654,8.86601124 14.5837605,8.86267416 L14.5942738,8.85660674 C14.5951749,8.85630337 14.5957757,8.85569663 14.5963764,8.85539326 L14.6432357,8.82808989 C14.6435361,8.82808989 14.6435361,8.82778652 14.6438365,8.82778652 L14.6531483,8.82232584 L21.5802167,4.78324719 L16.9708821,0.167157303 L0.234897338,16.9271798 Z" id="path-7"></path>
        <linearGradient x1="49.0030392%" y1="0.00145171825%" x2="49.0030392%" y2="103.085912%" id="linearGradient-9">
            <stop stop-color="#8D8F92" offset="0%"></stop>
            <stop stop-color="#FBFBFB" offset="100%"></stop>
        </linearGradient>
        <path d="M0.149589354,4.7177191 L4.75892395,9.33380899 L4.75922433,9.33350562 C4.75952471,9.33350562 4.7598251,9.33320225 4.76042586,9.33289888 L4.80908745,9.30468539 C4.81028897,9.30377528 4.81179087,9.30286517 4.81329278,9.30225843 L4.81389354,9.30165169 C4.81839924,9.29922472 4.82320532,9.29619101 4.82831179,9.2931573 L4.84062738,9.28617978 C4.84152852,9.28557303 4.84212928,9.28526966 4.84303042,9.28466292 L4.85955133,9.27525843 C4.86255513,9.2734382 4.86555894,9.27161798 4.86886312,9.26979775 L4.88538403,9.26008989 C4.88688593,9.25917978 4.88808745,9.25857303 4.88928897,9.25766292 L4.90370722,9.24916854 C4.91241825,9.24431461 4.92112928,9.2391573 4.93044106,9.23369663 L4.94095437,9.22762921 C4.94275665,9.2267191 4.94425856,9.22580899 4.94576046,9.22489888 L4.9496654,9.22247191 C5.64654753,8.81625843 8.10305703,7.38404494 9.80230798,6.39323596 L9.84075665,6.37078652 C9.84676426,6.36714607 9.85307224,6.36380899 9.85907985,6.36016854 L11.4294677,5.44459551 C12.1690038,5.00683146 12.1260494,4.41586517 11.5382053,4.05394382 L11.4751255,4.01723596 C11.4718213,4.01541573 11.4685171,4.01359551 11.4652129,4.01177528 C10.8055779,3.65319101 4.75922433,0.101629213 4.75922433,0.101629213 L0.149589354,4.7177191 Z" id="path-10"></path>
        <linearGradient x1="52.9340866%" y1="-2.95741321e-06%" x2="52.9340866%" y2="99.9986846%" id="linearGradient-12">
            <stop stop-color="#CACBCD" offset="0%"></stop>
            <stop stop-color="#838588" offset="100%"></stop>
        </linearGradient>
        <polygon id="path-13" points="-0.205323194 50.9056517 153.794677 50.9056517 153.794677 -0.0943483146 -0.205323194 -0.0943483146"></polygon>
    </defs>
    <g id="Symbols" stroke="none" stroke-width="1" fill="none" fill-rule="evenodd">
        <g id="app-store-and-google-play" transform="translate(-175.000000, 0.000000)">
            <g id="app">
                <g id="Group" transform="translate(175.205323, 0.000000)">
                    <g id="Group-3" transform="translate(0.000000, 0.094348)">
                        <mask id="mask-2" fill="white">
                            <use xlink:href="#path-1"></use>
                        </mask>
                        <g id="Clip-2"></g>
                        <path d="M153.638479,44.1063809 C153.638479,47.8942685 150.598331,50.9662011 146.848384,50.9662011 L6.79159696,50.9662011 C3.04134981,50.9662011 0,47.8942685 0,44.1063809 L0,7.06814494 C0,3.28056067 3.04134981,0.208931461 6.79159696,0.208931461 L146.848384,0.208931461 C150.598331,0.208931461 153.638479,3.28056067 153.638479,7.06814494 L153.638479,44.1063809 Z" id="Fill-1" fill="#231F20" mask="url(#mask-2)"></path>
                    </g>
                    <g id="Group-6" transform="translate(11.414449, 10.408955)" fill="url(#linearGradient-3)">
                        <path d="M0.109638783,1.13794382 L0.109638783,16.8525506 L0.109638783,32.8856966 C0.109638783,33.2658202 0.275749049,33.5245955 0.535277567,33.612573 L17.2712624,16.8525506 L0.675254753,0.232382022 C0.341231939,0.326730337 0.109638783,0.631921348 0.109638783,1.13794382" id="Fill-4"></path>
                    </g>
                    <g id="Group-9" transform="translate(12.015209, 10.408955)">
                        <mask id="mask-5" fill="white">
                            <use xlink:href="#path-4"></use>
                        </mask>
                        <g id="Clip-8"></g>
                        <path d="M0.0744942966,0.232382022 L16.6705019,16.8525506 L21.2801369,12.2364607 L14.3527681,8.19707865 C14.3527681,8.19707865 14.3254335,8.181 14.2731673,8.15066292 L14.2704639,8.14914607 C14.2668593,8.14702247 14.2629544,8.14489888 14.2593498,8.14247191 L14.2575475,8.1415618 C14.2554449,8.14034831 14.2533422,8.13913483 14.2509392,8.13761798 C14.2491369,8.13670787 14.247635,8.13579775 14.2458327,8.13458427 L14.2401255,8.13124719 C14.2395247,8.13124719 14.2392243,8.13094382 14.238924,8.13064045 L14.2317148,8.12639326 C14.2317148,8.12639326 14.2317148,8.12639326 14.2314144,8.12639326 L14.2236046,8.1218427 C14.2236046,8.12153933 14.2233042,8.12153933 14.2233042,8.12153933 L0.965722433,0.390438202 C0.739836502,0.263629213 0.515152091,0.20052809 0.312095057,0.20052809 C0.228889734,0.20052809 0.148988593,0.211146067 0.0744942966,0.232382022" id="Fill-7" fill="url(#linearGradient-6)" mask="url(#mask-5)"></path>
                    </g>
                    <g id="Group-12" transform="translate(11.714829, 27.094348)">
                        <mask id="mask-8" fill="white">
                            <use xlink:href="#path-7"></use>
                        </mask>
                        <g id="Clip-11"></g>
                        <path d="M0.234897338,16.9271798 C0.433448669,16.9945281 0.686669202,16.9614607 0.962117871,16.8061348 L3.3240076,15.4288315 C6.92947148,13.3264719 13.4891749,9.50126966 14.5161749,8.90241573 L14.538403,8.88937079 C14.5429087,8.88664045 14.5471141,8.88421348 14.5516198,8.88178652 L14.5519202,8.88148315 C14.5564259,8.87875281 14.5609316,8.87602247 14.5651369,8.87359551 L14.5672395,8.87238202 C14.5729468,8.86904494 14.578654,8.86601124 14.5837605,8.86267416 L14.5942738,8.85660674 C14.5951749,8.85630337 14.5957757,8.85569663 14.5963764,8.85539326 L14.6432357,8.82808989 C14.6435361,8.82808989 14.6435361,8.82778652 14.6438365,8.82778652 L14.6531483,8.82232584 L21.5802167,4.78324719 L16.9708821,0.167157303 L0.234897338,16.9271798 Z" id="Fill-10" fill="url(#linearGradient-9)" mask="url(#mask-8)"></path>
                    </g>
                    <g id="Group-15" transform="translate(28.536122, 22.543787)">
                        <mask id="mask-11" fill="white">
                            <use xlink:href="#path-10"></use>
                        </mask>
                        <g id="Clip-14"></g>
                        <path d="M0.149589354,4.7177191 L4.75892395,9.33380899 L4.75922433,9.33350562 C4.75952471,9.33350562 4.7598251,9.33320225 4.76042586,9.33289888 L4.80908745,9.30468539 C4.81028897,9.30377528 4.81179087,9.30286517 4.81329278,9.30225843 L4.81389354,9.30165169 C4.81839924,9.29922472 4.82320532,9.29619101 4.82831179,9.2931573 L4.84062738,9.28617978 C4.84152852,9.28557303 4.84212928,9.28526966 4.84303042,9.28466292 L4.85955133,9.27525843 C4.86255513,9.2734382 4.86555894,9.27161798 4.86886312,9.26979775 L4.88538403,9.26008989 C4.88688593,9.25917978 4.88808745,9.25857303 4.88928897,9.25766292 L4.90370722,9.24916854 C4.91241825,9.24431461 4.92112928,9.2391573 4.93044106,9.23369663 L4.94095437,9.22762921 C4.94275665,9.2267191 4.94425856,9.22580899 4.94576046,9.22489888 L4.9496654,9.22247191 C5.64654753,8.81625843 8.10305703,7.38404494 9.80230798,6.39323596 L9.84075665,6.37078652 C9.84676426,6.36714607 9.85307224,6.36380899 9.85907985,6.36016854 L11.4294677,5.44459551 C12.1690038,5.00683146 12.1260494,4.41586517 11.5382053,4.05394382 L11.4751255,4.01723596 C11.4718213,4.01541573 11.4685171,4.01359551 11.4652129,4.01177528 C10.8055779,3.65319101 4.75922433,0.101629213 4.75922433,0.101629213 L0.149589354,4.7177191 Z" id="Fill-13" fill="url(#linearGradient-12)" mask="url(#mask-11)"></path>
                    </g>
                    <g id="Group-42" transform="translate(0.000000, 0.094348)">
                        <path d="M119.351998,24.8112404 C118.340618,24.8112404 117.609192,25.0942854 117.157721,25.6594652 C116.706249,26.2249483 116.474356,27.1250494 116.46204,28.3594652 L116.46204,28.6968135 C116.46204,30.1014202 116.693934,31.1064876 117.157721,31.711409 C117.621508,32.3163303 118.365249,32.6184876 119.388044,32.6184876 C120.243527,32.6184876 120.913375,32.2693079 121.398189,31.5700382 C121.882702,30.8713753 122.125109,29.9072629 122.125109,28.6783079 C122.125109,27.432364 121.882702,26.4755326 121.398189,25.8099371 C120.913375,25.1440382 120.231211,24.8112404 119.351998,24.8112404 M119.568873,33.8862742 C118.924257,33.8862742 118.335812,33.7664427 117.803538,33.526173 C117.270664,33.2862067 116.823398,32.9167011 116.46204,32.4182629 L116.353903,32.4182629 C116.425995,33.0019483 116.46204,33.5552966 116.46204,34.0780045 L116.46204,38.1911056 L114.963744,38.1911056 L114.963744,23.7075775 L116.182386,23.7075775 L116.389949,25.0757798 L116.46204,25.0757798 C116.847729,24.5281955 117.296497,24.1335101 117.808044,23.8902067 C118.319892,23.6469034 118.907135,23.5252517 119.568873,23.5252517 C120.881535,23.5252517 121.894717,23.9784876 122.60782,24.8843528 C123.321223,25.790218 123.678075,27.0613416 123.678075,28.6968135 C123.678075,30.3386562 123.315215,31.6137236 122.590398,32.5235326 C121.864379,33.4321281 120.857805,33.8862742 119.568873,33.8862742" id="Fill-16" fill="#F6F6F6"></path>
                        <mask id="mask-14" fill="white">
                            <use xlink:href="#path-13"></use>
                        </mask>
                        <g id="Clip-19"></g>
                        <polygon id="Fill-18" fill="#F6F6F6" mask="url(#mask-14)" points="125.649951 33.7038876 127.148848 33.7038876 127.148848 19.5122022 125.649951 19.5122022"></polygon>
                        <path d="M132.381291,32.6369629 C133.313972,32.6369629 134.0469,32.378491 134.580075,31.8618506 C135.112649,31.3452101 135.379687,30.6213674 135.379687,29.6906258 L135.379687,28.7877944 L133.879588,28.8511989 C132.687979,28.8945809 131.828892,29.0808506 131.301424,29.4130416 C130.774858,29.7443225 130.511424,30.2597494 130.511424,30.9590191 C130.511424,31.5056933 130.675132,31.9225247 131.003748,32.2079966 C131.332063,32.4940753 131.790443,32.6369629 132.381291,32.6369629 Z M135.767478,33.703918 L135.4692,32.2808056 L135.397109,32.2808056 C134.903284,32.907873 134.411261,33.3319854 133.92044,33.5531427 C133.429919,33.7758169 132.817143,33.8862438 132.083014,33.8862438 C131.101671,33.8862438 130.332698,33.6308056 129.775493,33.1202326 C129.218588,32.6093562 128.940135,31.8833899 128.940135,30.9405135 C128.940135,28.9221876 130.538759,27.8643337 133.735405,27.7663449 L135.415732,27.7117382 L135.415732,27.0916483 C135.415732,26.3071315 135.248421,25.7276933 134.914097,25.3542438 C134.580075,24.9798843 134.045097,24.7933112 133.311268,24.7933112 C132.486124,24.7933112 131.552542,25.0484461 130.511424,25.5593225 L130.050641,24.4010528 C130.538759,24.1334798 131.072835,23.9235472 131.654071,23.7715584 C132.235006,23.6195697 132.817143,23.5434236 133.401383,23.5434236 C134.581276,23.5434236 135.455683,23.8076596 136.025204,24.3370416 C136.593523,24.8661202 136.878284,25.7143449 136.878284,26.8817157 L136.878284,33.703918 L135.767478,33.703918 Z" id="Fill-20" fill="#F6F6F6" mask="url(#mask-14)"></path>
                        <path d="M137.748545,23.7076685 L139.355579,23.7076685 L141.522823,29.408309 C141.998325,30.7097697 142.293899,31.6490056 142.408644,32.226927 L142.480735,32.226927 C142.559135,31.9162753 142.723142,31.3862865 142.972758,30.6345337 C143.222675,29.8833876 144.040009,27.5750393 145.424462,23.7076685 L147.032397,23.7076685 L142.778412,35.0904438 C142.357279,36.2153427 141.864956,37.0132079 141.301443,37.4852528 C140.73883,37.9560843 140.047656,38.1911966 139.22972,38.1911966 C138.77164,38.1911966 138.320169,38.1396236 137.874405,38.0364775 L137.874405,36.8236011 C138.205123,36.8967135 138.576093,36.9334213 138.985511,36.9334213 C140.015214,36.9334213 140.749043,36.349736 141.1891,35.1817584 L141.739697,33.7592528 L137.748545,23.7076685 Z" id="Fill-21" fill="#F6F6F6" mask="url(#mask-14)"></path>
                        <path d="M90.9294205,29.9472169 C91.4049224,29.4657674 91.4457741,28.7974416 91.4457741,28.4206551 C91.4457741,26.9156326 90.5560479,24.5739135 88.8381734,24.5739135 C88.2992913,24.5739135 87.7201582,24.8454303 87.3888388,25.2643854 C87.0373939,25.7033629 86.9328616,26.2670258 86.9328616,26.811273 C86.9328616,28.211936 87.740584,30.5330258 89.5215384,30.5330258 C90.0390935,30.5330258 90.5968996,30.2821382 90.9294205,29.9472169 Z M90.3286601,33.920464 C90.1631506,33.898318 90.059219,33.898318 89.8531582,33.898318 C89.6669224,33.898318 88.5474053,33.9410933 87.6790061,34.2347562 C87.2236297,34.4007 85.8983521,34.9024753 85.8983521,36.3877787 C85.8983521,37.8712618 87.3275612,38.9394303 89.5428654,38.9394303 C91.5289795,38.9394303 92.5860175,37.9756213 92.5860175,36.6802281 C92.5860175,35.6120596 91.9023521,35.0496101 90.3286601,33.920464 Z M91.7990213,24.6364079 C92.2748236,25.034127 93.268181,25.8699135 93.268181,27.4595764 C93.268181,29.0055539 92.3988806,29.7391045 91.5289795,30.4280596 C91.2598388,30.6995764 90.9492456,30.9932393 90.9492456,31.4537562 C90.9492456,31.9127562 91.2598388,32.1639472 91.4881278,32.3523404 L92.2339719,32.9366326 C93.1447247,33.7102281 93.9719719,34.4216326 93.9719719,35.8650708 C93.9719719,37.8300034 92.0876867,39.8158685 88.5278806,39.8158685 C85.5255802,39.8158685 84.0771468,38.3736438 84.0771468,36.8255427 C84.0771468,36.0728798 84.4481163,35.0074416 85.6709643,34.2748011 C86.9535878,33.480273 88.6939909,33.3768236 89.6248692,33.312509 C89.3341011,32.9366326 89.0036829,32.5392169 89.0036829,31.892127 C89.0036829,31.5371831 89.1076144,31.3278573 89.2106449,31.0757562 C88.9823559,31.0969921 88.7549681,31.1176213 88.5474053,31.1176213 C86.3540289,31.1176213 85.1116563,29.4657674 85.1116563,27.8357562 C85.1116563,26.8737674 85.5469072,25.8071157 86.4360327,25.034127 C87.616527,24.0512056 89.0241087,23.8837449 90.1430251,23.8837449 L94.4066221,23.8837449 L93.0816449,24.6364079 L91.7990213,24.6364079 Z" id="Fill-22" fill="#F6F6F6" mask="url(#mask-14)"></path>
                        <path d="M81.3489133,31.8951303 C81.8457422,31.2265011 81.9697992,30.3919281 81.9697992,29.5770742 C81.9697992,27.7398607 81.1020008,24.2331978 78.5388563,24.2331978 C77.8569932,24.2331978 77.1748297,24.5053213 76.6789019,24.9442989 C75.8729817,25.6739056 75.7272973,26.5925124 75.7272973,27.4914 C75.7272973,29.5564449 76.7401795,32.9581416 79.241746,32.9581416 C80.0476662,32.9581416 80.8746129,32.5622427 81.3489133,31.8951303 M78.7656433,33.5855124 C75.479784,33.5855124 73.7228601,30.9968494 73.7228601,28.6584674 C73.7228601,25.9235798 75.9342593,23.5867146 79.0771376,23.5867146 C82.1139817,23.5867146 84.015689,25.9863775 84.015689,28.5128494 C84.015689,30.9753101 82.1356091,33.5855124 78.7656433,33.5855124" id="Fill-23" fill="#F6F6F6" mask="url(#mask-14)"></path>
                        <path d="M70.1468635,31.8951303 C70.6427913,31.2265011 70.7671487,30.3919281 70.7671487,29.5770742 C70.7671487,27.7398607 69.8987494,24.2331978 67.3356049,24.2331978 C66.6540422,24.2331978 65.9715783,24.5053213 65.4756506,24.9442989 C64.6697304,25.6739056 64.5249471,26.5925124 64.5249471,27.4914 C64.5249471,29.5564449 65.5372285,32.9581416 68.0390954,32.9581416 C68.845316,32.9581416 69.671662,32.5622427 70.1468635,31.8951303 M67.5629928,33.5855124 C64.2765327,33.5855124 62.5196087,30.9968494 62.5196087,28.6584674 C62.5196087,25.9235798 64.7316087,23.5867146 67.8735859,23.5867146 C70.9113312,23.5867146 72.812738,25.9863775 72.812738,28.5128494 C72.812738,30.9753101 70.9323578,33.5855124 67.5629928,33.5855124" id="Fill-24" fill="#F6F6F6" mask="url(#mask-14)"></path>
                        <path d="M60.9406601,33.258509 L57.9689985,33.9511045 C56.7629719,34.1404079 55.6828046,34.3069584 54.5404586,34.3069584 C48.8046981,34.3069584 46.6236373,30.0464191 46.6236373,26.7093404 C46.6236373,22.6384079 49.7190555,18.8617449 55.0189643,18.8617449 C56.1414852,18.8617449 57.2210517,19.0292056 58.1975878,19.3022393 C59.7559605,19.7430371 60.483181,20.2881944 60.9406601,20.6033966 L59.215276,22.261318 L58.4886563,22.4284753 L59.0080137,21.5887449 C58.3018198,20.8967562 57.0122875,19.6168348 54.5611848,19.6168348 C51.2777285,19.6168348 48.8046981,22.1363292 48.8046981,25.8086326 C48.8046981,29.7530596 51.6309757,33.4681382 56.1604091,33.4681382 C57.4916943,33.4681382 58.1759605,33.1954079 58.7998502,32.9430034 L58.7998502,29.5646663 L55.6623787,29.7324303 L57.3240821,28.8289921 L61.7297589,28.8289921 L61.1899757,29.3535202 C61.0433901,29.4800258 61.0232646,29.5224978 60.9818122,29.6887449 C60.9601848,29.8780483 60.9406601,30.4872169 60.9406601,30.6971494 L60.9406601,33.258509 Z" id="Fill-25" fill="#F6F6F6" mask="url(#mask-14)"></path>
                        <path d="M98.3667449,32.6541337 C97.6806764,32.5910326 97.5370947,32.4657404 97.5370947,31.646336 L97.5370947,31.4151674 L97.5370947,19.7678528 C97.5413,19.7226506 97.5443038,19.6765382 97.5482087,19.6325494 C97.6323152,18.8983921 97.8395776,18.7724933 98.4847943,18.3941899 L95.5119312,18.3941899 L93.9529578,19.1498865 L95.5416688,19.1498865 L95.5416688,19.1595944 L95.5404673,19.1517067 L95.5404673,31.4151674 L95.5404673,32.1083697 C95.5404673,32.5273247 95.4581631,32.5910326 94.9799578,33.2199202 L98.6584141,33.2199202 L99.4270871,32.7597067 C99.0741403,32.7163247 98.7205928,32.6959989 98.3667449,32.6541337" id="Fill-26" fill="#F6F6F6" mask="url(#mask-14)"></path>
                        <path d="M104.883314,26.635318 C105.274709,26.4897 105.48107,26.3644079 105.48107,26.0728685 C105.48107,25.2398124 104.552895,24.2805539 103.437884,24.2805539 C102.611238,24.2805539 101.06458,24.9270371 101.06458,27.1774416 C101.06458,27.5317787 101.106032,27.9067449 101.127359,28.2832281 L104.883314,26.635318 Z M106.822268,32.8471382 C106.596082,32.9724303 106.368994,33.1189584 106.142808,33.2224079 C105.460644,33.5348798 104.759257,33.6183067 104.138971,33.6183067 C103.480238,33.6183067 102.447831,33.5755315 101.394397,32.805273 C99.9303441,31.7622843 99.2905342,29.9699697 99.2905342,28.4073067 C99.2905342,25.1770146 101.890625,23.5934191 104.016116,23.5934191 C104.759257,23.5934191 105.523724,23.7805989 106.142808,24.1771045 C107.173713,24.8636326 107.441952,25.7597899 107.585534,26.2394191 L102.737097,28.2204303 L101.147785,28.3454191 C101.662937,30.9920258 103.437884,32.5331494 105.399067,32.5331494 C106.451298,32.5331494 107.215165,32.1587899 107.916553,31.8050596 L106.822268,32.8471382 Z" id="Fill-27" fill="#F6F6F6" mask="url(#mask-14)"></path>
                        <polygon id="Fill-28" fill="#F6F6F6" mask="url(#mask-14)" points="108.81436 23.7358213 108.81436 25.1110011 108.64885 25.1110011 108.64885 23.7358213 108.19828 23.7358213 108.19828 23.5932371 109.26463 23.5932371 109.26463 23.7358213"></polygon>
                        <polygon id="Fill-29" fill="#F6F6F6" mask="url(#mask-14)" points="110.670619 25.1110618 110.670619 23.7231404 110.66311 23.7231404 110.243479 25.1110618 110.114015 25.1110618 109.691079 23.7231404 109.685973 23.7231404 109.685973 25.1110618 109.535783 25.1110618 109.535783 23.5932978 109.793209 23.5932978 110.176194 24.8201292 110.1813 24.8201292 110.558277 23.5932978 110.819308 23.5932978 110.819308 25.1110618"></polygon>
                        <path d="M49.2597141,12.9338494 C48.8917483,11.8128944 48.7079156,11.2067596 48.7079156,11.1154449 L48.6562502,11.1154449 C48.6562502,11.2000854 48.4658091,11.8062202 48.0852274,12.9338494 L49.2597141,12.9338494 Z M50.7505011,14.7750067 L49.7177939,14.7750067 C49.7177939,14.6318157 49.61987,14.2256022 49.4243224,13.5563663 L47.9335354,13.5563663 C47.7313795,14.2146809 47.6301513,14.6208944 47.6301513,14.7750067 L46.6590221,14.7750067 C46.6590221,14.6903663 46.9101399,13.9950404 47.4123757,12.6893326 C47.9146114,11.3839281 48.1657293,10.664636 48.1657293,10.5320629 L49.3855734,10.5320629 C49.3855734,10.6558382 49.6129612,11.3645124 50.0680373,12.6583888 C50.5231133,13.9522652 50.7505011,14.6579056 50.7505011,14.7750067 Z" id="Fill-30" fill="#F8F8F9" mask="url(#mask-14)"></path>
                        <path d="M54.9112179,14.7751281 L54.1143091,14.7751281 C54.1143091,14.6859371 53.8184346,14.2157124 53.2269859,13.3641506 C52.6073015,12.4667798 52.2543548,11.8530607 52.168446,11.5226899 L52.1167806,11.5226899 C52.1705487,11.9986787 52.1975829,12.4288584 52.1975829,12.8132292 C52.1975829,13.3498921 52.2126019,14.0039596 52.2426399,14.7751281 L51.4490354,14.7751281 C51.481176,14.1016449 51.4973966,13.362027 51.4973966,12.5556674 C51.4973966,11.7626562 51.481176,11.0882629 51.4490354,10.5321843 L52.4072483,10.5321843 C52.4072483,10.6474652 52.6727844,11.1067685 53.204157,11.9107011 C53.7700734,12.7643865 54.0947844,13.343218 54.1785905,13.6474989 L54.2272521,13.6474989 C54.1755867,13.1630157 54.149754,12.7285888 54.149754,12.3439146 C54.149754,11.7553753 54.134735,11.151364 54.1043966,10.5321843 L54.9112179,10.5321843 C54.8808795,11.0709708 54.8661608,11.7456674 54.8661608,12.5556674 C54.8661608,13.3726449 54.8808795,14.1122629 54.9112179,14.7751281" id="Fill-31" fill="#F8F8F9" mask="url(#mask-14)"></path>
                        <path d="M58.7071829,12.647073 C58.7071829,12.2299382 58.5867304,11.8786348 58.3458255,11.5925562 C58.1049205,11.3070843 57.7369548,11.1641966 57.2422285,11.1641966 C57.1497114,11.1641966 57.022951,11.1742079 56.8613464,11.1936236 C56.8829738,11.6283539 56.8937875,12.0821966 56.8937875,12.5557584 C56.8937875,13.0751292 56.9043008,13.5899494 56.9259281,14.1005225 C57.0659053,14.128736 57.2055821,14.1429944 57.3455593,14.1429944 C57.8078445,14.1429944 58.1505783,13.9976798 58.3731601,13.7076573 C58.5957418,13.4176348 58.7071829,13.0642079 58.7071829,12.647073 M59.5881981,12.5069157 C59.5881981,13.1239719 59.3923502,13.6627584 59.0006544,14.1232753 C58.6092589,14.5840955 58.0607646,14.8143539 57.3551715,14.8143539 C57.0367684,14.8143539 56.5979129,14.801309 56.0386049,14.7752191 C56.0665403,14.1190281 56.0806582,13.3791067 56.0806582,12.5557584 C56.0806582,11.7651742 56.0665403,11.0904775 56.0386049,10.5319719 L56.6033198,10.5319719 C56.6958369,10.5319719 56.833411,10.5289382 57.0163426,10.522264 C57.1989738,10.5158933 57.3185251,10.5125562 57.3743958,10.5125562 C58.1508787,10.5125562 58.7140916,10.707927 59.0637342,11.0989719 C59.4133768,11.4903202 59.5881981,11.9593315 59.5881981,12.5069157" id="Fill-32" fill="#F8F8F9" mask="url(#mask-14)"></path>
                        <path d="M62.690435,11.7769753 C62.690435,11.3446719 62.4149863,11.1283685 61.8643894,11.1283685 C61.6622335,11.1283685 61.4835072,11.1435371 61.3288114,11.1741775 C61.3522411,11.5109191 61.3642563,11.9495933 61.3642563,12.4905034 C61.4826061,12.4950539 61.5826327,12.4971775 61.6643361,12.4971775 C62.3483019,12.4971775 62.690435,12.2572112 62.690435,11.7769753 M63.9003665,14.7751888 L62.9454578,14.7751888 C62.6958418,14.0061438 62.5041992,13.5313685 62.3711308,13.3508629 C62.2374616,13.1706607 62.0223894,13.0805596 61.7256137,13.0805596 C61.6009559,13.0805596 61.4814046,13.081773 61.3675605,13.0838966 C61.3675605,13.6420989 61.3771726,14.2060652 61.396397,14.7751888 L60.4994616,14.7751888 C60.527397,14.1189978 60.5415148,13.3790764 60.5415148,12.5557281 C60.5415148,11.7651438 60.527397,11.0904472 60.4994616,10.5319416 L61.0575681,10.5319416 C61.1221498,10.5319416 61.2573209,10.5289079 61.462781,10.5222337 C61.6679407,10.5158629 61.8580814,10.5125258 62.0323019,10.5125258 C63.0196517,10.5125258 63.5131764,10.8535146 63.5131764,11.5357955 C63.5131764,12.0767056 63.2314198,12.4534921 62.6679065,12.6667618 L62.6679065,12.7156045 C62.8850814,12.7762787 63.0755224,12.9473798 63.2389293,13.2286045 C63.4023361,13.5101326 63.6228152,14.0255596 63.9003665,14.7751888" id="Fill-33" fill="#F8F8F9" mask="url(#mask-14)"></path>
                        <path d="M67.6352643,12.6698865 C67.6352643,12.2157404 67.5202186,11.8474483 67.2901274,11.5650101 C67.0597357,11.2828753 66.7758764,11.1415045 66.438249,11.1415045 C66.1240513,11.1415045 65.8573137,11.2837854 65.6380361,11.5683472 C65.4184582,11.8532124 65.3088194,12.2124034 65.3088194,12.6471337 C65.3088194,13.0988528 65.4244658,13.4665382 65.6557586,13.7501899 C65.886751,14.0335382 66.1703099,14.1755157 66.5058346,14.1755157 C66.8200323,14.1755157 67.08677,14.0326281 67.3060475,13.7468528 C67.5256255,13.4610775 67.6352643,13.1021899 67.6352643,12.6698865 M68.5258916,12.5752348 C68.5258916,13.2423472 68.3237357,13.7953921 67.9191236,14.2340663 C67.5148118,14.6730438 67.0146787,14.8923809 66.4187243,14.8923809 C65.8510057,14.8923809 65.3755038,14.6909427 64.992519,14.2877629 C64.6095342,13.8848865 64.418192,13.3724933 64.418192,12.7514933 C64.418192,12.0843809 64.6203479,11.531336 65.0249601,11.0926618 C65.4292719,10.6539876 65.9294049,10.4343472 66.5253593,10.4343472 C67.0930779,10.4343472 67.5685798,10.6351787 67.9515646,11.0371449 C68.334249,11.4391112 68.5258916,11.9518079 68.5258916,12.5752348" id="Fill-34" fill="#F8F8F9" mask="url(#mask-14)"></path>
                        <path d="M70.350281,14.7751281 L69.4371251,14.7751281 C69.4650605,14.1016449 69.4791783,13.362027 69.4791783,12.5556674 C69.4791783,11.7626562 69.4650605,11.0882629 69.4371251,10.5321843 L70.350281,10.5321843 C70.3223456,11.0794652 70.3082278,11.7541618 70.3082278,12.5556674 C70.3082278,13.3750719 70.3223456,14.1146899 70.350281,14.7751281" id="Fill-35" fill="#F8F8F9" mask="url(#mask-14)"></path>
                        <path d="M74.1463962,12.647073 C74.1463962,12.2299382 74.0259437,11.8786348 73.7850388,11.5925562 C73.5441338,11.3070843 73.1761681,11.1641966 72.6814418,11.1641966 C72.5889247,11.1641966 72.4621643,11.1742079 72.3005597,11.1936236 C72.3221871,11.6283539 72.3330008,12.0821966 72.3330008,12.5557584 C72.3330008,13.0751292 72.3435141,13.5899494 72.3651414,14.1005225 C72.5051186,14.128736 72.6447954,14.1429944 72.7847726,14.1429944 C73.2470578,14.1429944 73.5897916,13.9976798 73.8123734,13.7076573 C74.0349551,13.4176348 74.1463962,13.0642079 74.1463962,12.647073 M75.0274114,12.5069157 C75.0274114,13.1239719 74.8315635,13.6627584 74.4398677,14.1232753 C74.0484722,14.5840955 73.4999779,14.8143539 72.7943848,14.8143539 C72.4759817,14.8143539 72.0371262,14.801309 71.4778183,14.7752191 C71.5057536,14.1190281 71.5198715,13.3791067 71.5198715,12.5557584 C71.5198715,11.7651742 71.5057536,11.0904775 71.4778183,10.5319719 L72.0425331,10.5319719 C72.1350502,10.5319719 72.2726243,10.5289382 72.4555559,10.522264 C72.6381871,10.5158933 72.7577384,10.5125562 72.8136091,10.5125562 C73.590092,10.5125562 74.1533049,10.707927 74.5029475,11.0989719 C74.8525901,11.4903202 75.0274114,11.9593315 75.0274114,12.5069157" id="Fill-36" fill="#F8F8F9" mask="url(#mask-14)"></path>
                        <path d="M79.7411281,12.9338494 C79.3731624,11.8128944 79.1890293,11.2067596 79.1890293,11.1154449 L79.1373639,11.1154449 C79.1373639,11.2000854 78.9472232,11.8062202 78.5666414,12.9338494 L79.7411281,12.9338494 Z M81.2319152,14.7750067 L80.199208,14.7750067 C80.199208,14.6318157 80.101284,14.2256022 79.9054361,13.5563663 L78.414649,13.5563663 C78.2124932,14.2146809 78.111265,14.6208944 78.111265,14.7750067 L77.1404361,14.7750067 C77.1404361,14.6903663 77.391554,13.9950404 77.8937897,12.6893326 C78.3960255,11.3839281 78.646843,10.664636 78.646843,10.5320629 L79.8666871,10.5320629 C79.8666871,10.6558382 80.0943753,11.3645124 80.549151,12.6583888 C81.004227,13.9522652 81.2319152,14.6579056 81.2319152,14.7750067 Z" id="Fill-37" fill="#F8F8F9" mask="url(#mask-14)"></path>
                        <path d="M84.1632357,11.8225719 C84.1632357,11.3578079 83.857749,11.1251225 83.2467757,11.1251225 C83.0938821,11.1251225 82.9325779,11.1415045 82.7628631,11.1739652 C82.7865932,11.5847292 82.798308,12.0494933 82.798308,12.568864 C82.852076,12.5734146 82.9145551,12.5752348 82.9854449,12.5752348 C83.7706388,12.5752348 84.1632357,12.3243472 84.1632357,11.8225719 M84.9955894,11.6432798 C84.9955894,12.1626506 84.8048479,12.5461112 84.4227643,12.7936618 C84.0412814,13.0415157 83.5726882,13.165291 83.0175856,13.165291 C82.9166578,13.165291 82.8445665,13.1631674 82.8016122,13.1586169 C82.8016122,13.5672573 82.813327,14.1057404 82.837057,14.7749764 L81.9302091,14.7749764 C81.9581445,14.1473022 81.9722624,13.4076843 81.9722624,12.5558191 C81.9722624,11.7737292 81.9581445,11.0990326 81.9302091,10.5320326 L82.4916198,10.5320326 C82.5712205,10.5320326 82.7241141,10.5286955 82.95,10.5223247 C83.1758859,10.5156506 83.3714335,10.5126169 83.5372433,10.5126169 C83.9457605,10.5126169 84.2911977,10.6057517 84.5729544,10.7926281 C84.8550114,10.9798079 84.9955894,11.2631562 84.9955894,11.6432798" id="Fill-38" fill="#F8F8F9" mask="url(#mask-14)"></path>
                        <path d="M88.0332745,11.8225719 C88.0332745,11.3578079 87.7277878,11.1251225 87.1168144,11.1251225 C86.9639209,11.1251225 86.8026167,11.1415045 86.6329019,11.1739652 C86.6566319,11.5847292 86.6683468,12.0494933 86.6683468,12.568864 C86.7221148,12.5734146 86.7845939,12.5752348 86.8554837,12.5752348 C87.6406776,12.5752348 88.0332745,12.3243472 88.0332745,11.8225719 M88.8659285,11.6432798 C88.8659285,12.1626506 88.6748867,12.5461112 88.2931034,12.7936618 C87.9113202,13.0415157 87.442727,13.165291 86.8876243,13.165291 C86.7866966,13.165291 86.7146053,13.1631674 86.671651,13.1586169 C86.671651,13.5672573 86.6833658,14.1057404 86.7070958,14.7749764 L85.8002479,14.7749764 C85.8281833,14.1473022 85.8423011,13.4076843 85.8423011,12.5558191 C85.8423011,11.7737292 85.8281833,11.0990326 85.8002479,10.5320326 L86.3619589,10.5320326 C86.4412593,10.5320326 86.5941529,10.5286955 86.8200388,10.5223247 C87.0459247,10.5156506 87.2414722,10.5126169 87.4072821,10.5126169 C87.8157992,10.5126169 88.1612365,10.6057517 88.4429932,10.7926281 C88.7250502,10.9798079 88.8659285,11.2631562 88.8659285,11.6432798" id="Fill-39" fill="#F8F8F9" mask="url(#mask-14)"></path>
                        <path d="M94.3025403,12.6698865 C94.3025403,12.2157404 94.1874947,11.8474483 93.957103,11.5650101 C93.7270118,11.2828753 93.4431525,11.1415045 93.1055251,11.1415045 C92.7913274,11.1415045 92.5245897,11.2837854 92.3050118,11.5683472 C92.0857342,11.8532124 91.9760954,12.2124034 91.9760954,12.6471337 C91.9760954,13.0988528 92.0917418,13.4665382 92.3230346,13.7501899 C92.5543274,14.0335382 92.8375859,14.1755157 93.1731106,14.1755157 C93.4873084,14.1755157 93.754046,14.0326281 93.9733236,13.7468528 C94.1929015,13.4610775 94.3025403,13.1021899 94.3025403,12.6698865 M95.1931677,12.5752348 C95.1931677,13.2423472 94.9910118,13.7953921 94.5863996,14.2340663 C94.1820878,14.6730438 93.6819548,14.8923809 93.0860004,14.8923809 C92.5179814,14.8923809 92.0424795,14.6909427 91.6597951,14.2877629 C91.2771106,13.8848865 91.0854681,13.3724933 91.0854681,12.7514933 C91.0854681,12.0843809 91.287624,11.531336 91.6919357,11.0926618 C92.0965479,10.6539876 92.596681,10.4343472 93.1926354,10.4343472 C93.760354,10.4343472 94.2358559,10.6351787 94.6188407,11.0371449 C95.0015251,11.4391112 95.1931677,11.9518079 95.1931677,12.5752348" id="Fill-40" fill="#F8F8F9" mask="url(#mask-14)"></path>
                        <path d="M99.566824,14.7751281 L98.7699152,14.7751281 C98.7699152,14.6859371 98.4740407,14.2157124 97.8822916,13.3641506 C97.2629076,12.4667798 96.9099608,11.8530607 96.8240521,11.5226899 L96.7723867,11.5226899 C96.8261548,11.9986787 96.853189,12.4288584 96.853189,12.8132292 C96.853189,13.3498921 96.868208,14.0039596 96.898246,14.7751281 L96.1046414,14.7751281 C96.1367821,14.1016449 96.1530027,13.362027 96.1530027,12.5556674 C96.1530027,11.7626562 96.1367821,11.0882629 96.1046414,10.5321843 L97.0628544,10.5321843 C97.0628544,10.6474652 97.3286909,11.1067685 97.8597631,11.9107011 C98.4256795,12.7643865 98.7503905,13.343218 98.8341966,13.6474989 L98.8828582,13.6474989 C98.8311928,13.1630157 98.8053601,12.7285888 98.8053601,12.3439146 C98.8053601,11.7553753 98.7903411,11.151364 98.7600027,10.5321843 L99.566824,10.5321843 C99.5364856,11.0709708 99.5217669,11.7456674 99.5217669,12.5556674 C99.5217669,13.3726449 99.5364856,14.1122629 99.566824,14.7751281" id="Fill-41" fill="#F8F8F9" mask="url(#mask-14)"></path>
                    </g>
                </g>
            </g>
        </g>
    </g>
</svg>