<?xml version="1.0" encoding="UTF-8"?>
<svg width="18px" height="17px" viewBox="0 0 18 17" version="1.1" xmlns="http://www.w3.org/2000/svg" xmlns:xlink="http://www.w3.org/1999/xlink">
    <!-- Generator: Sketch 50 (54983) - http://www.bohemiancoding.com/sketch -->
    <title>Fill 88</title>
    <desc>Created with Sketch.</desc>
    <defs></defs>
    <g id="Finals" stroke="none" stroke-width="1" fill="none" fill-rule="evenodd">
        <g id="Skool-Tales--Landing" transform="translate(-1264.000000, -4314.000000)" fill="#E71D36">
            <g id="footer" transform="translate(3.000000, 3961.000000)">
                <g id="Footer-#1">
                    <g id="Group-41" transform="translate(1174.000000, 352.000000)">
                        <path d="M87.4537815,6.45139552 L90.9620493,6.45139552 L90.9620493,18 L87.4537815,18 L87.4537815,6.45139552 Z M100.547574,6.34038049 C103.040933,6.34038049 105,8.00155057 105,11.5788705 L105,18 L101.021849,18 L101.021849,12.0239444 C101.021849,10.4595957 100.399729,9.39202648 99.0310653,9.39202648 C97.9844402,9.39202648 97.4023313,10.1123569 97.1315262,10.8068344 C97.0300352,11.0562381 97.0456492,11.4034769 97.0456492,11.7507156 L97.0456492,18 L93.1045812,18 C93.1045812,18 93.1553266,7.41403268 93.1045812,6.45139552 L97.0456492,6.45139552 L97.0456492,8.26413406 C97.2783952,7.47131441 98.5377609,6.34038049 100.547574,6.34038049 Z M89.1430198,1 C90.4375169,1 91.2333424,1.86226741 91.2587151,3.00181894 C91.2587151,4.12109375 90.4375169,5.00718631 89.1186229,5.00718631 L89.0932502,5.00718631 C87.8236378,5.00718631 87,4.12413526 87,3.00486045 C87,1.86429509 87.8475468,1 89.1430198,1 Z" id="Fill-88"></path>
                    </g>
                </g>
            </g>
        </g>
    </g>
</svg>