<?xml version="1.0" encoding="UTF-8"?>
<svg width="1440px" height="950px" viewBox="0 0 1440 950" version="1.1" xmlns="http://www.w3.org/2000/svg" xmlns:xlink="http://www.w3.org/1999/xlink">
    <!-- Generator: Sketch 50 (54983) - http://www.bohemiancoding.com/sketch -->
    <title>landing - background</title>
    <desc>Created with Sketch.</desc>
    <defs>
        <path d="M145.41626,18.4344183 L145.41626,31.9792339 C145.41626,34.4726088 147.412579,36.4941725 149.874817,36.4941725 L163.25049,36.4941725 C165.712729,36.4941725 167.709048,34.4726088 167.709048,31.9792339 L167.709048,18.4344183 C167.709048,15.9410434 165.712729,13.9194797 163.25049,13.9194797 L149.874817,13.9194797 C147.412579,13.9194797 145.41626,15.9410434 145.41626,18.4344183 Z" id="path-1"></path>
        <path d="M30.2139658,42.7704865 C28.2965091,44.665536 26.1960028,46.3816914 23.940678,47.8912232 L23.940678,40.0015748 L30.2139658,40.0015748 L30.2139658,42.7704865 Z" id="path-3"></path>
        <path d="M30.4700606,42.5890155 C29.4160599,43.6432453 28.3058041,44.6430303 27.1440678,45.5836805 L27.1440678,40.0015748 L30.4700606,40.0015748 L30.4700606,42.5890155 Z" id="path-5"></path>
        <path d="M30.2139658,42.6508721 C28.2964613,44.5455325 26.1959576,46.2613145 23.940678,47.7704962 L23.940678,35.1070866 L30.2139658,35.1070866 L30.2139658,42.6508721 Z" id="path-7"></path>
        <path d="M30.4700606,42.4695138 C29.4160433,43.523511 28.3057879,44.5230695 27.1440678,45.4635008 L27.1440678,35.1070866 L30.4700606,35.1070866 L30.4700606,42.4695138 Z" id="path-9"></path>
        <path d="M0.805084746,55.0411537 C2.93934419,55.0054021 5.03547249,54.8158888 7.08248128,54.4834067 L7.08248128,42.4488189 L0.805084746,42.4488189 L0.805084746,55.0411537 Z" id="path-11"></path>
        <path d="M0.805084746,55.0558386 C3.07091556,55.0178875 5.29376915,54.8066323 7.46049714,54.4349877 L7.46049714,41.7496063 L0.805084746,41.7496063 L0.805084746,55.0558386 Z" id="path-13"></path>
        <path d="M7.23863196,48.3929622 C5.71211309,49.9105745 4.03986534,51.284923 2.244364,52.4938012 L2.244364,46.175535 L7.23863196,46.175535 L7.23863196,48.3929622 Z" id="path-15"></path>
        <path d="M7.44251327,48.2476348 C6.60340595,49.0918935 5.71951292,49.8925512 4.79463551,50.6458521 L4.79463551,46.175535 L7.44251327,46.175535 L7.44251327,48.2476348 Z" id="path-17"></path>
        <path d="M22.8257364,61.2196791 C24.5248556,61.1910481 26.1936179,61.0392802 27.8232754,60.7730187 L27.8232754,51.1353612 L22.8257364,51.1353612 L22.8257364,61.2196791 Z" id="path-19"></path>
        <path d="M22.8257364,61.2314392 C24.6296017,61.2010468 26.3992521,61.0318673 28.12422,60.7342432 L28.12422,50.5754109 L22.8257364,50.5754109 L22.8257364,61.2314392 Z" id="path-21"></path>
        <path d="M145.41626,18.4344183 L145.41626,31.9792339 C145.41626,34.4726088 147.412579,36.4941725 149.874817,36.4941725 L163.25049,36.4941725 C165.712729,36.4941725 167.709048,34.4726088 167.709048,31.9792339 L167.709048,18.4344183 C167.709048,15.9410434 165.712729,13.9194797 163.25049,13.9194797 L149.874817,13.9194797 C147.412579,13.9194797 145.41626,15.9410434 145.41626,18.4344183 Z" id="path-23"></path>
    </defs>
    <g id="Finals" stroke="none" stroke-width="1" fill="none" fill-rule="evenodd">
        <g id="Skool-Tales--Landing" transform="translate(0.000000, -109.000000)">
            <g id="Hero" transform="translate(6.000000, 41.000000)">
                <g id="illustration" transform="translate(0.000000, 153.000000)">
                    <g id="background-clouds" transform="translate(131.000000, 0.000000)">
                        <path d="M149.197397,369.7372 C151.214413,363.9388 146.495175,358.0372 140.394667,358.642 C138.41746,353.0284 133.062476,349 126.746032,349 C118.751556,349 112.269841,355.4452 112.269841,363.4 C104.938857,363.4 99,369.3436 99,376.6348 C99,383.926 104.938857,389.8696 112.269841,389.8696 L143.634921,389.8696 C149.630476,389.8696 154.492063,385 154.492063,379.0348 C154.492063,375.0952 152.364063,371.6236 149.197397,369.7372 Z" id="Stroke-1" fill="#EFDADD"></path>
                        <path d="M1098.1974,378.7372 C1100.21441,372.9388 1095.49517,367.0372 1089.39467,367.642 C1087.41746,362.0284 1082.06248,358 1075.74603,358 C1067.75156,358 1061.26984,364.4452 1061.26984,372.4 C1053.93886,372.4 1048,378.3436 1048,385.6348 C1048,392.926 1053.93886,398.8696 1061.26984,398.8696 L1092.63492,398.8696 C1098.63048,398.8696 1103.49206,394 1103.49206,388.0348 C1103.49206,384.0952 1101.36406,380.6236 1098.1974,378.7372 Z" id="Stroke-1" fill="#EFDADD"></path>
                        <path d="M70.5577826,133.921751 C73.392913,125.834841 66.7595217,117.603999 58.1846087,118.447501 C55.4054348,110.618328 47.8784348,105 39,105 C27.762913,105 18.6521739,113.988989 18.6521739,125.083387 C8.34769565,125.083387 0,133.372805 0,143.541694 C0,153.710582 8.34769565,162 18.6521739,162 L62.7391304,162 C71.1665217,162 78,155.208468 78,146.888925 C78,141.394445 75.0088696,136.552675 70.5577826,133.921751 Z" id="Stroke-1" fill="#EFDADD"></path>
                        <path d="M95.5577826,133.921751 C98.392913,125.834841 91.7595217,117.603999 83.1846087,118.447501 C80.4054348,110.618328 72.8784348,105 64,105 C52.762913,105 43.6521739,113.988989 43.6521739,125.083387 C33.3476957,125.083387 25,133.372805 25,143.541694 C25,153.710582 33.3476957,162 43.6521739,162 L87.7391304,162 C96.1665217,162 103,155.208468 103,146.888925 C103,141.394445 100.00887,136.552675 95.5577826,133.921751 Z" id="Stroke-1-Copy" fill="#EFDADD"></path>
                        <path d="M1095.55778,121.921751 C1098.39291,113.834841 1091.75952,105.603999 1083.18461,106.447501 C1080.40543,98.6183276 1072.87843,93 1064,93 C1052.76291,93 1043.65217,101.988989 1043.65217,113.083387 C1033.3477,113.083387 1025,121.372805 1025,131.541694 C1025,141.710582 1033.3477,150 1043.65217,150 L1087.73913,150 C1096.16652,150 1103,143.208468 1103,134.888925 C1103,129.394445 1100.00887,124.552675 1095.55778,121.921751 Z" id="Stroke-1" fill="#EFDADD"></path>
                        <path d="M1120.55778,121.921751 C1123.39291,113.834841 1116.75952,105.603999 1108.18461,106.447501 C1105.40543,98.6183276 1097.87843,93 1089,93 C1077.76291,93 1068.65217,101.988989 1068.65217,113.083387 C1058.3477,113.083387 1050,121.372805 1050,131.541694 C1050,141.710582 1058.3477,150 1068.65217,150 L1112.73913,150 C1121.16652,150 1128,143.208468 1128,134.888925 C1128,129.394445 1125.00887,124.552675 1120.55778,121.921751 Z" id="Stroke-1-Copy" fill="#EFDADD"></path>
                        <polygon id="Fill-17" fill="#FBEFF0" points="98.9251646 17 106.302219 28.2606125 118 34.9240187 106.73985 42.3017837 100.074835 54 92.6942331 42.7393875 81 36.0747986 92.2625152 28.6970336"></polygon>
                        <polygon id="Fill-17-Copy" fill="#FBEFF0" points="1048.92516 0 1056.30222 11.2606125 1068 17.9240187 1056.73985 25.3017837 1050.07484 37 1042.69423 25.7393875 1031 19.0747986 1042.26252 11.6970336"></polygon>
                        <polygon id="Fill-18" fill="#FBEFF0" points="1093.00268 250 1097.55462 257.448399 1105 262.001787 1097.55462 266.555175 1093.00268 274 1088.44895 266.555175 1081 262.001787 1088.44895 257.448399"></polygon>
                        <polygon id="Fill-19" fill="#FBEFF0" points="22.9498286 301.187067 16 307.946812 25.1857813 311.052838 31.9482192 318 35.0501714 308.814753 42 302.055007 32.8160381 298.948982 26.0517808 292"></polygon>
                    </g>
                    <g id="land" transform="translate(0.000000, 603.000000)" fill="#F7E3E5" opacity="0.581082589">
                        <path d="M1431,254 C1217.43983,84.6666667 978.939826,0 715.5,0 C452.060174,0 213.560174,84.6666667 0,254 L1431,254 Z" id="Oval"></path>
                    </g>
                    <g id="school" transform="translate(361.000000, 431.000000)">
                        <path d="M357,57 L357,63" id="Stroke-7" stroke="#E71D36" stroke-width="2" stroke-linecap="round" stroke-linejoin="round"></path>
                        <polygon id="Fill-3" fill="#EFDADD" points="15 290 707 290 707 276 15 276"></polygon>
                        <rect id="Rectangle-4-Copy-8" fill="#E9D0D4" x="4" y="276" width="488" height="15" rx="7.5"></rect>
                        <rect id="Rectangle-4-Copy-9" fill="#E9D0D4" x="228" y="276" width="488" height="15" rx="7.5"></rect>
                        <polygon id="Fill-4" fill="#EFDADD" points="197 290 526 290 526 276 197 276"></polygon>
                        <polygon id="Fill-5" fill="#F1DCE0" points="15 276 707 276 707 131 15 131"></polygon>
                        <polygon id="Fill-5-Copy" fill="#F6E0E2" points="510 272 520 272 520 131 510 131"></polygon>
                        <polygon id="Fill-8" fill="#F295A0" opacity="0.418191964" points="15 155 707 155 707 149 15 149"></polygon>
                        <path d="M20.1003651,92.6194733 L0.978564595,144.619473 C0.216120732,146.69287 1.2788581,148.991773 3.35225495,149.754217 C3.79436844,149.916794 4.26172369,150 4.73278168,150 L717.267218,150 C719.476357,150 721.267218,148.209139 721.267218,146 C721.267218,145.528942 721.184012,145.061587 721.021435,144.619473 L701.899635,92.6194733 C701.320939,91.0457637 699.822156,90 698.145418,90 L23.8545822,90 C22.1778442,90 20.6790605,91.0457637 20.1003651,92.6194733 Z" id="Fill-9" fill="#F0818E"></path>
                        <polygon id="Fill-10" fill="#F9E5E7" points="197 277 526 277 526 101 197 101"></polygon>
                        <path d="M211.539444,45 L511.460556,45 C513.213659,45 514.762474,46.1415553 515.281343,47.8161138 L533,105 L190,105 L207.718657,47.8161138 C208.237526,46.1415553 209.786341,45 211.539444,45 Z" id="Fill-11" fill="#F0818E"></path>
                        <polygon id="Fill-12" fill="#E6E6E6" points="197 112 526 112 526 107 197 107"></polygon>
                        <path d="M368.740193,1.57809951 L484,110 L470.800857,110 L365.9995,10.7772756 L261.199143,110 L248,110 L363.258816,1.57811111 C364.798802,0.129474168 367.200201,0.129469085 368.740193,1.57809951 Z" id="Fill-16" fill="#F0818E"></path>
                        <polygon id="Fill-17" fill="#F295A0" points="365.319312 9.55664062 264.91792 106 465.720703 106"></polygon>
                        <path d="M365.500504,42 L365.502518,42 L365.505539,42 L365.508561,42 C365.535753,42 365.562946,42.0010071 365.590139,42.0010071 L365.592153,42.0010071 L365.598196,42.0010071 L365.60021,42.0010071 L365.603232,42.0010071 L365.605246,42.0010071 L365.608267,42.0010071 L365.610282,42.0010071 L365.613303,42.0010071 L365.616325,42.0010071 L365.618339,42.0010071 L365.62136,42.0010071 L365.624382,42.0020143 L365.626396,42.0020143 L365.629417,42.0020143 L365.631432,42.0020143 L365.634453,42.0020143 L365.637475,42.0020143 L365.64251,42.0020143 L365.645532,42.0020143 L365.647546,42.0020143 L365.650567,42.0020143 L365.653589,42.0020143 L365.655603,42.0020143 L365.658624,42.0020143 L365.660639,42.0020143 L365.66366,42.0020143 L365.665674,42.0020143 L365.668696,42.0020143 C378.017233,42.0926568 388,52.128802 388,64.4994964 C388,76.8701909 378.017233,86.9073432 365.668696,86.9979857 L365.665674,86.9979857 L365.66366,86.9979857 L365.660639,86.9979857 L365.658624,86.9979857 L365.655603,86.9979857 L365.653589,86.9979857 L365.650567,86.9979857 L365.647546,86.9979857 L365.645532,86.9979857 L365.64251,86.9979857 L365.637475,86.9979857 L365.634453,86.9979857 L365.631432,86.9979857 L365.629417,86.9989929 L365.626396,86.9989929 L365.624382,86.9989929 L365.62136,86.9989929 L365.618339,86.9989929 L365.616325,86.9989929 L365.613303,86.9989929 L365.610282,86.9989929 L365.608267,86.9989929 L365.605246,86.9989929 L365.603232,86.9989929 L365.60021,86.9989929 L365.598196,86.9989929 L365.592153,86.9989929 L365.590139,86.9989929 L365.508561,87 L365.505539,87 L365.502518,87 L365.500504,87 C353.073409,87 343,76.9265907 343,64.4994964 C343,52.0734093 353.073409,42 365.500504,42" id="Fill-18" fill="#F9E5E7"></path>
                        <path d="M373,73 L366,66" id="Stroke-3" stroke="#E71D36" stroke-width="2" stroke-linecap="round" stroke-linejoin="round"></path>
                        <path d="M367,65 C367,66.104 366.102,67 365,67 C363.894,67 363,66.104 363,65 C363,63.896 363.894,63 365,63 C366.102,63 367,63.896 367,65 Z" id="Stroke-5" stroke="#E71D36" stroke-width="2" fill="#E71D36" stroke-linecap="round" stroke-linejoin="round"></path>
                        <path d="M364,57 L364,63" id="Stroke-7" stroke="#E71D36" stroke-width="2" stroke-linecap="round" stroke-linejoin="round"></path>
                        <polygon id="Fill-28" fill="#F6E0E2" points="282 297 440 297 440 292 282 292"></polygon>
                        <polygon id="Fill-30" fill="#F1DCE0" points="287 293 436 293 436 288 287 288"></polygon>
                        <polygon id="Fill-31" fill="#F6E0E2" points="292 288 431 288 431 283 292 283"></polygon>
                        <polygon id="Fill-32" fill="#F1DCE0" points="298 284 424 284 424 279 298 279"></polygon>
                        <polygon id="Fill-33" fill="#F6E0E2" points="304 279 418 279 418 274 304 274"></polygon>
                        <path d="M389,216 L389,267 L334,267 L334,203 L388.999008,203 L388.999008,216 Z" id="Combined-Shape" fill="#F6CED3"></path>
                        <polygon id="Fill-36" fill="#F0818E" points="304 189 304 197.091 304 205 418 205 418 197.091 418 189"></polygon>
                        <polygon id="Fill-39" fill="#F1DCE0" points="326.617 205 320.936 205 315 205 315 266.589733 320.936 266.589733 326.617 266.589733 327 267 327 205.083444"></polygon>
                        <polygon id="Fill-40" fill="#F1DCE0" points="402.732 205 397 205 397 267 402.732 267 408 267 408 205"></polygon>
                        <path d="M286.796917,85.2078205 L329.578684,44.7111994 L333.99402,40.5315984 L360.609267,15.3382251 L365.499499,10.7095266 L397.00598,40.5315984 L401.420314,44.7111994 L444.202081,85.2078205 L448.618419,89.3874215 L460.14518,100.298495 L464.350118,104.278497 L470.39453,110 L477,110 L470.923528,104.278497 L466.695546,100.298495 L455.10767,89.3874215 L450.668289,85.2078205 L407.657088,44.7111994 L403.217707,40.5315984 L368.221935,7.58211508 C366.681393,6.13165232 364.277724,6.13185938 362.737432,7.58258752 L327.75424,40.5315984 L323.317865,44.7111994 L280.321693,85.2078205 L275.884315,89.3874215 L264.300446,100.298495 L260.074468,104.278497 L254,110 L260.60547,110 L266.649882,104.278497 L270.85482,100.298495 L282.381581,89.3874215 L286.796917,85.2078205 Z" id="Fill-85" fill="#F295A0"></path>
                        <polygon id="Fill-86" fill="#EFDADD" points="203 290 282 290 282 283 203 283"></polygon>
                        <polyline id="Fill-90" fill="#F295A0" points="526 111 526 105 197 105 197 111"></polyline>
                        <path d="M362,201 L362,266" id="Path-2" stroke="#F0818E" stroke-width="4"></path>
                        <polygon id="Stroke-50" fill="#F295A0" points="74 172 43 172 43 212 73.4458849 212"></polygon>
                        <polygon id="Stroke-50-Copy-2" fill="#F295A0" points="167 172 136 172 136 212 166.445885 212"></polygon>
                        <polygon id="Stroke-50-Copy" fill="#F295A0" points="74 223 43 223 43 263 73.4458849 263"></polygon>
                        <polygon id="Stroke-50-Copy-5" fill="#F295A0" points="121 223 90 223 90 263 120.445885 263"></polygon>
                        <polygon id="Stroke-50-Copy-3" fill="#F295A0" points="167 223 136 223 136 263 166.445885 263"></polygon>
                        <polygon id="Stroke-50-Copy-4" fill="#F295A0" points="121 172 90 172 90 212 120.445885 212"></polygon>
                        <polygon id="Stroke-50-Copy-12" fill="#F295A0" points="259 212 228 212 228 252 258.445885 252"></polygon>
                        <polygon id="Stroke-50-Copy-14" fill="#F295A0" points="306 212 275 212 275 252 305.445885 252"></polygon>
                        <polygon id="Stroke-50-Copy-13" fill="#F295A0" points="494 212 463 212 463 252 493.445885 252"></polygon>
                        <polygon id="Stroke-50-Copy-6" fill="#F295A0" points="258.546 130 228 130 228 170.001 258 170.001"></polygon>
                        <polygon id="Stroke-50-Copy-7" fill="#F295A0" points="305.546 130 275 130 275 170.001 305 170.001"></polygon>
                        <polygon id="Stroke-50-Copy-8" fill="#F295A0" points="352.546 130 322 130 322 170.001 352 170.001"></polygon>
                        <polygon id="Stroke-50-Copy-9" fill="#F295A0" points="399.546 130 369 130 369 170.001 399 170.001"></polygon>
                        <polygon id="Stroke-50-Copy-10" fill="#F295A0" points="446.546 130 416 130 416 170.001 446 170.001"></polygon>
                        <polygon id="Stroke-50-Copy-15" fill="#F295A0" points="446.546 212 416 212 416 252.001 446 252.001"></polygon>
                        <polygon id="Stroke-50-Copy-11" fill="#F295A0" points="493.546 130 463 130 463 170.001 493 170.001"></polygon>
                        <polygon id="Stroke-50" fill="#F295A0" points="587 170 556 170 556 210 586.445885 210"></polygon>
                        <polygon id="Stroke-50-Copy-2" fill="#F295A0" points="680 170 649 170 649 210 679.445885 210"></polygon>
                        <polygon id="Stroke-50-Copy" fill="#F295A0" points="587 221 556 221 556 261 586.445885 261"></polygon>
                        <polygon id="Stroke-50-Copy-5" fill="#F295A0" points="634 221 603 221 603 261 633.445885 261"></polygon>
                        <polygon id="Stroke-50-Copy-3" fill="#F295A0" points="680 221 649 221 649 261 679.445885 261"></polygon>
                        <polygon id="Stroke-50-Copy-4" fill="#F295A0" points="634 170 603 170 603 210 633.445885 210"></polygon>
                    </g>
                    <g id="tree" transform="translate(199.000000, 713.000000)">
                        <g id="road">
                            <polygon id="Rectangle-Copy" fill="#FEFBFB" transform="translate(806.500000, 98.500000) scale(-1, 1) translate(-806.500000, -98.500000) " points="630 89 1031 89 1021 108 582 108"></polygon>
                            <g id="bus-1" transform="translate(877.500000, 51.500000) scale(-1, 1) translate(-877.500000, -51.500000) translate(732.000000, 0.000000)">
                                <g id="Group-5">
                                    <g id="Group-49">
                                        <path d="M285.737404,46.8532832 C285.878945,46.8532832 279.642048,37.5857777 272.149391,37.5857777 L231.385354,37.5857777 C229.801218,37.6529671 228.425432,37.6529671 226.856016,37.6529671 L231.509344,14.417014 L231.509344,5.14950858 C231.509344,2.59051863 229.481334,0.515755849 226.980007,0.515755849 L14.1011457,0.515755849 C6.59659964,0.515755849 0.513133243,6.73946499 0.513133243,14.417014 L0.513133243,70.0220468 C0.513133243,77.6995959 6.59659964,83.923305 14.1011457,83.923305 L249.390037,83.923305 L267.743478,83.923305 L281.2075,74.6557996 L281.2075,83.8978194 C283.835082,83.923305 285.860828,81.8485422 285.860828,79.2895523 L285.737404,46.8532832 Z" id="Shape" fill="#F9E5E7" fill-rule="nonzero"></path>
                                        <path d="M80.6278425,61.8907019 C68.3160926,61.8907019 58.3350538,71.9979562 58.3350538,84.4653947 L102.920631,84.4653947 C102.920631,71.9979562 92.9395923,61.8907019 80.6278425,61.8907019 Z" id="Shape" fill="#EFDADD" fill-rule="nonzero"></path>
                                        <path d="M65.3015503,18.4344183 L65.3015503,31.9792339 C65.3015503,34.4726088 67.2978695,36.4941725 69.760108,36.4941725 L83.1357812,36.4941725 C85.5980197,36.4941725 87.5943389,34.4726088 87.5943389,31.9792339 L87.5943389,18.4344183 C87.5943389,15.9410434 85.5980197,13.9194797 83.1357812,13.9194797 L69.760108,13.9194797 C67.2978695,13.9194797 65.3015503,15.9410434 65.3015503,18.4344183 Z" id="Shape" fill="#F295A0" fill-rule="nonzero"></path>
                                        <path d="M91.7742368,18.4344183 L91.7742368,31.9792339 C91.7742368,34.4726088 93.770556,36.4941725 96.2327945,36.4941725 L109.608468,36.4941725 C112.070706,36.4941725 114.067025,34.4726088 114.067025,31.9792339 L114.067025,18.4344183 C114.067025,15.9410434 112.070706,13.9194797 109.608468,13.9194797 L96.2327945,13.9194797 C93.770556,13.9194797 91.7742368,15.9410434 91.7742368,18.4344183 Z" id="Shape" fill="#F295A0" fill-rule="nonzero"></path>
                                        <path d="M38.1322141,18.4344183 L38.1322141,31.9792339 C38.1322141,34.4726088 40.1285333,36.4941725 42.5907718,36.4941725 L55.966445,36.4941725 C58.4286835,36.4941725 60.4250028,34.4726088 60.4250028,31.9792339 L60.4250028,18.4344183 C60.4250028,15.9410434 58.4286835,13.9194797 55.966445,13.9194797 L42.5907718,13.9194797 C40.1285333,13.9194797 38.1322141,15.9410434 38.1322141,18.4344183 Z" id="Shape" fill="#F295A0" fill-rule="nonzero"></path>
                                        <path d="M9.56957863,18.4344183 L9.56957863,31.9792339 C9.56957863,34.4726088 11.5658979,36.4941725 14.0281364,36.4941725 L27.4038096,36.4941725 C29.8660481,36.4941725 31.8623673,34.4726088 31.8623673,31.9792339 L31.8623673,18.4344183 C31.8623673,15.9410434 29.8660481,13.9194797 27.4038096,13.9194797 L14.0281364,13.9194797 C11.5658979,13.9194797 9.56957863,15.9410434 9.56957863,18.4344183 Z" id="Shape" fill="#F295A0" fill-rule="nonzero"></path>
                                        <path d="M118.943573,18.4344183 L118.943573,31.9792339 C118.943573,34.4726088 120.939892,36.4941725 123.402131,36.4941725 L136.777804,36.4941725 C139.240042,36.4941725 141.236362,34.4726088 141.236362,31.9792339 L141.236362,18.4344183 C141.236362,15.9410434 139.240042,13.9194797 136.777804,13.9194797 L123.402131,13.9194797 C120.939892,13.9194797 118.943573,15.9410434 118.943573,18.4344183 Z" id="Shape" fill="#F295A0" fill-rule="nonzero"></path>
                                        <path d="M231.929253,13.9194797 L231.803088,13.9194797 L176.497726,13.9194797 C173.952527,13.9194797 171.888946,15.9410434 171.888946,18.4344183 L171.888946,31.9792339 C171.888946,34.4726088 173.952527,36.4941725 176.497726,36.4941725 L236.538033,36.4941725 C236.538033,36.258267 231.929253,13.9194797 231.929253,13.9194797 Z" id="Shape" fill="#F295A0" fill-rule="nonzero"></path>
                                        <mask id="mask-2" fill="white">
                                            <use xlink:href="#path-1"></use>
                                        </mask>
                                        <use id="Mask" fill="#F295A0" fill-rule="nonzero" xlink:href="#path-1"></use>
                                        <path d="" id="Fill-58" fill="#E71D36"></path>
                                        <path d="M285.961949,52.7197329 L281.513082,52.7197329 C279.064378,52.7197329 277.083043,54.7412967 277.083043,57.2346715 C277.083043,59.7280463 279.064378,61.7496101 281.513082,61.7496101 L286.000158,61.7496101 L285.961949,52.7197329 Z" id="Shape" fill="#F295A0" fill-rule="nonzero"></path>
                                        <path d="M270.522275,36.4941725 L234.587414,36.4941725 C234.587414,41.4814865 238.579495,45.5240496 243.50453,45.5240496 L283.631549,45.5240496 C282.402102,39.3318114 276.994986,36.4941725 270.522275,36.4941725 Z" id="Shape" fill="#EFDADD" fill-rule="nonzero"></path>
                                        <path d="M0.513133243,45.5240496 L247.909192,45.5240496 C251.636032,45.5240496 254.650924,43.5024859 254.650924,41.0091111 C254.650924,38.5157362 251.635318,36.4941725 247.909192,36.4941725 L0.513133243,36.4941725 L0.513133243,45.5240496 Z" id="Shape" fill="#EFDADD" fill-rule="nonzero"></path>
                                        <ellipse id="Oval" fill="#F0818E" fill-rule="nonzero" cx="84.2504206" cy="84.183211" rx="18.9488704" ry="18.0597542"></ellipse>
                                        <path d="M277.083043,78.9774869 C274.610946,69.176684 265.774987,61.8907019 255.166849,61.8907019 C242.647115,61.8907019 232.497465,71.9979562 232.497465,84.4653947 C232.497465,86.0117611 232.656718,87.5214437 232.954253,88.9803332 L250.508857,88.9803332 L250.520192,84.4653947 L268.892027,84.4653947 L277.083043,78.9774869 Z" id="Shape" fill="#EFDADD" fill-rule="nonzero"></path>
                                        <path d="M285.738866,70.3562117 L263.411341,70.3562117 C260.956474,70.3562117 258.970152,72.2248899 258.970152,74.5296973 C258.970152,76.8345047 260.956474,78.7031829 263.411341,78.7031829 L272.415298,78.7031829 C269.96043,78.7031829 267.974108,80.5718611 267.974108,82.8766685 C267.974108,85.1814759 269.96043,82.8766685 272.415298,82.8766685 L281.297677,82.8766685 C286.194088,82.8766685 290.180056,79.1330519 290.180056,74.5296973 C290.180056,72.2248899 288.193179,70.3562117 285.738866,70.3562117 Z" id="Shape" fill="#EFDADD" fill-rule="nonzero"></path>
                                        <ellipse id="Oval" fill="#F0818E" fill-rule="nonzero" cx="253.536284" cy="84.183211" rx="18.9488704" ry="18.0597542"></ellipse>
                                    </g>
                                </g>
                            </g>
                            <polygon id="Fill-1" fill-opacity="0.787250906" fill="#FFFFFF" points="560.159472 16.5878382 559.377114 15 472.623256 15 428 144 604 144"></polygon>
                            <polygon id="Rectangle" fill="#FEFBFB" points="48 89 449 89 439 108 0 108"></polygon>
                        </g>
                        <path d="M416,71 C415.2,71 414.666562,70.4694625 414.666562,69.6738117 L414.666562,55.0869835 C408.8,54.2913327 404,49.2520036 404,43.1522212 C404,33.8695247 406.133438,10 416,10 C425.866562,10 428,33.8695247 428,43.1522212 C428,49.2523144 423.2,54.2913327 417.333438,55.0869835 L417.333438,69.6738117 C417.333438,70.4694625 416.8,71 416,71 Z" id="Path" fill="#F295A0"></path>
                        <path d="M381,123 C380.2,123 379.666562,122.469463 379.666562,121.673812 L379.666562,107.086984 C373.8,106.291333 369,101.252004 369,95.1522212 C369,85.8695247 371.133438,62 381,62 C390.866562,62 393,85.8695247 393,95.1522212 C393,101.252314 388.2,106.291333 382.333438,107.086984 L382.333438,121.673812 C382.333438,122.469463 381.8,123 381,123 Z" id="Path-Copy-2" fill="#F295A0"></path>
                        <path d="M663,123 C662.2,123 661.666563,122.469463 661.666563,121.673812 L661.666563,107.086984 C655.8,106.291333 651,101.252004 651,95.1522212 C651,85.8695247 653.133438,62 663,62 C672.866562,62 675,85.8695247 675,95.1522212 C675,101.252314 670.2,106.291333 664.333437,107.086984 L664.333437,121.673812 C664.333437,122.469463 663.8,123 663,123 Z" id="Path-Copy-3" fill="#F295A0"></path>
                    </g>
                    <g id="parents" transform="translate(687.000000, 732.000000)">
                        <g id="man" transform="translate(39.000000, 3.000000)">
                            <mask id="mask-4" fill="white">
                                <use xlink:href="#path-3"></use>
                            </mask>
                            <g id="Clip-7"></g>
                            <mask id="mask-6" fill="white">
                                <use xlink:href="#path-5"></use>
                            </mask>
                            <g id="Clip-10"></g>
                            <mask id="mask-8" fill="white">
                                <use xlink:href="#path-7"></use>
                            </mask>
                            <g id="Clip-13"></g>
                            <path d="M27.2524336,35.1072597 C25.6058913,35.0897794 24.2440947,36.3987054 24.2270099,38.0159841 L23.9408404,64.2476439 C23.9237557,65.8649227 25.2563659,67.2025164 26.9029082,67.2199967 C28.5494506,67.2367778 29.9112472,65.9278518 29.928332,64.3105731 L30.2137896,38.0789132 C30.2315862,36.4616345 28.898976,35.12474 27.2524336,35.1072597" id="Fill-12" fill="#F2987E"></path>
                            <mask id="mask-10" fill="white">
                                <use xlink:href="#path-9"></use>
                            </mask>
                            <g id="Clip-16"></g>
                            <path d="M27.1568814,67.2198236 C27.1526102,67.2198236 27.148339,67.2191244 27.1440678,67.2191244 L27.4935932,35.1077858 C27.4978644,35.1077858 27.5021356,35.1070866 27.5064068,35.1070866 C29.1529492,35.1245669 30.4869831,36.3782551 30.4698983,37.8927496 L30.1808814,64.497789 C30.1637966,66.0122835 28.8034237,67.2373039 27.1568814,67.2198236" id="Fill-15" fill="#F2987E"></path>
                            <path d="M24.2425085,70.7851087 C27.6801017,70.7851087 30.4670508,68.0476913 30.4670508,64.6711937 L30.4670508,37.7256378 C30.4670508,34.3484409 27.6801017,31.6110236 24.2425085,31.6110236 L7.02962712,31.6110236 C3.5920339,31.6110236 0.805084746,34.3484409 0.805084746,37.7256378 L0.805084746,64.6711937 C0.805084746,68.0476913 3.5920339,70.7851087 7.02962712,70.7851087 L24.2425085,70.7851087 Z" id="Fill-18" fill="#F0818E"></path>
                            <path d="M15.9734915,23.2204724 C18.1582034,23.2204724 19.929322,25.9208315 19.929322,29.2518803 L19.929322,34.3610268 C18.7889153,34.973537 17.4321017,35.3301354 15.9734915,35.3301354 C14.5148814,35.3301354 13.1580678,34.973537 12.0169492,34.3610268 L12.0169492,29.2518803 C12.0169492,25.9208315 13.7887797,23.2204724 15.9734915,23.2204724" id="Fill-30" fill="#EFDADD"></path>
                            <mask id="mask-12" fill="white">
                                <use xlink:href="#path-11"></use>
                            </mask>
                            <g id="Clip-35"></g>
                            <mask id="mask-14" fill="white">
                                <use xlink:href="#path-13"></use>
                            </mask>
                            <g id="Clip-38"></g>
                            <path d="M1.33898305,15.2149543 C1.33898305,23.1831811 7.91447458,29.6425071 16.0275932,29.6425071 C24.1392881,29.6425071 30.7162034,23.1831811 30.7162034,15.2149543 C30.7162034,7.24672756 24.1392881,0.787401575 16.0275932,0.787401575 C7.91447458,0.787401575 1.33898305,7.24672756 1.33898305,15.2149543" id="Fill-40" fill="#EFDADD"></path>
                            <path d="M30.5960904,41.4 L30.3448022,63.5881134 C30.3262938,65.2522394 28.8698192,66.599622 27.1086666,66.5821417 C25.3475141,66.5639622 23.9216497,65.1879118 23.94087,63.5230866 L24.1907344,41.4 L30.5960904,41.4 Z" id="Fill-56-Copy" fill="#EFDADD"></path>
                            <path d="M3.67646324,66.931748 C1.9153107,66.9135685 0.489446295,65.5375181 0.508666634,63.8726929 L0.758531041,41.7496063 C3.87792087,58.5493543 4.85056494,66.9434016 3.67646324,66.931748 Z" id="Fill-37" fill="#F9E5E7"></path>
                            <path d="M14.0932203,22.9291339 C15.6751412,24.6098312 17.1581921,24.6098312 18.5423729,22.9291339" id="Path-3-Copy-2" stroke="#F0818E" stroke-width="1.176" stroke-linecap="round"></path>
                            <mask id="mask-16" fill="white">
                                <use xlink:href="#path-15"></use>
                            </mask>
                            <g id="Clip-7"></g>
                            <mask id="mask-18" fill="white">
                                <use xlink:href="#path-17"></use>
                            </mask>
                            <g id="Clip-10"></g>
                            <path d="M5.92055435,98.25 C5.68830321,98.25 5.5,98.110779 5.5,97.9390654 L5.5,71 L27,71 L27,97.9390654 C27,98.110779 26.8116968,98.25 26.5794457,98.25 L5.92055435,98.25 Z" id="Fill-1" fill="#F295A0"></path>
                            <path d="M5.92055435,90 L26.5794457,90 C26.8116968,90 27,89.8101781 27,89.5760537 L27,71 L5.5,71 L5.5,89.5760537 C5.5,89.8101781 5.68830321,90 5.92055435,90" id="Fill-11" fill="#F295A0"></path>
                            <polygon id="Fill-14" fill="#F295A0" points="5.5 114 27 114 27 95 5.5 95"></polygon>
                            <path d="M14.5,115 L17.5,115 L17.5,83 C17.5,82.1715729 16.8284271,81.5 16,81.5 L16,81.5 C15.1715729,81.5 14.5,82.1715729 14.5,83 L14.5,115 Z" id="Fill-15" fill="#FFFFFF"></path>
                            <path d="M26.7639469,114.5 L17.7360531,114.5 C16.6881341,114.5 16.1173655,113.286257 16.7910277,112.490179 L18.134038,110.903158 C20.2814308,108.365614 24.2185692,108.365614 26.365962,110.903158 L27.7089723,112.490179 C28.3826345,113.286257 27.8118659,114.5 26.7639469,114.5" id="Fill-20" fill="#EAC7CD"></path>
                            <path d="M14.2639469,114.5 L5.23605313,114.5 C4.18813409,114.5 3.6173655,113.286257 4.29102774,112.490179 L5.63403803,110.903158 C7.7814308,108.365614 11.7185692,108.365614 13.865962,110.903158 L15.2089723,112.490179 C15.8826345,113.286257 15.3118659,114.5 14.2639469,114.5" id="Fill-21" fill="#EAC7CD"></path>
                            <polygon id="Fill-22" fill="#F0818E" points="5.5 71 27 71 27 69 5.5 69"></polygon>
                        </g>
                        <g id="woman">
                            <polygon id="Fill-44" fill="#F0818E" points="1.1560678 32.0407181 29.8911864 32.0407181 29.8911864 13.1361071 1.1560678 13.1361071"></polygon>
                            <path d="M26.7498,37.9171106 C25.1032576,37.8996302 23.741461,39.2085562 23.7243763,40.825835 L23.4382068,67.0574948 C23.421122,68.6747735 24.7537322,70.0123672 26.4002746,70.0298476 C28.0468169,70.0466287 29.4086136,68.7377027 29.4256983,67.1204239 L29.7111559,40.8887641 C29.7289525,39.2714854 28.3963424,37.9345909 26.7498,37.9171106" id="Fill-48" fill="#F2987E"></path>
                            <path d="M23.6127797,70.0313858 C23.6085085,70.0313858 23.6042373,70.0306866 23.5999661,70.0306866 L23.9494915,37.919348 C23.9537627,37.919348 23.9580339,37.9186488 23.9623051,37.9186488 C25.6088475,37.9361291 26.9428814,39.1898173 26.9257966,40.7043118 L26.6367797,67.3093512 C26.6196949,68.8238457 25.259322,70.0488661 23.6127797,70.0313858" id="Fill-49" fill="#F2987E"></path>
                            <path d="M23.7090712,73.4019402 C27.1466644,73.4019402 29.9336136,70.6645228 29.9336136,67.2880252 L29.9336136,40.3424693 C29.9336136,36.9652724 27.1466644,34.2278551 23.7090712,34.2278551 L6.49618983,34.2278551 C3.05859661,34.2278551 0.271647458,36.9652724 0.271647458,40.3424693 L0.271647458,67.2880252 C0.271647458,70.6645228 3.05859661,73.4019402 6.49618983,73.4019402 L23.7090712,73.4019402 Z" id="Fill-50" fill="#F0818E"></path>
                            <path d="M9.94723729,70.8522614 L21.5741186,70.8522614 L21.5741186,39.7079339 C21.5741186,37.218737 18.9579356,35.1819307 15.760678,35.1819307 C12.5634203,35.1819307 9.94723729,37.218737 9.94723729,39.7079339 L9.94723729,70.8522614 Z" id="Fill-53" fill="#F0818E"></path>
                            <path d="M15.7944915,25.8129014 C17.9792034,25.8129014 19.750322,28.5132605 19.750322,31.8443093 L19.750322,36.9534557 C18.6099153,37.565966 17.2531017,37.9232636 15.7944915,37.9232636 C14.3358814,37.9232636 12.9790678,37.565966 11.8379492,36.9534557 L11.8379492,31.8443093 C11.8379492,28.5132605 13.6097797,25.8129014 15.7944915,25.8129014" id="Fill-54" fill="#EFDADD"></path>
                            <path d="M6.6554124,44 L6.40412426,66.1881134 C6.38561579,67.8522394 4.92914121,69.199622 3.16798867,69.1821417 C1.40683613,69.1639622 -0.0190282813,67.7879118 0.000192057644,66.1230866 L0.250056464,44 L6.6554124,44 Z" id="Fill-56" fill="#EFDADD"></path>
                            <path d="M1.94908475,17.2180403 C1.94908475,24.7240876 8.14372881,30.8079364 15.7855932,30.8079364 C23.4267458,30.8079364 29.6213898,24.7240876 29.6213898,17.2180403 C29.6213898,9.71269228 23.4267458,3.62814425 15.7855932,3.62814425 C8.14372881,3.62814425 1.94908475,9.71269228 1.94908475,17.2180403" id="Fill-57" fill="#EFDADD"></path>
                            <path d="M12.4405424,10.2210898 C12.4405424,10.2210898 11.4930508,12.4690583 7.36566102,14.652 C5.71698305,15.5239181 0.355932203,14.652 0.355932203,14.652 C0.355932203,6.5600126 7.03464407,0 15.2737627,0 C23.5121695,0 30.1901695,6.5600126 30.1901695,14.652 C30.1901695,14.652 25.0099322,14.9428724 19.5819661,13.4199874 C16.4981695,12.5550614 12.4405424,10.2210898 12.4405424,10.2210898" id="Fill-58" fill="#F0818E"></path>
                            <path d="M13.940678,25.9291339 C15.5225989,27.6098312 17.0056497,27.6098312 18.3898305,25.9291339" id="Path-3-Copy" stroke="#F0818E" stroke-width="1.176" stroke-linecap="round"></path>
                            <mask id="mask-20" fill="white">
                                <use xlink:href="#path-19"></use>
                            </mask>
                            <g id="Clip-35"></g>
                            <mask id="mask-22" fill="white">
                                <use xlink:href="#path-21"></use>
                            </mask>
                            <g id="Clip-38"></g>
                            <path d="M4.92055435,93 L25.5794457,93 C25.8116968,93 26,92.8101781 26,92.5760537 L26,74 L4.5,74 L4.5,92.5760537 C4.5,92.8101781 4.68830321,93 4.92055435,93" id="Fill-11" fill="#F295A0"></path>
                            <polygon id="Fill-14" fill="#F295A0" points="4.5 117 26 117 26 91.8176901 4.5 91.8176901"></polygon>
                            <path d="M13.5,118 L16.5,118 L16.5,86 C16.5,85.1715729 15.8284271,84.5 15,84.5 L15,84.5 C14.1715729,84.5 13.5,85.1715729 13.5,86 L13.5,118 Z" id="Fill-15" fill="#FFFFFF"></path>
                            <path d="M25.7639469,117.5 L16.7360531,117.5 C15.6881341,117.5 15.1173655,116.286257 15.7910277,115.490179 L17.134038,113.903158 C19.2814308,111.365614 23.2185692,111.365614 25.365962,113.903158 L26.7089723,115.490179 C27.3826345,116.286257 26.8118659,117.5 25.7639469,117.5" id="Fill-20" fill="#EAC7CD"></path>
                            <path d="M13.2639469,117.5 L4.23605313,117.5 C3.18813409,117.5 2.6173655,116.286257 3.29102774,115.490179 L4.63403803,113.903158 C6.7814308,111.365614 10.7185692,111.365614 12.865962,113.903158 L14.2089723,115.490179 C14.8826345,116.286257 14.3118659,117.5 13.2639469,117.5" id="Fill-21" fill="#EAC7CD"></path>
                            <polygon id="Fill-22" fill="#F0818E" points="4.5 74 26 74 26 72 4.5 72"></polygon>
                        </g>
                        <path d="M30,44 L30,66.1230866 C29.9814915,67.7872126 28.9291412,69.199622 27.1679887,69.1821417 C25.4068361,69.1639622 23.9809717,67.7879118 24.0001921,66.1230866 L24.2500565,44 L30,44 Z" id="Fill-56-Copy-3" fill="#EFDADD"></path>
                    </g>
                    <g id="boy" transform="translate(699.000000, 775.000000)">
                        <g id="Group-25">
                            <path d="M15.587725,44.4344579 C17.7771048,44.4344579 19.5520937,42.6896412 19.5520937,40.5374778 L19.5520937,23.3625096 C19.5520937,21.2099005 17.7771048,19.4650838 15.587725,19.4650838 L4.62495784,19.4650838 C2.43557808,19.4650838 0.660589106,21.2099005 0.660589106,23.3625096 L0.660589106,40.5374778 C0.660589106,42.6896412 2.43557808,44.4344579 4.62495784,44.4344579 L15.587725,44.4344579 Z" id="Fill-18" fill="#E71D36"></path>
                            <path d="M10.3212443,14.1169867 C11.7126724,14.1169867 12.8406859,15.8381826 12.8406859,17.9613772 L12.8406859,21.2179226 C12.1143685,21.6083337 11.2502232,21.8356279 10.3212443,21.8356279 C9.39226539,21.8356279 8.52812006,21.6083337 7.80134935,21.2179226 L7.80134935,17.9613772 C7.80134935,15.8381826 8.92981616,14.1169867 10.3212443,14.1169867" id="Fill-30" fill="#EFDADD"></path>
                            <path d="M1.00062531,9.94183475 C1.00062531,15.0207443 5.18851117,19.1378877 10.3557013,19.1378877 C15.5219847,19.1378877 19.7107773,15.0207443 19.7107773,9.94183475 C19.7107773,4.8629252 15.5219847,0.745781777 10.3557013,0.745781777 C5.18851117,0.745781777 1.00062531,4.8629252 1.00062531,9.94183475" id="Fill-40" fill="#F9E5E7"></path>
                            <path d="M19.6342781,25.7045304 L19.4742344,39.8471276 C19.4624465,40.9078335 18.5348277,41.7666488 17.4131616,41.7555069 C16.2914956,41.7439193 15.3833722,40.8668314 15.3956135,39.8056798 L15.5547505,25.7045304 L19.6342781,25.7045304 Z" id="Fill-56-Copy" fill="#F9E5E7"></path>
                            <path d="M4.71046703,25.9273678 L4.55042332,40.0699649 C4.5386354,41.1306709 3.61101664,41.9894861 2.48935056,41.9783443 C1.36768447,41.9667567 0.459561122,41.0896688 0.471802426,40.0285172 L0.630939368,25.9273678 L4.71046703,25.9273678 Z" id="Fill-37" fill="#F9E5E7"></path>
                            <path d="M9.12371236,14.8588158 C10.131227,15.9300843 11.075772,15.9300843 11.9573474,14.8588158" id="Path-3-Copy-2" stroke="#E71D36" stroke-width="0.75264" stroke-linecap="round"></path>
                        </g>
                        <g id="Group-32" transform="translate(0.800000, 42.979592)">
                            <g id="Page-1-Copy-2">
                                <path d="M0.736443479,21.6887755 C0.550642568,21.6887755 0.4,21.577967 0.4,21.4412969 L0.4,0 L17.6,0 L17.6,21.4412969 C17.6,21.577967 17.4493574,21.6887755 17.2635565,21.6887755 L0.736443479,21.6887755 Z" id="Fill-1" fill="#F23950"></path>
                                <path d="M0.736443479,15.122449 L17.2635565,15.122449 C17.4493574,15.122449 17.6,14.9713662 17.6,14.7850224 L17.6,0 L0.4,0 L0.4,14.7850224 C0.4,14.9713662 0.550642568,15.122449 0.736443479,15.122449" id="Fill-11" fill="#F23950"></path>
                                <polygon id="Fill-14" fill="#F23950" points="0.4 34.2244898 17.6 34.2244898 17.6 19.1020408 0.4 19.1020408"></polygon>
                                <path d="M8.4,34.2244898 L10.8,34.2244898 L10.8,8.76122449 C10.8,8.09848279 10.2627417,7.56122449 9.6,7.56122449 L9.6,7.56122449 C8.9372583,7.56122449 8.4,8.09848279 8.4,8.76122449 L8.4,34.2244898 Z" id="Fill-15" fill="#FFFFFF"></path>
                                <path d="M18.2111575,34.622449 L10.9888425,34.622449 C10.1505073,34.622449 9.6938924,33.6564087 10.2328222,33.0227959 L11.3072304,31.7596565 C13.0251446,29.7399785 16.1748554,29.7399785 17.8927696,31.7596565 L18.9671778,33.0227959 C19.5061076,33.6564087 19.0494927,34.622449 18.2111575,34.622449" id="Fill-20" fill="#EFDADD"></path>
                                <path d="M8.2111575,34.622449 L0.988842504,34.622449 C0.15050727,34.622449 -0.306107598,33.6564087 0.232822195,33.0227959 L1.30723042,31.7596565 C3.02514464,29.7399785 6.17485536,29.7399785 7.89276958,31.7596565 L8.9671778,33.0227959 C9.5061076,33.6564087 9.04949273,34.622449 8.2111575,34.622449" id="Fill-21" fill="#EFDADD"></path>
                            </g>
                            <path d="M0.736443479,21.6887755 C0.550642568,21.6887755 0.4,21.577967 0.4,21.4412969 L0.4,0 L17.6,0 L17.6,21.4412969 C17.6,21.577967 17.4493574,21.6887755 17.2635565,21.6887755 L0.736443479,21.6887755 Z" id="Fill-1" fill="#E93047"></path>
                            <path d="M0.736443479,21.6887755 C0.550642568,21.6887755 0.4,21.577967 0.4,21.4412969 L0.4,0 L17.6,0 L17.6,21.4412969 C17.6,21.577967 17.4493574,21.6887755 17.2635565,21.6887755 L0.736443479,21.6887755 Z" id="Path" fill="#E93047"></path>
                            <path d="M0.736443479,15.122449 L17.2635565,15.122449 C17.4493574,15.122449 17.6,14.9713662 17.6,14.7850224 L17.6,0 L0.4,0 L0.4,14.7850224 C0.4,14.9713662 0.550642568,15.122449 0.736443479,15.122449" id="Fill-11" fill="#E93047"></path>
                            <path d="M0.736443479,15.122449 L17.2635565,15.122449 C17.4493574,15.122449 17.6,14.9713662 17.6,14.7850224 L17.6,0 L0.4,0 L0.4,14.7850224 C0.4,14.9713662 0.550642568,15.122449 0.736443479,15.122449" id="Path" fill="#E93047"></path>
                            <polygon id="Fill-14" fill="#E93047" points="0.4 34.2244898 17.6 34.2244898 17.6 19.1020408 0.4 19.1020408"></polygon>
                            <polygon id="Path" fill="#E93047" points="0.4 34.2244898 17.6 34.2244898 17.6 19.1020408 0.4 19.1020408"></polygon>
                            <path d="M8.4,34.2244898 L10.8,34.2244898 L10.8,8.76122449 C10.8,8.09848279 10.2627417,7.56122449 9.6,7.56122449 L9.6,7.56122449 C8.9372583,7.56122449 8.4,8.09848279 8.4,8.76122449 L8.4,34.2244898 Z" id="Fill-15" fill="#E93047"></path>
                            <path d="M8.4,34.2244898 L10.8,34.2244898 L10.8,8.76122449 C10.8,8.09848279 10.2627417,7.56122449 9.6,7.56122449 L9.6,7.56122449 C8.9372583,7.56122449 8.4,8.09848279 8.4,8.76122449 L8.4,34.2244898 Z" id="Path" fill="#FFFFFF"></path>
                            <path d="M18.2111575,34.622449 L10.9888425,34.622449 C10.1505073,34.622449 9.6938924,33.6564087 10.2328222,33.0227959 L11.3072304,31.7596565 C13.0251446,29.7399785 16.1748554,29.7399785 17.8927696,31.7596565 L18.9671778,33.0227959 C19.5061076,33.6564087 19.0494927,34.622449 18.2111575,34.622449" id="Fill-20" fill="#E93047"></path>
                            <path d="M18.2111575,34.622449 L10.9888425,34.622449 C10.1505073,34.622449 9.6938924,33.6564087 10.2328222,33.0227959 L11.3072304,31.7596565 C13.0251446,29.7399785 16.1748554,29.7399785 17.8927696,31.7596565 L18.9671778,33.0227959 C19.5061076,33.6564087 19.0494927,34.622449 18.2111575,34.622449" id="Path" fill="#EFDADD"></path>
                            <path d="M8.2111575,34.622449 L0.988842504,34.622449 C0.15050727,34.622449 -0.306107598,33.6564087 0.232822195,33.0227959 L1.30723042,31.7596565 C3.02514464,29.7399785 6.17485536,29.7399785 7.89276958,31.7596565 L8.9671778,33.0227959 C9.5061076,33.6564087 9.04949273,34.622449 8.2111575,34.622449" id="Fill-21" fill="#E93047"></path>
                            <path d="M8.2111575,34.622449 L0.988842504,34.622449 C0.15050727,34.622449 -0.306107598,33.6564087 0.232822195,33.0227959 L1.30723042,31.7596565 C3.02514464,29.7399785 6.17485536,29.7399785 7.89276958,31.7596565 L8.9671778,33.0227959 C9.5061076,33.6564087 9.04949273,34.622449 8.2111575,34.622449" id="Path" fill="#EFDADD"></path>
                            <polygon id="Path" fill="#E71D36" points="0.8 1.59183673 18 1.59183673 18 0 0.8 0"></polygon>
                        </g>
                        <path d="M3.21175037,9.63121654 C2.66104258,10.4309354 0.8,10.2697664 0.8,10.2697664 C0.8,4.59799322 5.09812455,0 10.4004581,0 C15.7023336,0 20,4.59799322 20,10.2697664 C20,10.2697664 18.5228061,12.0651331 17.6822526,10.5067817 C15.3209128,6.12895598 20.3473826,6.01889616 10.4002458,6.01889616 C0.453108973,6.01889616 5.62350073,6.12895598 3.21175037,9.63121654 Z" id="Fill-58" fill="#E71D36"></path>
                    </g>
                    <g id="girl" transform="translate(724.000000, 768.000000)">
                        <g id="Group-43-Copy" transform="translate(0.000000, 21.000000)">
                            <g id="Group-25">
                                <path d="M17.1464975,27.8121499 C19.5548152,27.8121499 21.5073031,25.9310194 21.5073031,23.6107182 L21.5073031,5.09395565 C21.5073031,2.77317398 19.5548152,0.892043491 17.1464975,0.892043491 L5.08745363,0.892043491 C2.67913589,0.892043491 0.726648017,2.77317398 0.726648017,5.09395565 L0.726648017,23.6107182 C0.726648017,25.9310194 2.67913589,27.8121499 5.08745363,27.8121499 L17.1464975,27.8121499 Z" id="Fill-18" fill="#E71D36"></path>
                                <path d="M21.5977059,7.61894688 L21.4216579,22.8664344 C21.4086911,24.010008 20.3883105,24.9359182 19.1544778,24.9239059 C17.9206451,24.911413 16.9217094,23.9658026 16.9351749,22.8217486 L17.1102255,7.61894688 L21.5977059,7.61894688 Z" id="Fill-56-Copy" fill="#F9E5E7"></path>
                                <path d="M5.18151373,7.85919343 L5.00546566,23.106681 C4.99249894,24.2502545 3.97211831,25.1761647 2.73828561,25.1641524 C1.50445292,25.1516596 0.505517234,24.2060492 0.518982668,23.0619951 L0.694033305,7.85919343 L5.18151373,7.85919343 Z" id="Fill-37" fill="#F9E5E7"></path>
                            </g>
                            <g id="Group-32" transform="translate(1.000000, 26.000000)">
                                <g id="Page-1-Copy-2">
                                    <path d="M0.805485056,23.5340909 C0.602265309,23.5340909 0.4375,23.4138546 0.4375,23.2655565 L0.4375,0 L19.25,0 L19.25,23.2655565 C19.25,23.4138546 19.0852347,23.5340909 18.8820149,23.5340909 L0.805485056,23.5340909 Z" id="Fill-1" fill="#F23950"></path>
                                    <path d="M0.805485056,16.4090909 L18.8820149,16.4090909 C19.0852347,16.4090909 19.25,16.2451538 19.25,16.0429555 L19.25,0 L0.4375,0 L0.4375,16.0429555 C0.4375,16.2451538 0.602265309,16.4090909 0.805485056,16.4090909" id="Fill-11" fill="#F23950"></path>
                                    <polygon id="Fill-14" fill="#F23950" points="0.4375 37.1363636 19.25 37.1363636 19.25 20.7272727 0.4375 20.7272727"></polygon>
                                    <path d="M9.1875,37.1363636 L11.8125,37.1363636 L11.8125,9.51704545 C11.8125,8.79217172 11.2248737,8.20454545 10.5,8.20454545 L10.5,8.20454545 C9.77512627,8.20454545 9.1875,8.79217172 9.1875,9.51704545 L9.1875,37.1363636 Z" id="Fill-15" fill="#FFFFFF"></path>
                                    <path d="M19.9184535,37.5681818 L12.0190465,37.5681818 C11.1021173,37.5681818 10.6026948,36.5199493 11.1921493,35.8324277 L12.3672833,34.4618184 C14.2462519,32.270303 17.6912481,32.270303 19.5702167,34.4618184 L20.7453507,35.8324277 C21.3348052,36.5199493 20.8353827,37.5681818 19.9184535,37.5681818" id="Fill-20" fill="#EFDADD"></path>
                                    <path d="M8.98095351,37.5681818 L1.08154649,37.5681818 C0.164617326,37.5681818 -0.334805186,36.5199493 0.254649276,35.8324277 L1.42978327,34.4618184 C3.30875195,32.270303 6.75374805,32.270303 8.63271673,34.4618184 L9.80785072,35.8324277 C10.3973052,36.5199493 9.89788267,37.5681818 8.98095351,37.5681818" id="Fill-21" fill="#EFDADD"></path>
                                </g>
                                <path d="M0.805485056,23.5340909 C0.602265309,23.5340909 0.4375,23.4138546 0.4375,23.2655565 L0.4375,0 L19.25,0 L19.25,23.2655565 C19.25,23.4138546 19.0852347,23.5340909 18.8820149,23.5340909 L0.805485056,23.5340909 Z" id="Fill-1" fill="#E93047"></path>
                                <path d="M0.805485056,23.5340909 C0.602265309,23.5340909 0.4375,23.4138546 0.4375,23.2655565 L0.4375,0 L19.25,0 L19.25,23.2655565 C19.25,23.4138546 19.0852347,23.5340909 18.8820149,23.5340909 L0.805485056,23.5340909 Z" id="Path" fill="#E93047"></path>
                                <path d="M0.805485056,16.4090909 L18.8820149,16.4090909 C19.0852347,16.4090909 19.25,16.2451538 19.25,16.0429555 L19.25,0 L0.4375,0 L0.4375,16.0429555 C0.4375,16.2451538 0.602265309,16.4090909 0.805485056,16.4090909" id="Fill-11" fill="#E93047"></path>
                                <path d="M0.805485056,16.4090909 L18.8820149,16.4090909 C19.0852347,16.4090909 19.25,16.2451538 19.25,16.0429555 L19.25,0 L0.4375,0 L0.4375,16.0429555 C0.4375,16.2451538 0.602265309,16.4090909 0.805485056,16.4090909" id="Path" fill="#E93047"></path>
                                <polygon id="Fill-14" fill="#E93047" points="0.4375 37.1363636 19.25 37.1363636 19.25 20.7272727 0.4375 20.7272727"></polygon>
                                <polygon id="Path" fill="#E93047" points="0.4375 37.1363636 19.25 37.1363636 19.25 20.7272727 0.4375 20.7272727"></polygon>
                                <path d="M9.1875,37.1363636 L11.8125,37.1363636 L11.8125,9.51704545 C11.8125,8.79217172 11.2248737,8.20454545 10.5,8.20454545 L10.5,8.20454545 C9.77512627,8.20454545 9.1875,8.79217172 9.1875,9.51704545 L9.1875,37.1363636 Z" id="Fill-15" fill="#E93047"></path>
                                <path d="M9.1875,37.1363636 L11.8125,37.1363636 L11.8125,9.51704545 C11.8125,8.79217172 11.2248737,8.20454545 10.5,8.20454545 L10.5,8.20454545 C9.77512627,8.20454545 9.1875,8.79217172 9.1875,9.51704545 L9.1875,37.1363636 Z" id="Path" fill="#FFFFFF"></path>
                                <path d="M19.9184535,37.5681818 L12.0190465,37.5681818 C11.1021173,37.5681818 10.6026948,36.5199493 11.1921493,35.8324277 L12.3672833,34.4618184 C14.2462519,32.270303 17.6912481,32.270303 19.5702167,34.4618184 L20.7453507,35.8324277 C21.3348052,36.5199493 20.8353827,37.5681818 19.9184535,37.5681818" id="Fill-20" fill="#E93047"></path>
                                <path d="M19.9184535,37.5681818 L12.0190465,37.5681818 C11.1021173,37.5681818 10.6026948,36.5199493 11.1921493,35.8324277 L12.3672833,34.4618184 C14.2462519,32.270303 17.6912481,32.270303 19.5702167,34.4618184 L20.7453507,35.8324277 C21.3348052,36.5199493 20.8353827,37.5681818 19.9184535,37.5681818" id="Path" fill="#EFDADD"></path>
                                <path d="M8.98095351,37.5681818 L1.08154649,37.5681818 C0.164617326,37.5681818 -0.334805186,36.5199493 0.254649276,35.8324277 L1.42978327,34.4618184 C3.30875195,32.270303 6.75374805,32.270303 8.63271673,34.4618184 L9.80785072,35.8324277 C10.3973052,36.5199493 9.89788267,37.5681818 8.98095351,37.5681818" id="Fill-21" fill="#E93047"></path>
                                <path d="M8.98095351,37.5681818 L1.08154649,37.5681818 C0.164617326,37.5681818 -0.334805186,36.5199493 0.254649276,35.8324277 L1.42978327,34.4618184 C3.30875195,32.270303 6.75374805,32.270303 8.63271673,34.4618184 L9.80785072,35.8324277 C10.3973052,36.5199493 9.89788267,37.5681818 8.98095351,37.5681818" id="Path" fill="#EFDADD"></path>
                                <polygon id="Path" fill="#E71D36" points="0.875 1.72727273 19.6875 1.72727273 19.6875 0 0.875 0"></polygon>
                            </g>
                        </g>
                        <g id="Group-44" transform="translate(2.000000, 8.000000)" fill="#E71D36">
                            <polygon id="Fill-44" points="0 12.937401 18.1989085 12.937401 18.1989085 0.53125 0 0.53125"></polygon>
                        </g>
                        <g id="Group-45" transform="translate(8.000000, 16.000000)" fill="#EFDADD">
                            <path d="M3.35336873,0.126126297 C4.88393968,0.126126297 6.12475445,1.98179065 6.12475445,4.27085977 L6.12475445,7.78182285 C5.32580539,8.20273481 4.37524552,8.44778629 3.35336873,8.44778629 C2.33149193,8.44778629 1.38093207,8.20273481 0.581484285,7.78182285 L0.581484285,4.27085977 C0.581484285,1.98179065 1.82279778,0.126126297 3.35336873,0.126126297" id="Fill-30"></path>
                        </g>
                        <path d="M3,11.9183693 C3,16.8442128 6.92327458,20.8367386 11.763122,20.8367386 C16.6025186,20.8367386 20.5257932,16.8442128 20.5257932,11.9183693 C20.5257932,6.99298465 16.6025186,3 11.763122,3 C6.92327458,3 3,6.99298465 3,11.9183693" id="Fill-57" fill="#EFDADD"></path>
                        <path d="M9.65358644,6.70759016 C9.65358644,6.70759016 9.05350847,8.18281949 6.43949492,9.615375 C5.3953322,10.1875713 2,9.615375 2,9.615375 C2,4.30500827 6.22985085,0 11.4479593,0 C16.6656169,0 20.8950169,4.30500827 20.8950169,9.615375 C20.8950169,9.615375 17.6142,9.80626004 14.1764881,8.80686673 C12.2234169,8.23925906 9.65358644,6.70759016 9.65358644,6.70759016" id="Fill-58" fill="#E71D36"></path>
                        <path d="M10.2333333,17.0625 C11.2352166,18.1654577 12.1744821,18.1654577 13.0511299,17.0625" id="Path-3-Copy" stroke="#E71D36" stroke-width="0.75264" stroke-linecap="round"></path>
                    </g>
                    <path d="M826,784 C825.2,784 824.666563,783.469463 824.666563,782.673812 L824.666563,768.086984 C818.8,767.291333 814,762.252004 814,756.152221 C814,746.869525 816.133438,723 826,723 C835.866562,723 838,746.869525 838,756.152221 C838,762.252314 833.2,767.291333 827.333437,768.086984 L827.333437,782.673812 C827.333437,783.469463 826.8,784 826,784 Z" id="Path-Copy" fill="#F295A0"></path>
                    <g id="bus-1" transform="translate(212.000000, 713.000000)">
                        <g id="Group-5">
                            <g id="Group-49">
                                <path d="M285.737404,46.8532832 C285.878945,46.8532832 279.642048,37.5857777 272.149391,37.5857777 L231.385354,37.5857777 C229.801218,37.6529671 228.425432,37.6529671 226.856016,37.6529671 L231.509344,14.417014 L231.509344,5.14950858 C231.509344,2.59051863 229.481334,0.515755849 226.980007,0.515755849 L14.1011457,0.515755849 C6.59659964,0.515755849 0.513133243,6.73946499 0.513133243,14.417014 L0.513133243,70.0220468 C0.513133243,77.6995959 6.59659964,83.923305 14.1011457,83.923305 L249.390037,83.923305 L267.743478,83.923305 L281.2075,74.6557996 L281.2075,83.8978194 C283.835082,83.923305 285.860828,81.8485422 285.860828,79.2895523 L285.737404,46.8532832 Z" id="Shape" fill="#F9E5E7" fill-rule="nonzero"></path>
                                <path d="M80.6278425,61.8907019 C68.3160926,61.8907019 58.3350538,71.9979562 58.3350538,84.4653947 L102.920631,84.4653947 C102.920631,71.9979562 92.9395923,61.8907019 80.6278425,61.8907019 Z" id="Shape" fill="#EFDADD" fill-rule="nonzero"></path>
                                <path d="M65.3015503,18.4344183 L65.3015503,31.9792339 C65.3015503,34.4726088 67.2978695,36.4941725 69.760108,36.4941725 L83.1357812,36.4941725 C85.5980197,36.4941725 87.5943389,34.4726088 87.5943389,31.9792339 L87.5943389,18.4344183 C87.5943389,15.9410434 85.5980197,13.9194797 83.1357812,13.9194797 L69.760108,13.9194797 C67.2978695,13.9194797 65.3015503,15.9410434 65.3015503,18.4344183 Z" id="Shape" fill="#F295A0" fill-rule="nonzero"></path>
                                <path d="M91.7742368,18.4344183 L91.7742368,31.9792339 C91.7742368,34.4726088 93.770556,36.4941725 96.2327945,36.4941725 L109.608468,36.4941725 C112.070706,36.4941725 114.067025,34.4726088 114.067025,31.9792339 L114.067025,18.4344183 C114.067025,15.9410434 112.070706,13.9194797 109.608468,13.9194797 L96.2327945,13.9194797 C93.770556,13.9194797 91.7742368,15.9410434 91.7742368,18.4344183 Z" id="Shape" fill="#F295A0" fill-rule="nonzero"></path>
                                <path d="M38.1322141,18.4344183 L38.1322141,31.9792339 C38.1322141,34.4726088 40.1285333,36.4941725 42.5907718,36.4941725 L55.966445,36.4941725 C58.4286835,36.4941725 60.4250028,34.4726088 60.4250028,31.9792339 L60.4250028,18.4344183 C60.4250028,15.9410434 58.4286835,13.9194797 55.966445,13.9194797 L42.5907718,13.9194797 C40.1285333,13.9194797 38.1322141,15.9410434 38.1322141,18.4344183 Z" id="Shape" fill="#F295A0" fill-rule="nonzero"></path>
                                <path d="M9.56957863,18.4344183 L9.56957863,31.9792339 C9.56957863,34.4726088 11.5658979,36.4941725 14.0281364,36.4941725 L27.4038096,36.4941725 C29.8660481,36.4941725 31.8623673,34.4726088 31.8623673,31.9792339 L31.8623673,18.4344183 C31.8623673,15.9410434 29.8660481,13.9194797 27.4038096,13.9194797 L14.0281364,13.9194797 C11.5658979,13.9194797 9.56957863,15.9410434 9.56957863,18.4344183 Z" id="Shape" fill="#F295A0" fill-rule="nonzero"></path>
                                <path d="M118.943573,18.4344183 L118.943573,31.9792339 C118.943573,34.4726088 120.939892,36.4941725 123.402131,36.4941725 L136.777804,36.4941725 C139.240042,36.4941725 141.236362,34.4726088 141.236362,31.9792339 L141.236362,18.4344183 C141.236362,15.9410434 139.240042,13.9194797 136.777804,13.9194797 L123.402131,13.9194797 C120.939892,13.9194797 118.943573,15.9410434 118.943573,18.4344183 Z" id="Shape" fill="#F295A0" fill-rule="nonzero"></path>
                                <path d="M231.929253,13.9194797 L231.803088,13.9194797 L176.497726,13.9194797 C173.952527,13.9194797 171.888946,15.9410434 171.888946,18.4344183 L171.888946,31.9792339 C171.888946,34.4726088 173.952527,36.4941725 176.497726,36.4941725 L236.538033,36.4941725 C236.538033,36.258267 231.929253,13.9194797 231.929253,13.9194797 Z" id="Shape" fill="#F295A0" fill-rule="nonzero"></path>
                                <mask id="mask-24" fill="white">
                                    <use xlink:href="#path-23"></use>
                                </mask>
                                <use id="Mask" fill="#F295A0" fill-rule="nonzero" xlink:href="#path-23"></use>
                                <path d="" id="Fill-58" fill="#E71D36"></path>
                                <path d="M285.961949,52.7197329 L281.513082,52.7197329 C279.064378,52.7197329 277.083043,54.7412967 277.083043,57.2346715 C277.083043,59.7280463 279.064378,61.7496101 281.513082,61.7496101 L286.000158,61.7496101 L285.961949,52.7197329 Z" id="Shape" fill="#F295A0" fill-rule="nonzero"></path>
                                <path d="M270.522275,36.4941725 L234.587414,36.4941725 C234.587414,41.4814865 238.579495,45.5240496 243.50453,45.5240496 L283.631549,45.5240496 C282.402102,39.3318114 276.994986,36.4941725 270.522275,36.4941725 Z" id="Shape" fill="#EFDADD" fill-rule="nonzero"></path>
                                <path d="M0.513133243,45.5240496 L247.909192,45.5240496 C251.636032,45.5240496 254.650924,43.5024859 254.650924,41.0091111 C254.650924,38.5157362 251.635318,36.4941725 247.909192,36.4941725 L0.513133243,36.4941725 L0.513133243,45.5240496 Z" id="Shape" fill="#EFDADD" fill-rule="nonzero"></path>
                                <ellipse id="Oval" fill="#F0818E" fill-rule="nonzero" cx="84.2504206" cy="84.183211" rx="18.9488704" ry="18.0597542"></ellipse>
                                <path d="M277.083043,78.9774869 C274.610946,69.176684 265.774987,61.8907019 255.166849,61.8907019 C242.647115,61.8907019 232.497465,71.9979562 232.497465,84.4653947 C232.497465,86.0117611 232.656718,87.5214437 232.954253,88.9803332 L250.508857,88.9803332 L250.520192,84.4653947 L268.892027,84.4653947 L277.083043,78.9774869 Z" id="Shape" fill="#EFDADD" fill-rule="nonzero"></path>
                                <path d="M285.738866,70.3562117 L263.411341,70.3562117 C260.956474,70.3562117 258.970152,72.2248899 258.970152,74.5296973 C258.970152,76.8345047 260.956474,78.7031829 263.411341,78.7031829 L272.415298,78.7031829 C269.96043,78.7031829 267.974108,80.5718611 267.974108,82.8766685 C267.974108,85.1814759 269.96043,82.8766685 272.415298,82.8766685 L281.297677,82.8766685 C286.194088,82.8766685 290.180056,79.1330519 290.180056,74.5296973 C290.180056,72.2248899 288.193179,70.3562117 285.738866,70.3562117 Z" id="Shape" fill="#EFDADD" fill-rule="nonzero"></path>
                                <ellipse id="Oval" fill="#F0818E" fill-rule="nonzero" cx="253.536284" cy="84.183211" rx="18.9488704" ry="18.0597542"></ellipse>
                            </g>
                        </g>
                    </g>
                </g>
            </g>
        </g>
    </g>
</svg>