<?xml version="1.0" encoding="UTF-8"?>
<svg width="375px" height="246px" viewBox="0 0 375 246" version="1.1" xmlns="http://www.w3.org/2000/svg" xmlns:xlink="http://www.w3.org/1999/xlink">
    <!-- Generator: Sketch 50 (54983) - http://www.bohemiancoding.com/sketch -->
    <title>hero</title>
    <desc>Created with Sketch.</desc>
    <defs>
        <path d="M81.4970246,10.3249951 L81.4970246,17.9113562 C81.4970246,19.3078789 82.6158408,20.4401433 83.9957767,20.4401433 L91.4920331,20.4401433 C92.871969,20.4401433 93.9907852,19.3078789 93.9907852,17.9113562 L93.9907852,10.3249951 C93.9907852,8.9284724 92.871969,7.796208 91.4920331,7.796208 L83.9957767,7.796208 C82.6158408,7.796208 81.4970246,8.9284724 81.4970246,10.3249951 Z" id="path-1"></path>
        <path d="M16.9331017,23.955465 C15.8584831,25.0168696 14.6812763,25.9780768 13.417303,26.8235556 L13.417303,22.404616 L16.9331017,22.404616 L16.9331017,23.955465 Z" id="path-3"></path>
        <path d="M17.0766274,23.8538243 C16.4859237,24.4442914 15.8636924,25.0042643 15.2126094,25.5311163 L15.2126094,22.404616 L17.0766274,22.404616 L17.0766274,23.8538243 Z" id="path-5"></path>
        <path d="M16.9331017,23.8884698 C15.8584564,24.9496565 14.681251,25.9106546 13.417303,26.7559372 L13.417303,19.6632457 L16.9331017,19.6632457 L16.9331017,23.8884698 Z" id="path-7"></path>
        <path d="M17.0766274,23.7868922 C16.4859144,24.377229 15.8636833,24.9370751 15.2126094,25.4638044 L15.2126094,19.6632457 L17.0766274,19.6632457 L17.0766274,23.7868922 Z" id="path-9"></path>
        <path d="M0.451201341,30.8281841 C1.64732477,30.8081599 2.82207799,30.7020147 3.9693027,30.5157937 L3.9693027,23.7753011 L0.451201341,23.7753011 L0.451201341,30.8281841 Z" id="path-11"></path>
        <path d="M0.451201341,30.836409 C1.72106257,30.8151529 2.96683766,30.6968302 4.18115774,30.4886745 L4.18115774,23.3836768 L0.451201341,23.3836768 L0.451201341,30.836409 Z" id="path-13"></path>
        <path d="M4.05681572,27.1045763 C3.20129415,27.9545808 2.26410035,28.7243442 1.25783037,29.4014289 L1.25783037,25.86261 L4.05681572,25.86261 L4.05681572,27.1045763 Z" id="path-15"></path>
        <path d="M4.17107887,27.0231794 C3.70080993,27.4960431 3.20544131,27.9444861 2.68710342,28.3664049 L2.68710342,25.86261 L4.17107887,25.86261 L4.17107887,27.0231794 Z" id="path-17"></path>
        <path d="M12.7924457,34.2887351 C13.7446993,34.2726991 14.6799397,34.1876949 15.5932642,34.0385635 L15.5932642,28.6405757 L12.7924457,28.6405757 L12.7924457,34.2887351 Z" id="path-19"></path>
        <path d="M12.7924457,34.2953218 C13.8034031,34.2782993 14.7951853,34.183543 15.7619255,34.0168457 L15.7619255,28.3269512 L12.7924457,28.3269512 L12.7924457,34.2953218 Z" id="path-21"></path>
    </defs>
    <g id="Finals" stroke="none" stroke-width="1" fill="none" fill-rule="evenodd">
        <g id="Skool-Tales--Landing-Mobile" transform="translate(0.000000, -428.000000)">
            <g id="hero" transform="translate(-221.000000, 174.000000)">
                <g id="illustration" transform="translate(0.000000, 16.000000)">
                    <g id="land" transform="translate(0.000000, 337.736289)" fill="#F7E3E5" opacity="0.581082589">
                        <path d="M816,142.263711 C694.221452,47.4212369 558.221452,0 408,0 C257.778548,0 121.778548,47.4212369 0,142.263711 L816,142.263711 Z" id="Oval"></path>
                    </g>
                    <g id="school" transform="translate(201.758242, 240.840140)">
                        <path d="M200.637363,32.4854142 L200.637363,35.8459743" id="Stroke-7" stroke="#E71D36" stroke-width="1.12" stroke-linecap="round" stroke-linejoin="round"></path>
                        <polygon id="Fill-3" fill="#EFDADD" points="8.96703297 162.987165 396.791209 162.987165 396.791209 155.145858 8.96703297 155.145858"></polygon>
                        <rect id="Rectangle-4-Copy-8" fill="#E9D0D4" x="2.8021978" y="155.145858" width="273.494505" height="8.40140023" rx="4.20070012"></rect>
                        <rect id="Rectangle-4-Copy-9" fill="#E9D0D4" x="128.340659" y="155.145858" width="273.494505" height="8.40140023" rx="4.20070012"></rect>
                        <polygon id="Fill-4" fill="#EFDADD" points="110.967033 162.987165 295.351648 162.987165 295.351648 155.145858 110.967033 155.145858"></polygon>
                        <polygon id="Fill-5" fill="#F1DCE0" points="8.96703297 155.145858 396.791209 155.145858 396.791209 73.9323221 8.96703297 73.9323221"></polygon>
                        <polygon id="Fill-5-Copy" fill="#F6E0E2" points="286.384615 152.905484 291.989011 152.905484 291.989011 73.9323221 286.384615 73.9323221"></polygon>
                        <polygon id="Fill-8" fill="#F295A0" opacity="0.418191964" points="8.96703297 87.3745624 396.791209 87.3745624 396.791209 84.0140023 8.96703297 84.0140023"></polygon>
                        <path d="M11.8257242,52.4349789 L1.10883593,81.5605798 C0.681634912,82.7215965 1.27651007,84.0091014 2.4375268,84.4363024 C2.68523351,84.5274472 2.94709954,84.5740957 3.21104268,84.5740957 L402.547199,84.5740957 C403.784317,84.5740957 404.787199,83.5712135 404.787199,82.3340957 C404.787199,82.0701525 404.740551,81.8082865 404.649406,81.5605798 L393.932518,52.4349789 C393.608328,51.5539206 392.76912,50.9684947 391.830311,50.9684947 L13.9279309,50.9684947 C12.9891219,50.9684947 12.1499133,51.5539206 11.8257242,52.4349789 Z" id="Fill-9" fill="#F0818E"></path>
                        <polygon id="Fill-10" fill="#F9E5E7" points="110.967033 155.705951 295.351648 155.705951 295.351648 57.1295216 110.967033 57.1295216"></polygon>
                        <path d="M119.113915,25.764294 L287.204767,25.764294 C288.18636,25.764294 289.053604,26.40338 289.344292,27.3409439 L299.274725,59.369895 L107.043956,59.369895 L116.97439,27.3409439 C117.265077,26.40338 118.132321,25.764294 119.113915,25.764294 Z" id="Fill-11" fill="#F0818E"></path>
                        <polygon id="Fill-12" fill="#E6E6E6" points="110.967033 63.2905484 295.351648 63.2905484 295.351648 60.4900817 110.967033 60.4900817"></polygon>
                        <path d="M207.215324,1.44237077 L271.813187,62.1703617 L264.415865,62.1703617 L205.681038,6.59637375 L146.946773,62.1703617 L139.549451,62.1703617 L204.146759,1.44237727 C205.009013,0.631771554 206.353066,0.631768709 207.215324,1.44237077 Z" id="Fill-16" fill="#F0818E"></path>
                        <polygon id="Fill-17" fill="#F295A0" points="205.299834 5.9127042 149.030922 59.9299883 261.568746 59.9299883"></polygon>
                        <path d="M205.401381,24.084014 L205.40251,24.084014 L205.404203,24.084014 L205.405897,24.084014 C205.421137,24.084014 205.436376,24.0845781 205.451616,24.0845781 L205.452745,24.0845781 L205.456132,24.0845781 L205.457261,24.0845781 L205.458954,24.0845781 L205.460083,24.0845781 L205.461776,24.0845781 L205.462905,24.0845781 L205.464598,24.0845781 L205.466292,24.0845781 L205.467421,24.0845781 L205.469114,24.0845781 L205.470807,24.0851422 L205.471936,24.0851422 L205.47363,24.0851422 L205.474758,24.0851422 L205.476452,24.0851422 L205.478145,24.0851422 L205.480967,24.0851422 L205.482661,24.0851422 L205.483789,24.0851422 L205.485483,24.0851422 L205.487176,24.0851422 L205.488305,24.0851422 L205.489998,24.0851422 L205.491127,24.0851422 L205.492821,24.0851422 L205.493949,24.0851422 L205.495643,24.0851422 C212.416252,24.1359105 218.010989,29.7570886 218.010989,36.6858323 C218.010989,43.614576 212.416252,49.2363182 205.495643,49.2870865 L205.493949,49.2870865 L205.492821,49.2870865 L205.491127,49.2870865 L205.489998,49.2870865 L205.488305,49.2870865 L205.487176,49.2870865 L205.485483,49.2870865 L205.483789,49.2870865 L205.482661,49.2870865 L205.480967,49.2870865 L205.478145,49.2870865 L205.476452,49.2870865 L205.474758,49.2870865 L205.47363,49.2876506 L205.471936,49.2876506 L205.470807,49.2876506 L205.469114,49.2876506 L205.467421,49.2876506 L205.466292,49.2876506 L205.464598,49.2876506 L205.462905,49.2876506 L205.461776,49.2876506 L205.460083,49.2876506 L205.458954,49.2876506 L205.457261,49.2876506 L205.456132,49.2876506 L205.452745,49.2876506 L205.451616,49.2876506 L205.405897,49.2882147 L205.404203,49.2882147 L205.40251,49.2882147 L205.401381,49.2882147 C198.436746,49.2882147 192.791209,43.6461652 192.791209,36.6858323 C192.791209,29.7260635 198.436746,24.084014 205.401381,24.084014" id="Fill-18" fill="#F9E5E7"></path>
                        <path d="M209.604396,41.4469078 L205.681319,37.5262544" id="Stroke-3" stroke="#E71D36" stroke-width="1.12" stroke-linecap="round" stroke-linejoin="round"></path>
                        <path d="M206.241758,36.966161 C206.241758,37.5845041 205.738484,38.0863477 205.120879,38.0863477 C204.501033,38.0863477 204,37.5845041 204,36.966161 C204,36.347818 204.501033,35.8459743 205.120879,35.8459743 C205.738484,35.8459743 206.241758,36.347818 206.241758,36.966161 Z" id="Stroke-5" stroke="#E71D36" stroke-width="1.12" fill="#E71D36" stroke-linecap="round" stroke-linejoin="round"></path>
                        <path d="M204.56044,32.4854142 L204.56044,35.8459743" id="Stroke-7" stroke="#E71D36" stroke-width="1.12" stroke-linecap="round" stroke-linejoin="round"></path>
                        <polygon id="Fill-28" fill="#F6E0E2" points="158.604396 166.907818 247.153846 166.907818 247.153846 164.107351 158.604396 164.107351"></polygon>
                        <polygon id="Fill-30" fill="#F1DCE0" points="161.406593 164.667445 244.912088 164.667445 244.912088 161.866978 161.406593 161.866978"></polygon>
                        <polygon id="Fill-31" fill="#F6E0E2" points="164.208791 161.866978 242.10989 161.866978 242.10989 159.066511 164.208791 159.066511"></polygon>
                        <polygon id="Fill-32" fill="#F1DCE0" points="167.571429 159.626604 238.186813 159.626604 238.186813 156.826138 167.571429 156.826138"></polygon>
                        <polygon id="Fill-33" fill="#F6E0E2" points="170.934066 156.826138 234.824176 156.826138 234.824176 154.025671 170.934066 154.025671"></polygon>
                        <path d="M218.571429,121.540257 L218.571429,150.105018 L187.747253,150.105018 L187.747253,114.259043 L218.570873,114.259043 L218.570873,121.540257 Z" id="Combined-Shape" fill="#F6CED3"></path>
                        <polygon id="Fill-36" fill="#F0818E" points="170.934066 106.417736 170.934066 110.949452 170.934066 115.37923 234.824176 115.37923 234.824176 110.949452 234.824176 106.417736"></polygon>
                        <polygon id="Fill-39" fill="#F1DCE0" points="183.609527 115.37923 180.42567 115.37923 177.098901 115.37923 177.098901 149.87523 180.42567 149.87523 183.609527 149.87523 183.824176 150.105018 183.824176 115.425966"></polygon>
                        <polygon id="Fill-40" fill="#F1DCE0" points="226.267385 115.37923 223.054945 115.37923 223.054945 150.105018 226.267385 150.105018 229.21978 150.105018 229.21978 115.37923"></polygon>
                        <path d="M161.292778,48.2844269 L185.269373,25.6025388 L187.743901,23.261572 L202.660139,9.15093121 L205.400818,6.55842795 L223.058296,23.261572 L225.532264,25.6025388 L249.508859,48.2844269 L251.983949,50.6253936 L258.444002,56.7366135 L260.800616,58.9657862 L264.188143,62.1703617 L267.89011,62.1703617 L264.484615,58.9657862 L262.115086,56.7366135 L255.620782,50.6253936 L253.132777,48.2844269 L229.027599,25.6025388 L226.539594,23.261572 L206.924871,4.80517786 C206.062305,3.99355008 204.716981,3.99366596 203.854555,4.80544233 L184.246882,23.261572 L181.760562,25.6025388 L157.663806,48.2844269 L155.176924,50.6253936 L148.684865,56.7366135 L146.31646,58.9657862 L142.912088,62.1703617 L146.614055,62.1703617 L150.001582,58.9657862 L152.358196,56.7366135 L158.818249,50.6253936 L161.292778,48.2844269 Z" id="Fill-85" fill="#F295A0"></path>
                        <polygon id="Fill-86" fill="#EFDADD" points="114.32967 162.987165 158.604396 162.987165 158.604396 159.066511 114.32967 159.066511"></polygon>
                        <polyline id="Fill-90" fill="#F295A0" points="295.351648 62.7304551 295.351648 59.369895 110.967033 59.369895 110.967033 62.7304551"></polyline>
                        <path d="M203.43956,113.138856 L203.43956,149.544924" id="Path-2" stroke="#F0818E" stroke-width="2.24"></path>
                        <polygon id="Stroke-50" fill="#F295A0" points="42.032967 96.8961494 24.6593407 96.8961494 24.6593407 119.299883 41.722419 119.299883"></polygon>
                        <polygon id="Stroke-50-Copy-2" fill="#F295A0" points="94.1538462 96.8961494 76.7802198 96.8961494 76.7802198 119.299883 93.8432981 119.299883"></polygon>
                        <polygon id="Stroke-50-Copy" fill="#F295A0" points="42.032967 125.46091 24.6593407 125.46091 24.6593407 147.864644 41.722419 147.864644"></polygon>
                        <polygon id="Stroke-50-Copy-5" fill="#F295A0" points="68.3736264 125.46091 51 125.46091 51 147.864644 68.0630783 147.864644"></polygon>
                        <polygon id="Stroke-50-Copy-3" fill="#F295A0" points="94.1538462 125.46091 76.7802198 125.46091 76.7802198 147.864644 93.8432981 147.864644"></polygon>
                        <polygon id="Stroke-50-Copy-4" fill="#F295A0" points="68.3736264 96.8961494 51 96.8961494 51 119.299883 68.0630783 119.299883"></polygon>
                        <polygon id="Stroke-50-Copy-12" fill="#F295A0" points="145.714286 119.299883 128.340659 119.299883 128.340659 141.703617 145.403738 141.703617"></polygon>
                        <polygon id="Stroke-50-Copy-14" fill="#F295A0" points="172.054945 119.299883 154.681319 119.299883 154.681319 141.703617 171.744397 141.703617"></polygon>
                        <polygon id="Stroke-50-Copy-13" fill="#F295A0" points="277.417582 119.299883 260.043956 119.299883 260.043956 141.703617 277.107034 141.703617"></polygon>
                        <polygon id="Stroke-50-Copy-6" fill="#F295A0" points="145.459846 73.3722287 128.340659 73.3722287 128.340659 95.7765228 145.153846 95.7765228"></polygon>
                        <polygon id="Stroke-50-Copy-7" fill="#F295A0" points="171.800505 73.3722287 154.681319 73.3722287 154.681319 95.7765228 171.494505 95.7765228"></polygon>
                        <polygon id="Stroke-50-Copy-8" fill="#F295A0" points="198.141165 73.3722287 181.021978 73.3722287 181.021978 95.7765228 197.835165 95.7765228"></polygon>
                        <polygon id="Stroke-50-Copy-9" fill="#F295A0" points="224.481824 73.3722287 207.362637 73.3722287 207.362637 95.7765228 224.175824 95.7765228"></polygon>
                        <polygon id="Stroke-50-Copy-10" fill="#F295A0" points="250.822484 73.3722287 233.703297 73.3722287 233.703297 95.7765228 250.516484 95.7765228"></polygon>
                        <polygon id="Stroke-50-Copy-15" fill="#F295A0" points="250.822484 119.299883 233.703297 119.299883 233.703297 141.704177 250.516484 141.704177"></polygon>
                        <polygon id="Stroke-50-Copy-11" fill="#F295A0" points="277.163143 73.3722287 260.043956 73.3722287 260.043956 95.7765228 276.857143 95.7765228"></polygon>
                        <polygon id="Stroke-50" fill="#F295A0" points="329.538462 95.7759627 312.164835 95.7759627 312.164835 118.179697 329.227914 118.179697"></polygon>
                        <polygon id="Stroke-50-Copy-2" fill="#F295A0" points="381.659341 95.7759627 364.285714 95.7759627 364.285714 118.179697 381.348793 118.179697"></polygon>
                        <polygon id="Stroke-50-Copy" fill="#F295A0" points="329.538462 124.340723 312.164835 124.340723 312.164835 146.744457 329.227914 146.744457"></polygon>
                        <polygon id="Stroke-50-Copy-5" fill="#F295A0" points="355.879121 124.340723 338.505495 124.340723 338.505495 146.744457 355.568573 146.744457"></polygon>
                        <polygon id="Stroke-50-Copy-3" fill="#F295A0" points="381.659341 124.340723 364.285714 124.340723 364.285714 146.744457 381.348793 146.744457"></polygon>
                        <polygon id="Stroke-50-Copy-4" fill="#F295A0" points="355.879121 95.7759627 338.505495 95.7759627 338.505495 118.179697 355.568573 118.179697"></polygon>
                    </g>
                    <g id="tree" transform="translate(111.527473, 399.346558)">
                        <g id="road">
                            <g id="Group-7" transform="translate(451.994505, 30.245041) scale(-1, 1) translate(-451.994505, -30.245041) translate(326.175824, 0.000000)">
                                <polygon id="Rectangle-Copy" fill="#FEFBFB" points="26.9010989 49.8483081 251.637363 49.8483081 246.032967 60.4900817 0 60.4900817"></polygon>
                                <g id="Group-4-Copy" transform="translate(4.483516, 0.000000)">
                                    <g id="Group-5">
                                        <g id="Group-49">
                                            <path d="M160.138545,26.2422123 C160.21787,26.2422123 156.722466,21.0515441 152.523285,21.0515441 L129.677506,21.0515441 C128.789694,21.0891764 128.018649,21.0891764 127.139086,21.0891764 L129.746995,8.07487368 L129.746995,2.88420551 C129.746995,1.45093226 128.610418,0.288871421 127.208575,0.288871421 L7.90283988,0.288871421 C3.6969954,0.288871421 0.287580169,3.77472951 0.287580169,8.07487368 L0.287580169,39.2188827 C0.287580169,43.5190269 3.6969954,47.004885 7.90283988,47.004885 L139.768042,47.004885 L150.054037,47.004885 L157.599808,41.8142168 L157.599808,46.9906106 C159.072409,47.004885 160.207717,45.8428241 160.207717,44.4095509 L160.138545,26.2422123 Z" id="Shape" fill="#F9E5E7" fill-rule="nonzero"></path>
                                            <path d="M129.982329,7.796208 L129.911621,7.796208 L98.9163081,7.796208 C97.489878,7.796208 96.3333654,8.9284724 96.3333654,10.3249951 L96.3333654,17.9113562 C96.3333654,19.3078789 97.489878,20.4401433 98.9163081,20.4401433 L132.565271,20.4401433 C132.565271,20.3080142 129.982329,7.796208 129.982329,7.796208 Z" id="Shape" fill="#F295A0" fill-rule="nonzero"></path>
                                            <mask id="mask-2" fill="white">
                                                <use xlink:href="#path-1"></use>
                                            </mask>
                                            <use id="Mask" fill="#F295A0" fill-rule="nonzero" xlink:href="#path-1"></use>
                                            <path d="M160.264389,29.5279718 L157.771068,29.5279718 C156.398717,29.5279718 155.288299,30.6602362 155.288299,32.0567588 C155.288299,33.4532815 156.398717,34.5855459 157.771068,34.5855459 L160.285803,34.5855459 L160.264389,29.5279718 Z" id="Shape" fill="#F295A0" fill-rule="nonzero" mask="url(#mask-2)"></path>
                                            <path d="M151.611385,20.4401433 L131.472067,20.4401433 C131.472067,23.2335047 133.709387,25.4977174 136.469572,25.4977174 L158.958341,25.4977174 C158.26931,22.029486 155.238948,20.4401433 151.611385,20.4401433 Z" id="Shape" fill="#EFDADD" fill-rule="nonzero" mask="url(#mask-2)"></path>
                                            <path d="M0.287580169,25.4977174 L138.938119,25.4977174 C141.026787,25.4977174 142.716452,24.365453 142.716452,22.9689303 C142.716452,21.5724077 141.026387,20.4401433 138.938119,20.4401433 L0.287580169,20.4401433 L0.287580169,25.4977174 Z" id="Shape" fill="#EFDADD" fill-rule="nonzero" mask="url(#mask-2)"></path>
                                            <path d="M155.288299,44.2347651 C153.902838,38.7454006 148.950817,34.6645705 143.005597,34.6645705 C135.989043,34.6645705 130.300777,40.3255764 130.300777,47.3085058 C130.300777,48.1746153 130.390029,49.0201785 130.556779,49.8372928 L140.395074,49.8372928 L140.401426,47.3085058 L150.69773,47.3085058 L155.288299,44.2347651 Z" id="Shape" fill="#EFDADD" fill-rule="nonzero" mask="url(#mask-2)"></path>
                                            <path d="M160.139365,39.4060462 L147.626136,39.4060462 C146.250331,39.4060462 145.137118,40.4526804 145.137118,41.7435878 C145.137118,43.0344951 146.250331,44.0811293 147.626136,44.0811293 L152.67231,44.0811293 C151.296505,44.0811293 150.183291,45.1277635 150.183291,46.4186708 C150.183291,47.7095781 151.296505,46.4186708 152.67231,46.4186708 L157.650346,46.4186708 C160.394489,46.4186708 162.628383,44.3218961 162.628383,41.7435878 C162.628383,40.4526804 161.514858,39.4060462 160.139365,39.4060462 Z" id="Shape" fill="#EFDADD" fill-rule="nonzero" mask="url(#mask-2)"></path>
                                            <ellipse id="Oval" fill="#F0818E" fill-rule="nonzero" mask="url(#mask-2)" cx="142.091764" cy="47.1504566" rx="10.6196966" ry="10.1151482"></ellipse>
                                        </g>
                                    </g>
                                </g>
                            </g>
                            <polygon id="Fill-1" fill-opacity="0.787250906" fill="#FFFFFF" points="313.935528 9.29073787 313.497064 8.40140023 264.87677 8.40140023 239.868132 80.6534422 338.505495 80.6534422"></polygon>
                            <polygon id="Rectangle" fill="#FEFBFB" points="26.9010989 49.8483081 251.637363 49.8483081 246.032967 60.4900817 0 60.4900817"></polygon>
                        </g>
                        <path d="M233.142857,39.7666278 C232.694505,39.7666278 232.395546,39.4694773 232.395546,39.0238385 L232.395546,30.8538531 C229.107692,30.4082144 226.417582,27.5857197 226.417582,24.1692721 C226.417582,18.9700955 227.613245,5.60093349 233.142857,5.60093349 C238.672469,5.60093349 239.868132,18.9700955 239.868132,24.1692721 C239.868132,27.5858937 237.178022,30.4082144 233.890168,30.8538531 L233.890168,39.0238385 C233.890168,39.4694773 233.591209,39.7666278 233.142857,39.7666278 Z" id="Path" fill="#F295A0"></path>
                        <path d="M213.527473,68.8914819 C213.079121,68.8914819 212.780161,68.5943314 212.780161,68.1486927 L212.780161,59.9787072 C209.492308,59.5330685 206.802198,56.7105738 206.802198,53.2941262 C206.802198,48.0949496 207.997861,34.7257876 213.527473,34.7257876 C219.057084,34.7257876 220.252747,48.0949496 220.252747,53.2941262 C220.252747,56.7107479 217.562637,59.5330685 214.274784,59.9787072 L214.274784,68.1486927 C214.274784,68.5943314 213.975824,68.8914819 213.527473,68.8914819 Z" id="Path-Copy-2" fill="#F295A0"></path>
                        <path d="M371.571429,68.8914819 C371.123077,68.8914819 370.824117,68.5943314 370.824117,68.1486927 L370.824117,59.9787072 C367.536264,59.5330685 364.846154,56.7105738 364.846154,53.2941262 C364.846154,48.0949496 366.041817,34.7257876 371.571429,34.7257876 C377.101041,34.7257876 378.296703,48.0949496 378.296703,53.2941262 C378.296703,56.7107479 375.606593,59.5330685 372.31874,59.9787072 L372.31874,68.1486927 C372.31874,68.5943314 372.01978,68.8914819 371.571429,68.8914819 Z" id="Path-Copy-3" fill="#F295A0"></path>
                    </g>
                    <g id="parents" transform="translate(385.021978, 409.988331)">
                        <g id="man" transform="translate(21.857143, 1.680280)">
                            <mask id="mask-4" fill="white">
                                <use xlink:href="#path-3"></use>
                            </mask>
                            <g id="Clip-7"></g>
                            <mask id="mask-6" fill="white">
                                <use xlink:href="#path-5"></use>
                            </mask>
                            <g id="Clip-10"></g>
                            <mask id="mask-8" fill="white">
                                <use xlink:href="#path-7"></use>
                            </mask>
                            <g id="Clip-13"></g>
                            <path d="M15.2733419,19.6633426 C14.3505545,19.653552 13.5873498,20.3866728 13.5777748,21.2924998 L13.4173941,35.984678 C13.4078191,36.8905051 14.1546666,37.6396825 15.0774541,37.6494731 C16.0002415,37.658872 16.7634462,36.9257513 16.7730212,36.0199242 L16.933003,21.327746 C16.9429769,20.421919 16.1961294,19.6731333 15.2733419,19.6633426" id="Fill-12" fill="#F2987E"></path>
                            <mask id="mask-10" fill="white">
                                <use xlink:href="#path-9"></use>
                            </mask>
                            <g id="Clip-16"></g>
                            <path d="M15.2197907,37.6493761 C15.2173969,37.6493761 15.2150032,37.6489845 15.2126094,37.6489845 L15.4084973,19.6636373 C15.410891,19.6636373 15.4132848,19.6632457 15.4156785,19.6632457 C16.338466,19.6730363 17.0861114,20.3752187 17.0765364,21.223477 L16.9145599,36.1247826 C16.9049849,36.9730409 16.1425781,37.6591667 15.2197907,37.6493761" id="Fill-15" fill="#F2987E"></path>
                            <path d="M13.5864608,39.6462686 C15.513024,39.6462686 17.0749406,38.1130593 17.0749406,36.2219055 L17.0749406,21.1298788 C17.0749406,19.2383333 15.513024,17.7051241 13.5864608,17.7051241 L3.93968113,17.7051241 C2.0131179,17.7051241 0.451201341,19.2383333 0.451201341,21.1298788 L0.451201341,36.2219055 C0.451201341,38.1130593 2.0131179,39.6462686 3.93968113,39.6462686 L13.5864608,39.6462686 Z" id="Fill-18" fill="#F0818E"></path>
                            <path d="M8.95217657,13.0056322 C10.1765755,13.0056322 11.1691805,14.5180853 11.1691805,16.3837836 L11.1691805,19.2453826 C10.5300514,19.5884455 9.76963941,19.7881739 8.95217657,19.7881739 C8.13471373,19.7881739 7.37430173,19.5884455 6.7347737,19.2453826 L6.7347737,16.3837836 C6.7347737,14.5180853 7.72777761,13.0056322 8.95217657,13.0056322" id="Fill-30" fill="#EFDADD"></path>
                            <mask id="mask-12" fill="white">
                                <use xlink:href="#path-11"></use>
                            </mask>
                            <g id="Clip-35"></g>
                            <mask id="mask-14" fill="white">
                                <use xlink:href="#path-13"></use>
                            </mask>
                            <g id="Clip-38"></g>
                            <path d="M0.750419072,8.52179472 C0.750419072,12.9847455 4.43558465,16.6025711 8.9824973,16.6025711 C13.528612,16.6025711 17.2145755,12.9847455 17.2145755,8.52179472 C17.2145755,4.05884391 13.528612,0.441018385 8.9824973,0.441018385 C4.43558465,0.441018385 0.750419072,4.05884391 0.750419072,8.52179472" id="Fill-40" fill="#EFDADD"></path>
                            <path d="M17.1472594,23.1878646 L17.0064276,35.6152794 C16.9960547,36.5473453 16.1797888,37.3020053 15.1927692,37.2922147 C14.2057497,37.2820325 13.4066388,36.5113158 13.4174107,35.5788583 L13.5574446,23.1878646 L17.1472594,23.1878646 Z" id="Fill-56-Copy" fill="#EFDADD"></path>
                            <path d="M2.06043544,37.4880269 C1.07341589,37.4778447 0.274305066,36.707128 0.285076905,35.7746705 L0.425110803,23.3836768 C2.17334027,32.7931039 2.71844848,37.494554 2.06043544,37.4880269 Z" id="Fill-37" fill="#F9E5E7"></path>
                            <path d="M7.89839821,12.8424554 C8.78496927,13.7838028 9.61612963,13.7838028 10.3918793,12.8424554" id="Path-3-Copy-2" stroke="#F0818E" stroke-width="0.65856" stroke-linecap="round"></path>
                            <mask id="mask-16" fill="white">
                                <use xlink:href="#path-15"></use>
                            </mask>
                            <g id="Clip-7"></g>
                            <mask id="mask-18" fill="white">
                                <use xlink:href="#path-17"></use>
                            </mask>
                            <g id="Clip-10"></g>
                            <path d="M3.31811288,55.0291715 C3.18795015,55.0291715 3.08241758,54.9511948 3.08241758,54.8550191 L3.08241758,39.7666278 L15.1318681,39.7666278 L15.1318681,54.8550191 C15.1318681,54.9511948 15.0263356,55.0291715 14.8961728,55.0291715 L3.31811288,55.0291715 Z" id="Fill-1" fill="#F295A0"></path>
                            <path d="M3.31811288,50.4084014 L14.8961728,50.4084014 C15.0263356,50.4084014 15.1318681,50.3020834 15.1318681,50.1709519 L15.1318681,39.7666278 L3.08241758,39.7666278 L3.08241758,50.1709519 C3.08241758,50.3020834 3.18795015,50.4084014 3.31811288,50.4084014" id="Fill-11" fill="#F295A0"></path>
                            <polygon id="Fill-14" fill="#F295A0" points="3.08241758 63.8506418 15.1318681 63.8506418 15.1318681 53.2088681 3.08241758 53.2088681"></polygon>
                            <path d="M8.12637363,64.4107351 L9.80769231,64.4107351 L9.80769231,46.4882673 C9.80769231,46.0239839 9.4313163,45.6476079 8.96703297,45.6476079 L8.96703297,45.6476079 C8.50274963,45.6476079 8.12637363,46.0239839 8.12637363,46.4882673 L8.12637363,64.4107351 Z" id="Fill-15" fill="#FFFFFF"></path>
                            <path d="M14.9995746,64.1306884 L9.93998582,64.1306884 C9.35269053,64.1306884 9.03280924,63.4508791 9.41035621,63.0050013 L10.1630323,62.1161212 C11.3665162,60.6948596 13.5730443,60.6948596 14.7765281,62.1161212 L15.5292042,63.0050013 C15.9067512,63.4508791 15.5868699,64.1306884 14.9995746,64.1306884" id="Fill-20" fill="#EAC7CD"></path>
                            <path d="M7.99408011,64.1306884 L2.93449131,64.1306884 C2.34719603,64.1306884 2.02731473,63.4508791 2.4048617,63.0050013 L3.1575378,62.1161212 C4.36102166,60.6948596 6.56754977,60.6948596 7.77103363,62.1161212 L8.52370973,63.0050013 C8.9012567,63.4508791 8.5813754,64.1306884 7.99408011,64.1306884" id="Fill-21" fill="#EAC7CD"></path>
                            <polygon id="Fill-22" fill="#F0818E" points="3.08241758 39.7666278 15.1318681 39.7666278 15.1318681 38.6464411 3.08241758 38.6464411"></polygon>
                        </g>
                        <g id="woman">
                            <polygon id="Fill-44" fill="#F0818E" points="0.647906128 17.9457931 16.7522034 17.9457931 16.7522034 7.35744621 0.647906128 7.35744621"></polygon>
                            <path d="M14.9916462,21.2371214 C14.0688587,21.2273308 13.305654,21.9604516 13.296079,22.8662786 L13.1356983,37.5584568 C13.1261233,38.4642839 13.8729708,39.2134612 14.7957583,39.2232518 C15.7185458,39.2326508 16.4817505,38.4995301 16.4913254,37.593703 L16.6513072,22.9015248 C16.6612811,21.9956977 15.9144336,21.246912 14.9916462,21.2371214" id="Fill-48" fill="#F2987E"></path>
                            <path d="M13.2335359,39.2241134 C13.2311421,39.2241134 13.2287484,39.2237218 13.2263546,39.2237218 L13.4222425,21.2383746 C13.4246362,21.2383746 13.42703,21.237983 13.4294237,21.237983 C14.3522112,21.2477736 15.0998566,21.949956 15.0902816,22.7982143 L14.9283051,37.6995199 C14.9187301,38.5477782 14.1563233,39.233904 13.2335359,39.2241134" id="Fill-49" fill="#F2987E"></path>
                            <path d="M13.2875014,41.1119385 C15.2140647,41.1119385 16.7759812,39.5787292 16.7759812,37.6875754 L16.7759812,22.5955487 C16.7759812,20.7040032 15.2140647,19.170794 13.2875014,19.170794 L3.64072177,19.170794 C1.71415854,19.170794 0.152241982,20.7040032 0.152241982,22.5955487 L0.152241982,37.6875754 C0.152241982,39.5787292 1.71415854,41.1119385 3.64072177,41.1119385 L13.2875014,41.1119385 Z" id="Fill-50" fill="#F0818E"></path>
                            <path d="M5.57482529,39.6838804 L12.0909896,39.6838804 L12.0909896,22.2401497 C12.0909896,20.8459671 10.6247771,19.7051654 8.83290743,19.7051654 C7.04103776,19.7051654 5.57482529,20.8459671 5.57482529,22.2401497 L5.57482529,39.6838804 Z" id="Fill-53" fill="#F0818E"></path>
                            <path d="M8.85185789,14.4576344 C10.0762568,14.4576344 11.0688618,15.9700875 11.0688618,17.8357858 L11.0688618,20.6973848 C10.4297327,21.0404477 9.66932073,21.2405677 8.85185789,21.2405677 C8.03439505,21.2405677 7.27398305,21.0404477 6.63445502,20.6973848 L6.63445502,17.8357858 C6.63445502,15.9700875 7.62745893,14.4576344 8.85185789,14.4576344" id="Fill-54" fill="#EFDADD"></path>
                            <path d="M3.7299564,24.6441074 L3.58912459,37.0715221 C3.5787517,38.003588 2.76248573,38.7582481 1.77546618,38.7484574 C0.78844662,38.7382752 -0.0106642016,37.9675585 0.000107636702,37.035101 L0.140141535,24.6441074 L3.7299564,24.6441074 Z" id="Fill-56" fill="#EFDADD"></path>
                            <path d="M1.0923442,9.64370986 C1.0923442,13.847797 4.5640678,17.2553203 8.84687093,17.2553203 C13.1292751,17.2553203 16.6009987,13.847797 16.6009987,9.64370986 C16.6009987,5.44001435 13.1292751,2.03209946 8.84687093,2.03209946 C4.5640678,2.03209946 1.0923442,5.44001435 1.0923442,9.64370986" id="Fill-57" fill="#EFDADD"></path>
                            <path d="M6.9721721,5.7247644 C6.9721721,5.7247644 6.44116037,6.9838366 4.12800782,8.20648775 C3.20402347,8.69484328 0.199478488,8.20648775 0.199478488,8.20648775 C0.199478488,3.67421943 3.94249283,0 8.56002086,0 C13.1771499,0 16.9197653,3.67421943 16.9197653,8.20648775 C16.9197653,8.20648775 14.0165554,8.36940347 10.9745085,7.51644569 C9.24622686,7.03200639 6.9721721,5.7247644 6.9721721,5.7247644" id="Fill-58" fill="#F0818E"></path>
                            <path d="M7.81290743,14.5227354 C8.69947849,15.4640828 9.53063885,15.4640828 10.3063885,14.5227354" id="Path-3-Copy" stroke="#F0818E" stroke-width="0.65856" stroke-linecap="round"></path>
                            <mask id="mask-20" fill="white">
                                <use xlink:href="#path-19"></use>
                            </mask>
                            <g id="Clip-35"></g>
                            <mask id="mask-22" fill="white">
                                <use xlink:href="#path-21"></use>
                            </mask>
                            <g id="Clip-38"></g>
                            <path d="M2.75767332,52.0886814 L14.3357333,52.0886814 C14.465896,52.0886814 14.5714286,51.9823634 14.5714286,51.851232 L14.5714286,41.4469078 L2.52197802,41.4469078 L2.52197802,51.851232 C2.52197802,51.9823634 2.62751059,52.0886814 2.75767332,52.0886814" id="Fill-11" fill="#F295A0"></path>
                            <polygon id="Fill-14" fill="#F295A0" points="2.52197802 65.5309218 14.5714286 65.5309218 14.5714286 51.4264775 2.52197802 51.4264775"></polygon>
                            <path d="M7.56593407,66.0910152 L9.24725275,66.0910152 L9.24725275,48.1685473 C9.24725275,47.704264 8.87087674,47.327888 8.40659341,47.327888 L8.40659341,47.327888 C7.94231007,47.327888 7.56593407,47.704264 7.56593407,48.1685473 L7.56593407,66.0910152 Z" id="Fill-15" fill="#FFFFFF"></path>
                            <path d="M14.4391351,65.8109685 L9.37954626,65.8109685 C8.79225097,65.8109685 8.47236968,65.1311591 8.84991665,64.6852814 L9.60259274,63.7964013 C10.8060766,62.3751397 13.0126047,62.3751397 14.2160886,63.7964013 L14.9687647,64.6852814 C15.3463116,65.1311591 15.0264303,65.8109685 14.4391351,65.8109685" id="Fill-20" fill="#EAC7CD"></path>
                            <path d="M7.43364055,65.8109685 L2.37405175,65.8109685 C1.78675647,65.8109685 1.46687517,65.1311591 1.84442214,64.6852814 L2.59709824,63.7964013 C3.8005821,62.3751397 6.00711021,62.3751397 7.21059407,63.7964013 L7.96327017,64.6852814 C8.34081714,65.1311591 8.02093584,65.8109685 7.43364055,65.8109685" id="Fill-21" fill="#EAC7CD"></path>
                            <polygon id="Fill-22" fill="#F0818E" points="2.52197802 41.4469078 14.5714286 41.4469078 14.5714286 40.3267211 2.52197802 40.3267211"></polygon>
                        </g>
                        <path d="M16.8131868,24.6441074 L16.8131868,37.035101 C16.8028139,37.9671669 16.2130352,38.7582481 15.2260156,38.7484574 C14.2389961,38.7382752 13.4398852,37.9675585 13.4506571,37.035101 L13.590691,24.6441074 L16.8131868,24.6441074 Z" id="Fill-56-Copy-3" fill="#EFDADD"></path>
                    </g>
                    <g id="boy" transform="translate(391.747253, 434.072345)">
                        <g id="Group-25">
                            <path d="M8.73597774,24.8874443 C9.96299278,24.8874443 10.9577668,23.9101841 10.9577668,22.7047717 L10.9577668,13.0851862 C10.9577668,11.8795242 9.96299278,10.902264 8.73597774,10.902264 L2.59200934,10.902264 C1.36499431,10.902264 0.370220268,11.8795242 0.370220268,13.0851862 L0.370220268,22.7047717 C0.370220268,23.9101841 1.36499431,24.8874443 2.59200934,24.8874443 L8.73597774,24.8874443 Z" id="Fill-18" fill="#E71D36"></path>
                            <path d="M5.78443362,7.90683036 C6.56424499,7.90683036 7.19642834,8.87086075 7.19642834,10.0600479 L7.19642834,11.8840174 C6.78937138,12.102684 6.30507015,12.2299899 5.78443362,12.2299899 C5.26379709,12.2299899 4.77949586,12.102684 4.3721848,11.8840174 L4.3721848,10.0600479 C4.3721848,8.87086075 5.00462224,7.90683036 5.78443362,7.90683036" id="Fill-30" fill="#EFDADD"></path>
                            <path d="M0.560790008,5.56835552 C0.560790008,8.41301898 2.90784692,10.7190036 5.80374468,10.7190036 C8.69913426,10.7190036 11.0466994,8.41301898 11.0466994,5.56835552 C11.0466994,2.72369206 8.69913426,0.417707413 5.80374468,0.417707413 C2.90784692,0.417707413 0.560790008,2.72369206 0.560790008,5.56835552" id="Fill-40" fill="#F9E5E7"></path>
                            <path d="M11.0038262,14.3969365 L10.9141314,22.3181111 C10.907525,22.9122055 10.3876507,23.3932222 9.75902466,23.3869817 C9.13039861,23.3804916 8.62145036,22.8892405 8.62831087,22.2948965 L8.71749751,14.3969365 L11.0038262,14.3969365 Z" id="Fill-56-Copy" fill="#F9E5E7"></path>
                            <path d="M2.63993207,14.5217463 L2.55023725,22.4429209 C2.54363083,23.0370152 2.02375658,23.5180319 1.39513053,23.5117914 C0.766504485,23.5053013 0.257556233,23.0140502 0.264416744,22.4197062 L0.353603382,14.5217463 L2.63993207,14.5217463 Z" id="Fill-37" fill="#F9E5E7"></path>
                            <path d="M5.11328934,8.32232391 C5.67794042,8.92258425 6.20730081,8.92258425 6.70137051,8.32232391" id="Path-3-Copy-2" stroke="#E71D36" stroke-width="0.5" stroke-linecap="round"></path>
                        </g>
                        <g id="Group-32" transform="translate(0.448352, 24.072584)">
                            <g id="Page-1-Copy-2">
                                <path d="M0.41273206,12.1477389 C0.308601879,12.1477389 0.224175824,12.0856758 0.224175824,12.0091278 L0.224175824,0 L9.86373626,0 L9.86373626,12.0091278 C9.86373626,12.0856758 9.77931021,12.1477389 9.67518003,12.1477389 L0.41273206,12.1477389 Z" id="Fill-1" fill="#F23950"></path>
                                <path d="M0.41273206,8.46998309 L9.67518003,8.46998309 C9.77931021,8.46998309 9.86373626,8.38536264 9.86373626,8.28099268 L9.86373626,0 L0.224175824,0 L0.224175824,8.28099268 C0.224175824,8.38536264 0.308601879,8.46998309 0.41273206,8.46998309" id="Fill-11" fill="#F23950"></path>
                                <polygon id="Fill-14" fill="#F23950" points="0.224175824 19.1689091 9.86373626 19.1689091 9.86373626 10.698926 0.224175824 10.698926"></polygon>
                                <path d="M4.70769231,19.1689091 L6.05274725,19.1689091 L6.05274725,4.90751902 C6.05274725,4.53609235 5.75164645,4.23499155 5.38021978,4.23499155 L5.38021978,4.23499155 C5.00879311,4.23499155 4.70769231,4.53609235 4.70769231,4.90751902 L4.70769231,19.1689091 Z" id="Fill-15" fill="#FFFFFF"></path>
                                <path d="M10.2062531,19.3918034 L6.15858206,19.3918034 C5.68874583,19.3918034 5.4328408,18.8507306 5.73487837,18.4958483 L6.33701925,17.7883724 C7.29980634,16.6571641 9.06502883,16.6571641 10.0278159,17.7883724 L10.6299568,18.4958483 C10.9319944,18.8507306 10.6760893,19.3918034 10.2062531,19.3918034" id="Fill-20" fill="#EFDADD"></path>
                                <path d="M4.6018575,19.3918034 L0.554186458,19.3918034 C0.0843502281,19.3918034 -0.171554808,18.8507306 0.130482769,18.4958483 L0.732623643,17.7883724 C1.69541073,16.6571641 3.46063322,16.6571641 4.42342031,17.7883724 L5.02556119,18.4958483 C5.32759876,18.8507306 5.07169373,19.3918034 4.6018575,19.3918034" id="Fill-21" fill="#EFDADD"></path>
                            </g>
                            <path d="M0.41273206,12.1477389 C0.308601879,12.1477389 0.224175824,12.0856758 0.224175824,12.0091278 L0.224175824,0 L9.86373626,0 L9.86373626,12.0091278 C9.86373626,12.0856758 9.77931021,12.1477389 9.67518003,12.1477389 L0.41273206,12.1477389 Z" id="Fill-1" fill="#E93047"></path>
                            <path d="M0.41273206,12.1477389 C0.308601879,12.1477389 0.224175824,12.0856758 0.224175824,12.0091278 L0.224175824,0 L9.86373626,0 L9.86373626,12.0091278 C9.86373626,12.0856758 9.77931021,12.1477389 9.67518003,12.1477389 L0.41273206,12.1477389 Z" id="Path" fill="#E93047"></path>
                            <path d="M0.41273206,8.46998309 L9.67518003,8.46998309 C9.77931021,8.46998309 9.86373626,8.38536264 9.86373626,8.28099268 L9.86373626,0 L0.224175824,0 L0.224175824,8.28099268 C0.224175824,8.38536264 0.308601879,8.46998309 0.41273206,8.46998309" id="Fill-11" fill="#E93047"></path>
                            <path d="M0.41273206,8.46998309 L9.67518003,8.46998309 C9.77931021,8.46998309 9.86373626,8.38536264 9.86373626,8.28099268 L9.86373626,0 L0.224175824,0 L0.224175824,8.28099268 C0.224175824,8.38536264 0.308601879,8.46998309 0.41273206,8.46998309" id="Path" fill="#E93047"></path>
                            <polygon id="Fill-14" fill="#E93047" points="0.224175824 19.1689091 9.86373626 19.1689091 9.86373626 10.698926 0.224175824 10.698926"></polygon>
                            <polygon id="Path" fill="#E93047" points="0.224175824 19.1689091 9.86373626 19.1689091 9.86373626 10.698926 0.224175824 10.698926"></polygon>
                            <path d="M4.70769231,19.1689091 L6.05274725,19.1689091 L6.05274725,4.90751902 C6.05274725,4.53609235 5.75164645,4.23499155 5.38021978,4.23499155 L5.38021978,4.23499155 C5.00879311,4.23499155 4.70769231,4.53609235 4.70769231,4.90751902 L4.70769231,19.1689091 Z" id="Fill-15" fill="#E93047"></path>
                            <path d="M4.70769231,19.1689091 L6.05274725,19.1689091 L6.05274725,4.90751902 C6.05274725,4.53609235 5.75164645,4.23499155 5.38021978,4.23499155 L5.38021978,4.23499155 C5.00879311,4.23499155 4.70769231,4.53609235 4.70769231,4.90751902 L4.70769231,19.1689091 Z" id="Path" fill="#FFFFFF"></path>
                            <path d="M10.2062531,19.3918034 L6.15858206,19.3918034 C5.68874583,19.3918034 5.4328408,18.8507306 5.73487837,18.4958483 L6.33701925,17.7883724 C7.29980634,16.6571641 9.06502883,16.6571641 10.0278159,17.7883724 L10.6299568,18.4958483 C10.9319944,18.8507306 10.6760893,19.3918034 10.2062531,19.3918034" id="Fill-20" fill="#E93047"></path>
                            <path d="M10.2062531,19.3918034 L6.15858206,19.3918034 C5.68874583,19.3918034 5.4328408,18.8507306 5.73487837,18.4958483 L6.33701925,17.7883724 C7.29980634,16.6571641 9.06502883,16.6571641 10.0278159,17.7883724 L10.6299568,18.4958483 C10.9319944,18.8507306 10.6760893,19.3918034 10.2062531,19.3918034" id="Path" fill="#EFDADD"></path>
                            <path d="M4.6018575,19.3918034 L0.554186458,19.3918034 C0.0843502281,19.3918034 -0.171554808,18.8507306 0.130482769,18.4958483 L0.732623643,17.7883724 C1.69541073,16.6571641 3.46063322,16.6571641 4.42342031,17.7883724 L5.02556119,18.4958483 C5.32759876,18.8507306 5.07169373,19.3918034 4.6018575,19.3918034" id="Fill-21" fill="#E93047"></path>
                            <path d="M4.6018575,19.3918034 L0.554186458,19.3918034 C0.0843502281,19.3918034 -0.171554808,18.8507306 0.130482769,18.4958483 L0.732623643,17.7883724 C1.69541073,16.6571641 3.46063322,16.6571641 4.42342031,17.7883724 L5.02556119,18.4958483 C5.32759876,18.8507306 5.07169373,19.3918034 4.6018575,19.3918034" id="Path" fill="#EFDADD"></path>
                            <polygon id="Path" fill="#E71D36" points="0.448351648 0.891577168 10.0879121 0.891577168 10.0879121 0 0.448351648 0"></polygon>
                        </g>
                        <path d="M1.79999196,5.39438033 C1.49135354,5.84229752 0.448351648,5.75202783 0.448351648,5.75202783 C0.448351648,2.57530542 2.85719068,0 5.82882818,0 C8.80020892,0 11.2087912,2.57530542 11.2087912,5.75202783 C11.2087912,5.75202783 10.3809133,6.75760078 9.90983385,5.88477854 C8.58644564,3.43278748 11.4034782,3.37114371 5.82870919,3.37114371 C0.253940194,3.37114371 3.15163228,3.43278748 1.79999196,5.39438033 Z" id="Fill-58" fill="#E71D36"></path>
                    </g>
                    <g id="girl" transform="translate(405.758242, 430.151692)">
                        <g id="Group-43-Copy" transform="translate(0.000000, 11.761960)">
                            <g id="Group-25">
                                <path d="M9.60957552,15.5774002 C10.9592921,15.5774002 12.0535435,14.5237915 12.0535435,13.2242062 L12.0535435,2.85309068 C12.0535435,1.5532363 10.9592921,0.499627626 9.60957552,0.499627626 L2.85121027,0.499627626 C1.50149374,0.499627626 0.407242295,1.5532363 0.407242295,2.85309068 L0.407242295,13.2242062 C0.407242295,14.5237915 1.50149374,15.5774002 2.85121027,15.5774002 L9.60957552,15.5774002 Z" id="Fill-18" fill="#E71D36"></path>
                                <path d="M12.1042088,4.26732148 L12.0055445,12.8073378 C11.9982775,13.4478458 11.4264158,13.9664419 10.7349271,13.9597139 C10.0434385,13.9527168 9.4835954,13.4230866 9.49114196,12.7823096 L9.58924726,4.26732148 L12.1042088,4.26732148 Z" id="Fill-56-Copy" fill="#F9E5E7"></path>
                                <path d="M2.90392528,4.40188197 L2.80526097,12.9418983 C2.79799391,13.5824063 2.22613224,14.1010024 1.53464359,14.0942744 C0.843154933,14.0872773 0.283311857,13.5576471 0.290858418,12.9168701 L0.38896372,4.40188197 L2.90392528,4.40188197 Z" id="Fill-37" fill="#F9E5E7"></path>
                            </g>
                            <g id="Group-32" transform="translate(0.560440, 14.562427)">
                                <g id="Page-1-Copy-2">
                                    <path d="M0.451425691,13.1812878 C0.337533305,13.1812878 0.245192308,13.1139442 0.245192308,13.0308834 L0.245192308,0 L10.7884615,0 L10.7884615,13.0308834 C10.7884615,13.1139442 10.6961205,13.1812878 10.5822282,13.1812878 L0.451425691,13.1812878 Z" id="Fill-1" fill="#F23950"></path>
                                    <path d="M0.451425691,9.19062268 L10.5822282,9.19062268 C10.6961205,9.19062268 10.7884615,9.09880258 10.7884615,8.98555267 L10.7884615,0 L0.245192308,0 L0.245192308,8.98555267 C0.245192308,9.09880258 0.337533305,9.19062268 0.451425691,9.19062268" id="Fill-11" fill="#F23950"></path>
                                    <polygon id="Fill-14" fill="#F23950" points="0.245192308 20.7998303 10.7884615 20.7998303 10.7884615 11.6092076 0.245192308 11.6092076"></polygon>
                                    <path d="M5.14903846,20.7998303 L6.62019231,20.7998303 L6.62019231,5.33088826 C6.62019231,4.92464035 6.2908633,4.59531134 5.88461538,4.59531134 L5.88461538,4.59531134 C5.47836747,4.59531134 5.14903846,4.92464035 5.14903846,5.33088826 L5.14903846,20.7998303 Z" id="Fill-15" fill="#FFFFFF"></path>
                                    <path d="M11.1630893,21.0416888 L6.73594913,21.0416888 C6.22206575,21.0416888 5.94216962,20.4545807 6.27252322,20.0695044 L6.9311148,19.3018353 C7.98416318,18.0743821 9.91487528,18.0743821 10.9679237,19.3018353 L11.6265152,20.0695044 C11.9568688,20.4545807 11.6769727,21.0416888 11.1630893,21.0416888" id="Fill-20" fill="#EFDADD"></path>
                                    <path d="M5.03328164,21.0416888 L0.606141439,21.0416888 C0.092258062,21.0416888 -0.187638071,20.4545807 0.142715528,20.0695044 L0.80130711,19.3018353 C1.85435549,18.0743821 3.78506759,18.0743821 4.83811597,19.3018353 L5.49670755,20.0695044 C5.82706115,20.4545807 5.54716501,21.0416888 5.03328164,21.0416888" id="Fill-21" fill="#EFDADD"></path>
                                </g>
                                <path d="M0.451425691,13.1812878 C0.337533305,13.1812878 0.245192308,13.1139442 0.245192308,13.0308834 L0.245192308,0 L10.7884615,0 L10.7884615,13.0308834 C10.7884615,13.1139442 10.6961205,13.1812878 10.5822282,13.1812878 L0.451425691,13.1812878 Z" id="Fill-1" fill="#E93047"></path>
                                <path d="M0.451425691,13.1812878 C0.337533305,13.1812878 0.245192308,13.1139442 0.245192308,13.0308834 L0.245192308,0 L10.7884615,0 L10.7884615,13.0308834 C10.7884615,13.1139442 10.6961205,13.1812878 10.5822282,13.1812878 L0.451425691,13.1812878 Z" id="Path" fill="#E93047"></path>
                                <path d="M0.451425691,9.19062268 L10.5822282,9.19062268 C10.6961205,9.19062268 10.7884615,9.09880258 10.7884615,8.98555267 L10.7884615,0 L0.245192308,0 L0.245192308,8.98555267 C0.245192308,9.09880258 0.337533305,9.19062268 0.451425691,9.19062268" id="Fill-11" fill="#E93047"></path>
                                <path d="M0.451425691,9.19062268 L10.5822282,9.19062268 C10.6961205,9.19062268 10.7884615,9.09880258 10.7884615,8.98555267 L10.7884615,0 L0.245192308,0 L0.245192308,8.98555267 C0.245192308,9.09880258 0.337533305,9.19062268 0.451425691,9.19062268" id="Path" fill="#E93047"></path>
                                <polygon id="Fill-14" fill="#E93047" points="0.245192308 20.7998303 10.7884615 20.7998303 10.7884615 11.6092076 0.245192308 11.6092076"></polygon>
                                <polygon id="Path" fill="#E93047" points="0.245192308 20.7998303 10.7884615 20.7998303 10.7884615 11.6092076 0.245192308 11.6092076"></polygon>
                                <path d="M5.14903846,20.7998303 L6.62019231,20.7998303 L6.62019231,5.33088826 C6.62019231,4.92464035 6.2908633,4.59531134 5.88461538,4.59531134 L5.88461538,4.59531134 C5.47836747,4.59531134 5.14903846,4.92464035 5.14903846,5.33088826 L5.14903846,20.7998303 Z" id="Fill-15" fill="#E93047"></path>
                                <path d="M5.14903846,20.7998303 L6.62019231,20.7998303 L6.62019231,5.33088826 C6.62019231,4.92464035 6.2908633,4.59531134 5.88461538,4.59531134 L5.88461538,4.59531134 C5.47836747,4.59531134 5.14903846,4.92464035 5.14903846,5.33088826 L5.14903846,20.7998303 Z" id="Path" fill="#FFFFFF"></path>
                                <path d="M11.1630893,21.0416888 L6.73594913,21.0416888 C6.22206575,21.0416888 5.94216962,20.4545807 6.27252322,20.0695044 L6.9311148,19.3018353 C7.98416318,18.0743821 9.91487528,18.0743821 10.9679237,19.3018353 L11.6265152,20.0695044 C11.9568688,20.4545807 11.6769727,21.0416888 11.1630893,21.0416888" id="Fill-20" fill="#E93047"></path>
                                <path d="M11.1630893,21.0416888 L6.73594913,21.0416888 C6.22206575,21.0416888 5.94216962,20.4545807 6.27252322,20.0695044 L6.9311148,19.3018353 C7.98416318,18.0743821 9.91487528,18.0743821 10.9679237,19.3018353 L11.6265152,20.0695044 C11.9568688,20.4545807 11.6769727,21.0416888 11.1630893,21.0416888" id="Path" fill="#EFDADD"></path>
                                <path d="M5.03328164,21.0416888 L0.606141439,21.0416888 C0.092258062,21.0416888 -0.187638071,20.4545807 0.142715528,20.0695044 L0.80130711,19.3018353 C1.85435549,18.0743821 3.78506759,18.0743821 4.83811597,19.3018353 L5.49670755,20.0695044 C5.82706115,20.4545807 5.54716501,21.0416888 5.03328164,21.0416888" id="Fill-21" fill="#E93047"></path>
                                <path d="M5.03328164,21.0416888 L0.606141439,21.0416888 C0.092258062,21.0416888 -0.187638071,20.4545807 0.142715528,20.0695044 L0.80130711,19.3018353 C1.85435549,18.0743821 3.78506759,18.0743821 4.83811597,19.3018353 L5.49670755,20.0695044 C5.82706115,20.4545807 5.54716501,21.0416888 5.03328164,21.0416888" id="Path" fill="#EFDADD"></path>
                                <polygon id="Path" fill="#E71D36" points="0.490384615 0.967433966 11.0336538 0.967433966 11.0336538 0 0.490384615 0"></polygon>
                            </g>
                        </g>
                        <g id="Group-44" transform="translate(1.120879, 4.480747)" fill="#E71D36">
                            <polygon id="Fill-44" points="0 7.24615224 10.1993883 7.24615224 10.1993883 0.297549592 0 0.297549592"></polygon>
                        </g>
                        <g id="Group-45" transform="translate(4.483516, 8.961494)" fill="#EFDADD">
                            <path d="M1.8793605,0.0706425001 C2.73715301,0.0706425001 3.43255469,1.10998776 3.43255469,2.39208015 L3.43255469,4.35854722 C2.98479203,4.59429721 2.45206068,4.73154891 1.8793605,4.73154891 C1.30666031,4.73154891 0.77392896,4.59429721 0.325886797,4.35854722 L0.325886797,2.39208015 C0.325886797,1.10998776 1.02156798,0.0706425001 1.8793605,0.0706425001" id="Fill-30"></path>
                        </g>
                        <path d="M1.68131868,6.67539937 C1.68131868,9.43433155 3.88007696,11.6705187 6.59251894,11.6705187 C9.30470825,11.6705187 11.5034665,9.43433155 11.5034665,6.67539937 C11.5034665,3.91672419 9.30470825,1.68028005 6.59251894,1.68028005 C3.88007696,1.68028005 1.68131868,3.91672419 1.68131868,6.67539937" id="Fill-57" fill="#EFDADD"></path>
                        <path d="M5.41025174,3.75687663 C5.41025174,3.75687663 5.07394431,4.58314277 3.6089477,5.38550758 C3.02375761,5.7059909 1.12087912,5.38550758 1.12087912,5.38550758 C1.12087912,2.4112065 3.49145487,0 6.41588929,0 C9.34007104,0 11.7103941,2.4112065 11.7103941,5.38550758 C11.7103941,5.38550758 9.87169451,5.49242103 7.94506478,4.93266748 C6.85048642,4.6147542 5.41025174,3.75687663 5.41025174,3.75687663" id="Fill-58" fill="#E71D36"></path>
                        <path d="M5.73516484,9.55659277 C6.29665984,10.1746094 6.8230614,10.1746094 7.31436953,9.55659277" id="Path-3-Copy" stroke="#E71D36" stroke-width="0.5" stroke-linecap="round"></path>
                    </g>
                    <path d="M462.923077,439.113186 C462.474725,439.113186 462.175766,438.816035 462.175766,438.370396 L462.175766,430.200411 C458.887912,429.754772 456.197802,426.932277 456.197802,423.51583 C456.197802,418.316653 457.393465,404.947491 462.923077,404.947491 C468.452689,404.947491 469.648352,418.316653 469.648352,423.51583 C469.648352,426.932452 466.958242,429.754772 463.670388,430.200411 L463.670388,438.370396 C463.670388,438.816035 463.371429,439.113186 462.923077,439.113186 Z" id="Path-Copy" fill="#F295A0"></path>
                    <g id="Group-4" transform="translate(118.813187, 399.346558)" fill-rule="nonzero">
                        <g id="Group-5">
                            <g id="Group-49">
                                <path d="M160.138545,26.2422123 C160.21787,26.2422123 156.722466,21.0515441 152.523285,21.0515441 L129.677506,21.0515441 C128.789694,21.0891764 128.018649,21.0891764 127.139086,21.0891764 L129.746995,8.07487368 L129.746995,2.88420551 C129.746995,1.45093226 128.610418,0.288871421 127.208575,0.288871421 L7.90283988,0.288871421 C3.6969954,0.288871421 0.287580169,3.77472951 0.287580169,8.07487368 L0.287580169,39.2188827 C0.287580169,43.5190269 3.6969954,47.004885 7.90283988,47.004885 L139.768042,47.004885 L150.054037,47.004885 L157.599808,41.8142168 L157.599808,46.9906106 C159.072409,47.004885 160.207717,45.8428241 160.207717,44.4095509 L160.138545,26.2422123 Z" id="Shape" fill="#F9E5E7"></path>
                                <path d="M129.982329,7.796208 L129.911621,7.796208 L98.9163081,7.796208 C97.489878,7.796208 96.3333654,8.9284724 96.3333654,10.3249951 L96.3333654,17.9113562 C96.3333654,19.3078789 97.489878,20.4401433 98.9163081,20.4401433 L132.565271,20.4401433 C132.565271,20.3080142 129.982329,7.796208 129.982329,7.796208 Z" id="Shape" fill="#F295A0"></path>
                                <path d="M160.264389,29.5279718 L157.771068,29.5279718 C156.398717,29.5279718 155.288299,30.6602362 155.288299,32.0567588 C155.288299,33.4532815 156.398717,34.5855459 157.771068,34.5855459 L160.285803,34.5855459 L160.264389,29.5279718 Z" id="Shape" fill="#F295A0"></path>
                                <path d="M151.611385,20.4401433 L131.472067,20.4401433 C131.472067,23.2335047 133.709387,25.4977174 136.469572,25.4977174 L158.958341,25.4977174 C158.26931,22.029486 155.238948,20.4401433 151.611385,20.4401433 Z" id="Shape" fill="#EFDADD"></path>
                                <path d="M0.287580169,25.4977174 L138.938119,25.4977174 C141.026787,25.4977174 142.716452,24.365453 142.716452,22.9689303 C142.716452,21.5724077 141.026387,20.4401433 138.938119,20.4401433 L0.287580169,20.4401433 L0.287580169,25.4977174 Z" id="Shape" fill="#EFDADD"></path>
                                <path d="M155.288299,44.2347651 C153.902838,38.7454006 148.950817,34.6645705 143.005597,34.6645705 C135.989043,34.6645705 130.300777,40.3255764 130.300777,47.3085058 C130.300777,48.1746153 130.390029,49.0201785 130.556779,49.8372928 L140.395074,49.8372928 L140.401426,47.3085058 L150.69773,47.3085058 L155.288299,44.2347651 Z" id="Shape" fill="#EFDADD"></path>
                                <path d="M160.139365,39.4060462 L147.626136,39.4060462 C146.250331,39.4060462 145.137118,40.4526804 145.137118,41.7435878 C145.137118,43.0344951 146.250331,44.0811293 147.626136,44.0811293 L152.67231,44.0811293 C151.296505,44.0811293 150.183291,45.1277635 150.183291,46.4186708 C150.183291,47.7095781 151.296505,46.4186708 152.67231,46.4186708 L157.650346,46.4186708 C160.394489,46.4186708 162.628383,44.3218961 162.628383,41.7435878 C162.628383,40.4526804 161.514858,39.4060462 160.139365,39.4060462 Z" id="Shape" fill="#EFDADD"></path>
                                <ellipse id="Oval" fill="#F0818E" cx="142.091764" cy="47.1504566" rx="10.6196966" ry="10.1151482"></ellipse>
                            </g>
                        </g>
                    </g>
                </g>
            </g>
        </g>
    </g>
</svg>