<?xml version="1.0" encoding="UTF-8"?>
<svg width="14px" height="20px" viewBox="0 0 14 20" version="1.1" xmlns="http://www.w3.org/2000/svg" xmlns:xlink="http://www.w3.org/1999/xlink">
    <!-- Generator: Sketch 50 (54983) - http://www.bohemiancoding.com/sketch -->
    <title>location</title>
    <desc>Created with Sketch.</desc>
    <defs>
        <path d="M7,0 C3.13,0 0,3.13 0,7 C0,12.25 7,20 7,20 C7,20 14,12.25 14,7 C14,3.13 10.87,0 7,0 L7,0 Z M7,9.5 C5.62,9.5 4.5,8.38 4.5,7 C4.5,5.62 5.62,4.5 7,4.5 C8.38,4.5 9.5,5.62 9.5,7 C9.5,8.38 8.38,9.5 7,9.5 L7,9.5 Z" id="path-1"></path>
    </defs>
    <g id="Finals" stroke="none" stroke-width="1" fill="none" fill-rule="evenodd">
        <g id="Skool-Tales--Contact" transform="translate(-312.000000, -816.000000)">
            <g id="Contact-#8" transform="translate(249.000000, 468.000000)">
                <g id="Left-Content">
                    <g id="Group-4" transform="translate(57.000000, 82.000000)">
                        <g id="Contact" transform="translate(3.000000, 178.000000)">
                            <g id="Icons" transform="translate(0.000000, 5.000000)">
                                <g id="Location" transform="translate(3.000000, 83.000000)">
                                    <mask id="mask-2" fill="white">
                                        <use xlink:href="#path-1"></use>
                                    </mask>
                                    <use id="location" fill="#E71D36" xlink:href="#path-1"></use>
                                </g>
                            </g>
                        </g>
                    </g>
                </g>
            </g>
        </g>
    </g>
</svg>