<?xml version="1.0" encoding="UTF-8"?>
<svg width="20px" height="16px" viewBox="0 0 20 16" version="1.1" xmlns="http://www.w3.org/2000/svg" xmlns:xlink="http://www.w3.org/1999/xlink">
    <!-- Generator: Sketch 50 (54983) - http://www.bohemiancoding.com/sketch -->
    <title>Mask</title>
    <desc>Created with Sketch.</desc>
    <defs>
        <path d="M18,0 L2,0 C0.9,0 0.01,0.9 0.01,2 L0,14 C0,15.1 0.9,16 2,16 L18,16 C19.1,16 20,15.1 20,14 L20,2 C20,0.9 19.1,0 18,0 L18,0 Z M18,4 L10,9 L2,4 L2,2 L10,7 L18,2 L18,4 L18,4 Z" id="path-1"></path>
    </defs>
    <g id="Finals" stroke="none" stroke-width="1" fill="none" fill-rule="evenodd">
        <g id="Skool-Tales--Contact" transform="translate(-309.000000, -733.000000)">
            <g id="Contact-#8" transform="translate(249.000000, 468.000000)">
                <g id="Left-Content">
                    <g id="Group-4" transform="translate(57.000000, 82.000000)">
                        <g id="Contact" transform="translate(3.000000, 178.000000)">
                            <g id="Icons" transform="translate(0.000000, 5.000000)">
                                <g id="Email">
                                    <mask id="mask-2" fill="white">
                                        <use xlink:href="#path-1"></use>
                                    </mask>
                                    <use id="Mask" fill="#E71D36" xlink:href="#path-1"></use>
                                </g>
                            </g>
                        </g>
                    </g>
                </g>
            </g>
        </g>
    </g>
</svg>