<?xml version="1.0" encoding="UTF-8"?>
<svg width="487px" height="300px" viewBox="0 0 487 300" version="1.1" xmlns="http://www.w3.org/2000/svg" xmlns:xlink="http://www.w3.org/1999/xlink">
    <!-- Generator: Sketch 50 (54983) - http://www.bohemiancoding.com/sketch -->
    <title>Group 4</title>
    <desc>Created with Sketch.</desc>
    <defs>
        <path d="M373.349942,157.104102 C366.885374,163.608732 359.803667,169.499319 352.2,174.680685 L352.2,147.6 L373.349942,147.6 L373.349942,157.104102 Z" id="path-1"></path>
        <path d="M374.213347,156.481215 C370.659859,160.099788 366.916711,163.531482 363,166.760201 L363,147.6 L374.213347,147.6 L374.213347,156.481215 Z" id="path-3"></path>
        <path d="M373.349942,156.693534 C366.885213,163.196828 359.803514,169.086134 352.2,174.266298 L352.2,130.8 L373.349942,130.8 L373.349942,156.693534 Z" id="path-5"></path>
        <path d="M374.213347,156.071034 C370.659803,159.688808 366.916656,163.119725 363,166.347692 L363,130.8 L374.213347,130.8 L374.213347,156.071034 Z" id="path-7"></path>
        <path d="M274.2,199.222338 C281.395503,199.099623 288.46245,198.449132 295.363794,197.30791 L295.363794,156 L274.2,156 L274.2,199.222338 Z" id="path-9"></path>
        <path d="M274.2,199.272743 C281.839087,199.142479 289.333279,198.417359 296.638248,197.141714 L296.638248,153.6 L274.2,153.6 L274.2,199.272743 Z" id="path-11"></path>
    </defs>
    <g id="Finals" stroke="none" stroke-width="1" fill="none" fill-rule="evenodd">
        <g id="Skool-Tales--Landing" transform="translate(-798.000000, -1132.000000)">
            <g id="modul-one" transform="translate(153.000000, 1151.000000)">
                <g transform="translate(645.000000, 21.000000)" id="illustration-one">
                    <g>
                        <g id="Group-49">
                            <mask id="mask-2" fill="white">
                                <use xlink:href="#path-1"></use>
                            </mask>
                            <g id="Clip-7"></g>
                            <path d="M363.365348,147.600594 C357.814148,147.540594 353.222948,152.033394 353.165348,157.584594 L352.200548,247.622994 C352.142948,253.174194 356.635748,257.765394 362.186948,257.825394 C367.738148,257.882994 372.329348,253.390194 372.386948,247.838994 L373.349348,157.800594 C373.409348,152.249394 368.916548,147.660594 363.365348,147.600594" id="Fill-6" fill="#F2987E"></path>
                            <mask id="mask-4" fill="white">
                                <use xlink:href="#path-3"></use>
                            </mask>
                            <g id="Clip-10"></g>
                            <path d="M363.0432,257.8248 C363.0288,257.8248 363.0144,257.8224 363,257.8224 L364.1784,147.6024 C364.1928,147.6024 364.2072,147.6 364.2216,147.6 C369.7728,147.66 374.2704,151.9632 374.2128,157.1616 L373.2384,248.4816 C373.1808,253.68 368.5944,257.8848 363.0432,257.8248" id="Fill-9" fill="#F2987E"></path>
                            <mask id="mask-6" fill="white">
                                <use xlink:href="#path-5"></use>
                            </mask>
                            <g id="Clip-13"></g>
                            <path d="M363.365348,130.800594 C357.814148,130.740594 353.222948,135.233394 353.165348,140.784594 L352.200548,230.822994 C352.142948,236.374194 356.635748,240.965394 362.186948,241.025394 C367.738148,241.082994 372.329348,236.590194 372.386948,231.038994 L373.349348,141.000594 C373.409348,135.449394 368.916548,130.860594 363.365348,130.800594" id="Fill-12" fill="#F2987E"></path>
                            <mask id="mask-8" fill="white">
                                <use xlink:href="#path-7"></use>
                            </mask>
                            <g id="Clip-16"></g>
                            <path d="M363.0432,241.0248 C363.0288,241.0248 363.0144,241.0224 363,241.0224 L364.1784,130.8024 C364.1928,130.8024 364.2072,130.8 364.2216,130.8 C369.7728,130.86 374.2704,135.1632 374.2128,140.3616 L373.2384,231.6816 C373.1808,236.88 368.5944,241.0848 363.0432,241.0248" id="Fill-15" fill="#F2987E"></path>
                            <path d="M353.2176,253.2624 C364.8072,253.2624 374.2032,243.8664 374.2032,232.2768 L374.2032,139.788 C374.2032,128.196 364.8072,118.8 353.2176,118.8 L295.1856,118.8 C283.596,118.8 274.2,128.196 274.2,139.788 L274.2,232.2768 C274.2,243.8664 283.596,253.2624 295.1856,253.2624 L353.2176,253.2624 Z" id="Fill-18" fill="#F295A0"></path>
                            <path d="M325.3392,90 C332.7048,90 338.676,99.2688 338.676,110.7024 L338.676,128.2392 C334.8312,130.3416 330.2568,131.5656 325.3392,131.5656 C320.4216,131.5656 315.8472,130.3416 312,128.2392 L312,110.7024 C312,99.2688 317.9736,90 325.3392,90" id="Fill-30" fill="#EFDADD"></path>
                            <mask id="mask-10" fill="white">
                                <use xlink:href="#path-9"></use>
                            </mask>
                            <g id="Clip-35"></g>
                            <path d="M295.363794,156 L294.384594,247.488 C294.326994,253.0392 289.735794,257.532 284.184594,257.4744 C278.633394,257.4144 274.140594,252.8232 274.200594,247.272 L275.174994,156 L295.363794,156 Z" id="Fill-34" fill="#F2987E"></path>
                            <mask id="mask-12" fill="white">
                                <use xlink:href="#path-11"></use>
                            </mask>
                            <g id="Clip-38"></g>
                            <path d="M276,62.5216 C276,89.872 298.1688,112.0432 325.5216,112.0432 C352.8696,112.0432 375.0432,89.872 375.0432,62.5216 C375.0432,35.1712 352.8696,13 325.5216,13 C298.1688,13 276,35.1712 276,62.5216" id="Fill-40" fill="#F9E5E7"></path>
                            <polygon id="Fill-44" fill="#F0818E" points="120.8976 109.9776 217.776 109.9776 217.776 45.0888 120.8976 45.0888"></polygon>
                            <path d="M207.1968,146.52552 C201.6456,146.46552 197.0544,150.95832 196.9968,156.50952 L196.032,246.54792 C195.9744,252.09912 200.4672,256.69032 206.0184,256.75032 C211.5696,256.80792 216.1608,252.31512 216.2184,246.76392 L217.1808,156.72552 C217.2408,151.17432 212.748,146.58552 207.1968,146.52552" id="Fill-46" fill="#F2987E"></path>
                            <path d="M206.62056,256.7556 C206.60616,256.7556 206.59176,256.7532 206.57736,256.7532 L207.75576,146.5332 C207.77016,146.5332 207.78456,146.5308 207.79896,146.5308 C213.35016,146.5908 217.84776,150.894 217.79016,156.0924 L216.81576,247.4124 C216.75816,252.6108 212.17176,256.8156 206.62056,256.7556" id="Fill-47" fill="#F2987E"></path>
                            <path d="M207.18504,130.14792 C201.63384,130.08792 197.04264,134.58072 196.98504,140.13192 L196.02024,230.17032 C195.96264,235.72152 200.45544,240.31272 206.00664,240.37272 C211.55784,240.43032 216.14904,235.93752 216.20664,230.38632 L217.16904,140.34792 C217.22904,134.79672 212.73624,130.20792 207.18504,130.14792" id="Fill-48" fill="#F2987E"></path>
                            <path d="M206.6088,240.378 C206.5944,240.378 206.58,240.3756 206.5656,240.3756 L207.744,130.1556 C207.7584,130.1556 207.7728,130.1532 207.7872,130.1532 C213.3384,130.2132 217.836,134.5164 217.7784,139.7148 L216.804,231.0348 C216.7464,236.2332 212.16,240.438 206.6088,240.378" id="Fill-49" fill="#F2987E"></path>
                            <path d="M196.93344,251.9472 C208.52304,251.9472 217.91904,242.5512 217.91904,230.9616 L217.91904,138.4728 C217.91904,126.8808 208.52304,117.4848 196.93344,117.4848 L138.90144,117.4848 C127.31184,117.4848 117.91584,126.8808 117.91584,138.4728 L117.91584,230.9616 C117.91584,242.5512 127.31184,251.9472 138.90144,251.9472 L196.93344,251.9472 Z" id="Fill-50" fill="#F295A0"></path>
                            <path d="M154.6008,250.37544 L185.6712,250.37544 L185.6712,143.47464 C185.6712,134.93064 178.68,127.93944 170.136,127.93944 C161.592,127.93944 154.6008,134.93064 154.6008,143.47464 L154.6008,250.37544 Z" id="Fill-52" fill="#5D5D5D"></path>
                            <path d="M150.5364,243.1956 L189.7356,243.1956 L189.7356,136.2948 C189.7356,127.7508 180.915326,120.7596 170.136,120.7596 C159.356674,120.7596 150.5364,127.7508 150.5364,136.2948 L150.5364,243.1956 Z" id="Fill-53" fill="#F295A0"></path>
                            <path d="M170.25,88.60104 C177.6156,88.60104 183.5868,97.86984 183.5868,109.30344 L183.5868,126.84024 C179.742,128.94264 175.1676,130.16904 170.25,130.16904 C165.3324,130.16904 160.758,128.94264 156.9108,126.84024 L156.9108,109.30344 C156.9108,97.86984 162.8844,88.60104 170.25,88.60104" id="Fill-54" fill="#EFDADD"></path>
                            <path d="M139.438248,152.4 L138.591048,228.5592 C138.528648,234.2712 133.618248,238.896 127.680648,238.836 C121.743048,238.7736 116.935848,234.0504 117.000648,228.336 L117.843048,152.4 L139.438248,152.4 Z" id="Fill-56" fill="#F9E5E7"></path>
                            <path d="M374.638248,152.4 L373.791048,228.5592 C373.728648,234.2712 368.818248,238.896 362.880648,238.836 C356.943048,238.7736 352.135848,234.0504 352.200648,228.336 L353.043048,152.4 L374.638248,152.4 Z" id="Fill-56-Copy" fill="#F9E5E7"></path>
                            <path d="M123.5712,59.09976 C123.5712,84.86376 144.456,105.74616 170.22,105.74616 C195.9816,105.74616 216.8664,84.86376 216.8664,59.09976 C216.8664,33.33816 195.9816,12.45336 170.22,12.45336 C144.456,12.45336 123.5712,33.33816 123.5712,59.09976" id="Fill-57" fill="#F9E5E7"></path>
                            <path d="M158.9424,35.0832 C158.9424,35.0832 155.748,42.7992 141.8328,50.292 C136.2744,53.2848 118.2,50.292 118.2,50.292 C118.2,22.5168 140.7168,0 168.4944,0 C196.2696,0 218.784,22.5168 218.784,50.292 C218.784,50.292 201.3192,51.2904 183.0192,46.0632 C172.6224,43.0944 158.9424,35.0832 158.9424,35.0832" id="Fill-58" fill="#F0818E"></path>
                            <path d="M296.638248,153.6 L295.791048,229.7592 C295.728648,235.4712 290.818248,240.096 284.880648,240.036 C278.943048,239.9736 274.135848,235.2504 274.200648,229.536 L275.043048,153.6 L296.638248,153.6 Z" id="Fill-37" fill="#F9E5E7"></path>
                            <path d="M162.6,230.2 L162.6,140.2 C162.6,134.2348 167.4384,129.4 173.4,129.4 L303,129.4 C308.9616,129.4 313.8,134.2348 313.8,140.2 L313.8,230.2" id="Stroke-2" fill="#E71D36"></path>
                            <circle id="Oval-2" fill="#E93047" cx="237" cy="185" r="15"></circle>
                            <path d="M256.2,230.2 L220.2,230.2 L155.4,230.2 L155.4,237.4 C155.4,241.378 158.6256,244.6 162.6,244.6 L313.8,244.6 C317.778,244.6 321,241.378 321,237.4 L321,230.2 Z" id="Stroke-4" fill="#EFDADD"></path>
                            <path d="M77.611593,169.026854 C77.4782581,168.166292 76.7355372,167.529719 75.8625233,167.529719 L54.6257744,167.529719 L54.6257744,165.765112 C54.6257744,164.790281 53.8338767,164 52.8559186,164 C51.8774535,164 51.0860628,164.790281 51.0860628,165.765112 L51.0860628,167.529719 L29.848807,167.529719 C28.9763,167.529719 28.2330721,168.166292 28.0997372,169.026854 L21.0208209,214.917247 C20.9417326,215.425393 21.0902767,215.943652 21.4269093,216.335 C21.7625279,216.725337 22.2532814,216.950337 22.7698907,216.950337 L51.0860628,216.950337 L51.0860628,245.190112 L42.2372907,245.190112 C41.2593326,245.190112 40.4674349,245.980899 40.4674349,246.955225 C40.4674349,247.930056 41.2593326,248.720337 42.2372907,248.720337 L63.4745465,248.720337 C64.4525046,248.720337 65.2438953,247.930056 65.2438953,246.955225 C65.2438953,245.980899 64.4525046,245.190112 63.4745465,245.190112 L54.6257744,245.190112 L54.6257744,216.950337 L58.1649791,216.950337 L61.7046907,216.950337 L82.9414395,216.950337 C83.4585558,216.950337 83.9493093,216.725337 84.2844209,216.335 C84.6215605,215.943652 84.7701046,215.425393 84.6905093,214.917247 L77.611593,169.026854 Z" id="Fill-36" fill="#EAC7CD"></path>
                            <rect id="Rectangle-4" fill="#E9D0D4" x="0" y="244" width="488" height="15" rx="7.5"></rect>
                            <path d="M455,206 L455,236 C455,240.4 451.4,244 447,244 L429,244 C424.6,244 421,240.4 421,236 L421,206" id="Stroke-1" fill="#EAC7CD"></path>
                            <path d="M455,211 C461.628,211 467,216.373 467,223 C467,229.627 461.628,235 455,235" id="Stroke-3" fill="#EAC7CD"></path>
                            <path d="M455,216 C458.865,216 462,219.133 462,223 C462,226.865 458.865,230 455,230" id="Stroke-7" fill="#FFFFFF"></path>
                            <path d="M433,208 L433,230" id="Stroke-9" fill="#EAC7CD"></path>
                            <path d="M163,88 C168.333333,93.3333333 173.333333,93.3333333 178,88" id="Path-3" stroke="#F0818E" stroke-width="4" stroke-linecap="round"></path>
                            <path d="M163,88 C168.333333,93.3333333 173.333333,93.3333333 178,88" id="Path-3-Copy" stroke="#F0818E" stroke-width="4" stroke-linecap="round"></path>
                            <path d="M318,88 C323.333333,93.3333333 328.333333,93.3333333 333,88" id="Path-3-Copy-2" stroke="#F0818E" stroke-width="4" stroke-linecap="round"></path>
                        </g>
                        <g id="Group-14" transform="translate(352.200000, 130.800000)"></g>
                        <g id="Group-20" transform="translate(274.200000, 118.800000)"></g>
                    </g>
                </g>
            </g>
            <g id="Group-4" transform="translate(785.000000, 1150.000000)"></g>
        </g>
    </g>
</svg>