<?xml version="1.0" encoding="UTF-8"?>
<svg width="515px" height="290px" viewBox="0 0 515 290" version="1.1" xmlns="http://www.w3.org/2000/svg" xmlns:xlink="http://www.w3.org/1999/xlink">
    <!-- Generator: Sketch 50 (54983) - http://www.bohemiancoding.com/sketch -->
    <title>Skool Tales- Landing</title>
    <desc>Created with Sketch.</desc>
    <defs>
        <rect id="path-1" x="0.948965517" y="0.737306122" width="180.788966" height="320.491102"></rect>
    </defs>
    <g id="Finals" stroke="none" stroke-width="1" fill="none" fill-rule="evenodd">
        <g id="Skool-Tales--Landing" transform="translate(-141.000000, -1573.000000)">
            <g id="modul-two" transform="translate(153.000000, 1552.000000)">
                <g id="illustration-2" transform="translate(0.000000, 28.000000)">
                    <g id="Group-51" transform="translate(0.000000, 51.000000)">
                        <g id="Iphone-white" transform="translate(248.500000, 106.000000) rotate(-90.000000) translate(-248.500000, -106.000000) translate(142.500000, -115.500000)">
                            <g id="Buttons" transform="translate(0.000000, 61.695510)" fill="#E3E3E3">
                                <rect id="Rectangle-5" x="0" y="0.195428571" width="1.69489655" height="21.1591837"></rect>
                                <rect id="Rectangle-5" x="0" y="78.9075918" width="1.69489655" height="15.7988571"></rect>
                                <rect id="Rectangle-5" x="0" y="42.2316735" width="1.69489655" height="15.7988571"></rect>
                            </g>
                            <rect id="Body" fill="#F295A0" x="1.41241379" y="0.670367347" width="210.449655" height="441.521633" rx="28.224"></rect>
                            <g id="Group-50" transform="translate(16.000000, 62.000000)">
                                <mask id="mask-2" fill="white">
                                    <use xlink:href="#path-1"></use>
                                </mask>
                                <use id="Mask" fill="#FBEFF0" xlink:href="#path-1"></use>
                                <g mask="url(#mask-2)">
                                    <g transform="translate(57.789062, 176.406250) rotate(-90.000000) translate(-57.789062, -176.406250) translate(-97.710938, 45.906250)">
                                        <path d="M220.922999,9.09494702e-13 C221.171264,0.412617028 221.440941,0.814238651 221.664321,1.2401659 C226.269659,10.0370683 232.283567,17.7737823 239.411483,24.6493824 C240.254657,25.4624637 241.41554,26.2662856 242.521446,26.4242722 C245.252936,26.8148984 248.037667,26.8270513 251.414414,27.0284408 C251.960712,26.5863098 253.063724,25.8102657 254.030741,24.8912813 C259.06085,20.1123312 264.19744,15.4334972 269.012848,10.4450557 C272.139015,7.2066197 274.778491,3.49769609 277.636139,9.09494702e-13 L290.946366,9.09494702e-13 C290.37692,0.889470367 289.858978,1.8171353 289.229347,2.66204534 C280.377467,14.5469204 270.171995,25.1459118 258.813742,34.6511497 C255.597876,37.3421304 255.642436,38.8583388 259.079947,41.3971198 C274.897705,53.0788692 256.126813,44.8126398 255.074147,44.0771051 C254.360025,44.9225938 253.77669,45.6129895 253.041155,46.4833626 C254.122177,47.3670459 254.971138,48.1286223 255.886071,48.799342 C267.311454,57.1737894 269.068404,64.1466121 250.712444,50.4011989 C249.402833,49.4208717 248.120422,49.0632317 246.457801,49.1239958 C244.57643,49.1928618 242.504085,49.0765419 240.823524,48.3381137 C238.681156,47.3977173 237.243652,47.9515384 235.57698,49.1841812 C223.895809,57.8213609 216.341966,69.5204714 210.614518,82.5974798 C210.048544,83.8897292 210.100049,85.0129966 211.417183,86.1061713 C212.487788,86.1061713 213.727375,86.1281621 214.965805,86.1003843 C216.59949,86.0645045 218.235491,85.8978373 219.865704,85.9470273 C226.494776,86.1466807 231.963543,89.1333798 236.570039,93.5905697 C241.270864,98.1403524 245.672498,103.003793 250.116377,107.8111 C251.372747,109.170479 252.486755,110.4309 254.453775,110.879975 C256.573573,111.363773 258.24256,113.003825 258.296958,115.117257 C258.379713,118.335439 260.242566,120.444241 261.92197,122.762536 C267.669673,130.696009 272.381493,139.138744 275.162173,148.616204 C276.693428,153.835549 276.788336,158.855241 274.349671,163.790441 C272.133228,168.275988 272.661008,172.628432 275.173747,176.740135 C277.280235,180.187483 279.703275,183.440387 281.913352,186.82755 C284.121692,190.21182 286.435935,193.549215 288.35145,197.097837 C291.537803,203.001791 292.428431,209.271486 290.533749,215.840951 C289.572519,219.170822 288.643697,222.52037 287.932467,225.909848 C287.160474,229.588679 286.663945,233.325959 287.591031,237.07655 C287.938255,238.481068 288.254806,239.843919 289.883862,240.483389 C292.605514,241.551101 293.923227,243.674371 293.848574,246.584102 C293.808643,248.158181 294.594525,249.099735 295.875201,249.785501 C299.221855,251.576016 302.675569,252.994423 306.571415,252.894307 L306.571415,258.102657 C301.080657,258.229393 296.287818,256.017002 291.510604,253.686555 C290.25134,253.07197 288.867077,252.57139 287.489758,252.375787 C285.114172,252.03898 283.422615,250.996732 282.170875,248.90529 C281.468327,247.731097 280.418555,246.582366 279.246098,245.906438 C275.832314,243.937103 272.286007,242.196357 268.777315,240.393111 C255.755863,233.702696 242.756979,226.975824 231.028355,218.096166 C230.778354,217.90693 230.417821,217.863527 229.757518,217.6251 C234.294569,231.987992 237.876756,246.135606 237.126753,260.996184 L231.918404,260.996184 C231.855904,257.527424 232.015048,254.037251 231.691551,250.592795 C230.401038,236.851433 226.640031,223.720026 221.515015,210.953204 C221.160847,210.071836 220.714665,209.180051 220.118599,208.450882 C216.88595,204.497166 213.552027,200.625626 210.337318,196.658021 C208.638817,194.561371 206.91659,192.723981 203.861025,193.245394 C203.417736,193.321205 202.843082,193.214144 202.462872,192.977454 C200.476755,191.737288 198.816449,192.641226 197.083805,193.604192 C186.948935,199.240205 177.323905,205.660942 168.135798,212.71189 C163.40025,216.345582 158.964473,220.370479 154.399644,224.226394 C152.959246,225.442833 152.07672,226.818994 151.933779,228.883237 C151.837714,230.268079 151.021161,232.320748 149.959815,232.787763 C146.720222,234.213693 145.389199,236.896572 144.057019,239.764637 C143.698221,240.537787 143.080743,241.194618 142.558172,241.88675 C139.029225,246.560954 134.469026,250.128674 129.878734,253.659356 C126.676178,256.123484 123.445843,258.551732 120.228241,260.996184 L110.390247,260.996184 C115.73575,257.209714 121.141438,253.504263 126.408816,249.61189 C131.061608,246.1738 135.588242,242.547631 138.998554,237.777941 C140.616036,235.515202 141.482937,233.266931 140.290803,230.272709 C138.683738,226.236817 141.585368,222.170253 145.889779,222.312615 C148.20518,222.389582 149.723703,221.636108 151.131694,220.028464 C151.889219,219.163299 152.794893,218.423135 153.664688,217.661558 C166.551881,206.380273 180.591855,196.748299 195.535189,188.409152 C196.338432,187.961234 197.101166,187.440978 198.335545,186.671878 C196.562391,185.67419 195.281716,184.86053 193.924651,184.204857 C182.819871,178.839099 170.934417,177.363979 158.786231,177.181108 C157.182638,177.156803 156.087728,177.780647 155.144438,179.063058 C153.351608,181.499987 150.831924,182.387722 147.830757,182.415499 C146.252627,182.429967 144.555863,182.695593 143.125303,183.329275 C135.264746,186.810768 127.213216,189.723971 118.896639,191.893538 C101.037787,196.553275 82.9821755,197.957215 64.7847808,194.40512 C58.4786269,193.174214 52.3588161,190.987285 46.1539357,189.236701 C46.1539357,185.378472 46.1539357,181.520821 46.1539357,177.662591 C46.6961827,177.854721 47.2569484,178.006342 47.778362,178.244769 C58.1765426,183.000571 69.1545861,185.250578 80.520941,185.747686 C98.4307191,186.530674 115.578921,182.995941 132.187769,176.490712 C132.958605,176.188628 133.686037,175.774854 134.482336,175.390015 C133.170411,174.56073 132.337075,174.321724 131.496216,174.117441 C123.558691,172.18688 116.286678,168.907355 110.912239,162.584419 C107.877508,159.014385 105.009443,155.137058 102.912793,150.972114 C98.7617386,142.725561 94.9717963,134.277039 91.4526881,125.739397 C87.5759399,116.33196 85.0510477,106.553573 85.4329934,96.2283094 C85.4486184,95.8156923 85.2240807,95.393816 85.0464181,94.7352492 C84.3566011,95.2676582 83.8762755,95.5708999 83.4769687,95.9574752 C77.7819278,101.475432 71.6679041,106.431466 64.7483224,110.375923 C63.7853564,110.925114 63.0851227,112.13866 62.5457692,113.190168 C60.9815282,116.239946 58.0660099,117.74921 54.8761851,116.531613 C52.9027993,115.778139 51.1713124,115.925709 49.2772093,116.462747 C48.2754701,116.746892 47.1973417,116.761938 46.1539357,116.898513 C46.1539357,115.162396 46.1539357,113.42628 46.1539357,111.690163 C48.6892445,111.467362 50.5497827,110.648493 51.5902952,107.897906 C52.6533772,105.089448 55.9606792,103.914097 58.9277024,105.155421 C61.0503942,106.043155 62.5885934,105.49107 64.2899876,104.437826 C71.1372312,100.198808 77.2512549,95.0720558 82.596179,89.0697222 C85.9237356,85.3330208 88.799902,81.1779152 92.2669267,77.5853114 C98.548775,71.0766106 101.54647,63.2947576 102.112444,54.4480865 C102.383278,50.2165918 102.004226,46.022713 100.808041,41.9590429 C98.5707658,41.1818414 96.5018936,40.2784821 95.8734194,38.0400492 C95.2750379,35.9092555 93.8334825,34.9821693 92.0279213,34.1245277 C80.1974446,28.5058759 68.3582873,22.9028492 56.6041997,17.1273682 C52.9890264,15.351321 49.6302197,13.0538602 46.1539357,10.9954047 L46.1539357,4.62964407 C61.8935681,15.4491223 79.7518414,22.0614114 96.6540932,30.4914145 C96.9642793,30.0174547 97.124002,29.8733571 97.1546734,29.7061112 C97.2241181,29.3305313 97.257683,28.9427986 97.2565256,28.5596956 C97.2397431,20.9300421 99.7293342,14.1557154 104.501919,8.2783823 C106.862458,5.37212324 109.573694,2.75058728 112.126364,9.09494702e-13 L120.228241,9.09494702e-13 C118.298837,1.73727394 116.344548,3.44792742 114.445237,5.21760887 C109.955639,9.39933487 106.07947,14.0353447 103.978769,19.9138353 C102.897747,22.9381502 102.329458,26.0342247 103.235132,29.1059936 C104.706202,30.5162989 106.589888,31.8797291 107.043593,33.6175817 C107.664544,35.9914317 109.043021,37.1251158 110.895457,38.2501193 C121.489819,44.6830097 130.720172,52.5771316 137.490447,63.1263543 C138.037903,63.9793662 139.205731,64.5632801 140.208048,64.9706887 C143.2966,66.2276371 145.131675,68.5494036 144.39614,71.6842513 C143.769981,74.3520837 144.746257,76.1466495 146.191863,78.0014007 C147.198811,79.2942288 148.178559,80.6159922 149.274628,81.830695 C154.973719,88.1472657 161.740523,92.3532973 170.524115,92.7514467 C177.849948,93.0836236 184.616752,91.0112792 191.289805,88.3503913 C193.301385,87.5477267 195.104632,86.6744601 195.964009,84.4221383 C196.315284,83.5008391 197.176397,82.6125262 198.035775,82.0795384 C199.7146,81.0378685 200.510899,79.4909887 201.262058,77.7878583 C208.15502,62.1576013 217.558984,48.506517 232.019099,38.8369267 C234.012739,37.5035892 234.011582,36.7177071 232.306715,34.9393451 C230.906248,33.4786924 229.425919,32.0932714 228.032396,30.6262529 C219.457717,21.598447 212.401561,11.5538555 207.612773,9.09494702e-13 L212.242417,9.09494702e-13 C217.90505,11.8038563 225.323476,22.303889 235.208345,31.4306536 C235.977444,30.3866688 236.50696,29.6673379 237.043999,28.9387477 C234.212393,25.7772795 231.502893,22.9074789 228.969321,19.8895296 C223.875555,13.8223811 219.374962,7.35824054 216.293355,9.09494702e-13 L220.922999,9.09494702e-13 Z" id="Fill-1" stroke="none" fill="#EED9DC" fill-rule="evenodd"></path>
                                        <path d="M55.0185547,108.660156 C38.9959372,119.034922 19.1337211,118.905499 0.763671875,118.876953" id="Path-4" stroke="#EED9DC" stroke-width="5" fill="none" transform="translate(27.891113, 113.770527) rotate(4.000000) translate(-27.891113, -113.770527) "></path>
                                        <g id="Group-8" stroke="none" stroke-width="1" fill="none" fill-rule="evenodd" transform="translate(9.153936, 25.463042)">
                                            <path d="M243.788666,0.374653946 C243.173502,0.872919389 242.605792,1.28611512 242.260883,1.56505118 C238.884137,1.36424037 236.098827,1.35150884 233.367916,0.961461332 C232.86097,0.888544438 232.345343,0.672687283 231.852286,0.389700289 C230.233647,2.52165138 228.337807,4.4672593 226.148564,6.21437123 C224.999255,7.19932801 223.81233,8.09400672 222.59647,8.91634725 C222.782813,9.10211172 222.970893,9.28671878 223.152606,9.47653418 C224.857472,11.2543175 224.859209,12.0407783 222.864989,13.3741158 C208.404875,23.0437061 199.00091,36.6942117 192.107949,52.3250474 C191.356789,54.0281778 185.796587,69.7828565 182.883962,74.5537047 C180.801201,79.8754806 177.47538,84.3592909 172.907658,88.0045569 C164.367122,95.3257603 153.894867,98.0103751 142.901198,98.0103751 C144.731644,103.722198 145.55167,109.93576 145.426669,115.935778 C145.275627,121.642972 143.743794,126.881993 140.831747,131.652841 C138.748408,136.974617 125.067809,149.610073 125.328227,149.927204 C124.532507,150.312043 123.805074,150.725239 123.03366,151.027323 C106.42539,157.532551 89.2771885,161.067863 71.3674104,160.284296 C60.0004768,159.787188 51.2334903,158.550878 40.8353097,153.794498 C40.3144748,153.556071 1.2945614,138.422538 0.752314335,138.230987 C0.210067273,138.039435 0.752314335,151.027323 0.752314335,151.027323 C0.752314335,151.027323 49.3245176,167.710824 55.6306715,168.942309 C73.8280662,172.494404 91.8842568,171.089885 109.743109,166.430727 C118.059686,164.26116 126.110637,161.347378 133.971194,157.865886 C135.401754,157.232782 137.099097,156.966578 138.676648,156.95211 C141.677815,156.924332 144.197499,156.037176 145.990328,153.600248 C146.882692,152.386702 153.236879,147.004741 155.722998,145.020938 C157.677865,143.345007 159.738635,141.923128 161.879267,140.709582 C163.322558,139.777866 164.808674,138.954369 166.331827,138.230987 C169.636814,135.697414 173.203376,133.70551 177.032671,132.260482 C178.679666,131.542308 180.390899,130.957237 182.172154,130.518578 C182.360233,130.40168 182.543683,130.278994 182.734656,130.166147 C182.948198,130.011632 183.169842,129.866956 183.386857,129.716493 C184.04716,127.574125 184.432578,125.770878 184.839408,123.985572 C184.982348,123.358834 185.138599,122.737304 185.327835,122.122719 C185.726563,120.829891 186.250292,119.589146 186.844622,118.375022 C188.818008,112.630791 191.826698,107.585058 195.861433,103.231456 C197.075557,101.773697 198.067458,100.657953 199.059938,99.5427873 C198.54489,97.9444027 198.116648,96.3043513 197.782735,94.6185821 C197.602758,91.8234345 197.42278,89.0282869 197.242224,86.233718 C196.818033,83.2765329 196.645579,80.2886763 196.706343,77.3517459 C196.857964,71.6445521 200.956356,58.2851355 201.460987,57.1340902 C207.187857,44.0576606 214.7417,32.35855 226.42345,23.7207916 C228.089543,22.4887275 229.527626,21.9349064 231.669415,22.8753028 C233.043841,23.4788927 234.678684,23.6634997 236.25855,23.6744951 C237.242928,22.6617605 238.303695,21.7005306 239.442587,20.791963 C242.219795,18.2352421 245.278832,16.2618563 248.604653,14.8428704 C246.559508,12.909994 246.932194,11.4707534 249.659633,9.18833884 C250.27364,8.67444835 250.870864,8.14493281 251.477926,7.62467656 C249.100604,5.79191621 246.894578,3.76702564 244.906725,1.64780607 C244.518413,1.23403163 244.151514,0.80578955 243.788666,0.374653946 Z" id="Fill-6" fill="#E71D36"></path>
                                        </g>
                                        <path d="M207.695251,9.09494702e-13 C212.484039,11.5538555 219.540195,21.598447 228.114875,30.6262529 C229.508398,32.0932714 230.988726,33.4786924 232.389194,34.9393451 C234.09406,36.7177071 234.095218,37.5035892 232.101577,38.8369267 C217.641463,48.506517 208.237498,62.1576013 201.344537,77.7878583 C200.593377,79.4909887 199.797078,81.0378685 198.118253,82.0795384 C197.258876,82.6125262 196.397762,83.5008391 196.046488,84.4221383 C195.18711,86.6744601 193.383864,87.5477267 191.372283,88.3503913 C184.69923,91.0112792 177.932427,93.0836236 170.606594,92.7514467 C161.823001,92.3532973 155.056198,88.1472657 149.357106,81.830695 C148.261038,80.6159922 147.281289,79.2942288 146.274342,78.0014007 C144.828735,76.1466495 143.852459,74.3520837 144.478619,71.6842513 C145.214153,68.5494036 143.379078,66.2276371 140.290527,64.9706887 C139.288209,64.5632801 138.120381,63.9793662 137.572926,63.1263543 C130.80265,52.5771316 121.572297,44.6830097 110.977935,38.2501193 C109.125499,37.1251158 107.747023,35.9914317 107.126072,33.6175817 C106.672366,31.8797291 104.78868,30.5162989 103.317611,29.1059936 C102.411936,26.0342247 102.980225,22.9381502 104.061247,19.9138353 C106.161948,14.0353447 110.038118,9.39933487 114.527715,5.21760887 C116.427026,3.44792742 118.381315,1.73727394 120.310719,9.09494702e-13 L207.695251,9.09494702e-13 Z" id="Fill-9" stroke="none" fill="#FBEFF0" fill-rule="evenodd"></path>
                                        <path d="M46.1539357,189.140162 C52.3588161,190.890746 58.4786269,193.077675 64.7847808,194.308581 C82.9821755,197.860676 101.037787,196.456736 118.896639,191.796999 C127.213216,189.627432 135.264746,186.714229 143.125303,183.232736 C144.555863,182.599054 146.252627,182.333428 147.830757,182.31896 C150.831924,182.291183 153.351608,181.403448 155.144438,178.966519 C156.087728,177.684108 157.182638,177.060264 158.786231,177.084569 C170.934417,177.26744 182.819871,178.74256 193.924651,184.108318 C195.281716,184.763991 196.562391,185.577651 198.335545,186.575339 C197.101166,187.344439 196.338432,187.864695 195.535189,188.312613 C180.591855,196.65176 166.551881,206.283734 153.664688,217.565019 C152.794893,218.326596 151.889219,219.06676 151.131694,219.931925 C149.723703,221.539569 148.20518,222.293043 145.889779,222.216076 C141.585368,222.073714 138.683738,226.140278 140.290803,230.17617 C141.482937,233.170392 140.616036,235.418663 138.998554,237.681402 C135.588242,242.451092 131.061608,246.077261 126.408816,249.515351 C121.141438,253.407724 115.73575,257.113175 110.390247,260.899645 L46.1539357,260.899645 C46.1539357,236.980011 46.1539357,213.059797 46.1539357,189.140162" id="Fill-11" stroke="none" fill="#FBEFF0" fill-rule="evenodd"></path>
                                        <path d="M306.805358,253.062022 C302.909513,253.162138 299.455798,251.743731 296.109144,249.953216 C294.828469,249.26745 294.042587,248.325896 294.082518,246.751817 C294.157171,243.842086 292.839458,241.718815 290.117806,240.651104 C288.48875,240.011634 288.172198,238.648783 287.824975,237.244264 C286.897889,233.493674 287.394418,229.756394 288.166411,226.077563 C288.87764,222.688085 289.806463,219.338537 290.767692,216.008666 C292.662374,209.439201 291.771746,203.169505 288.585394,197.265552 C286.669879,193.71693 284.355635,190.379535 282.147295,186.995265 C279.937219,183.608102 277.514179,180.355198 275.407691,176.907849 C272.894951,172.796147 272.367172,168.443703 274.583614,163.958156 C277.022279,159.022956 276.927371,154.003264 275.396117,148.783919 C272.615437,139.306459 267.903616,130.863724 262.155913,122.93025 C260.47651,120.611956 258.613657,118.503153 258.530902,115.284972 C258.476504,113.171539 256.807517,111.531488 254.687719,111.04769 C252.720699,110.598615 251.606691,109.338194 250.350321,107.978815 C245.906441,103.171508 241.504807,98.3080672 236.803982,93.7582845 C232.197487,89.3010947 226.72872,86.3143955 220.099648,86.1147421 C218.469435,86.0655522 216.833434,86.2322194 215.199748,86.2680991 C213.961319,86.295877 212.721731,86.2738862 211.651126,86.2738862 C210.333992,85.1807114 210.282488,84.0574441 210.848462,82.7651947 C216.57591,69.6881863 224.129753,57.9890757 235.810924,49.351896 C237.477596,48.1192533 238.9151,47.5654321 241.057468,48.5058285 C242.738029,49.2442568 244.810373,49.3605766 246.691745,49.2917106 C248.354366,49.2309466 249.636777,49.5885866 250.946388,50.5689137 C269.302348,64.3143269 287.683771,78.0261752 306.061722,91.7426532 C306.290889,91.91395 306.556515,92.0366356 306.805358,92.1818907 L306.805358,253.062022 Z" id="Fill-13" stroke="none" fill="#FBEFF0" fill-rule="evenodd"></path>
                                        <path d="M310.594727,71.8515625 C270.863385,96.5208988 291.203016,81.8486335 250.59668,117.25" id="Path-9" stroke="#EED9DC" stroke-width="5" fill="none"></path>
                                        <path d="M120.228241,260.752588 C123.445843,258.308136 126.676178,255.879888 129.878734,253.41576 C134.469026,249.885077 139.029225,246.317358 142.558172,241.643153 C143.080743,240.951022 143.698221,240.294191 144.057019,239.52104 C145.389199,236.652976 146.720222,233.970097 149.959815,232.544167 C151.021161,232.077151 151.837714,230.024483 151.933779,228.639641 C152.07672,226.575398 152.959246,225.199236 154.399644,223.982797 C158.964473,220.126883 163.40025,216.101986 168.135798,212.468294 C177.323905,205.417346 186.948935,198.996608 197.083805,193.360595 C198.816449,192.397629 200.476755,191.493691 202.462872,192.733857 C202.843082,192.970548 203.417736,193.077608 203.861025,193.001798 C206.91659,192.480384 208.638817,194.317774 210.337318,196.414424 C213.552027,200.382029 216.88595,204.253569 220.118599,208.207285 C220.714665,208.936454 221.160847,209.828239 221.515015,210.709608 C226.640031,223.47643 230.401038,236.607837 231.691551,250.349199 C232.015048,253.793654 231.855904,257.283827 231.918404,260.752588 L120.228241,260.752588 Z" id="Fill-15" stroke="none" fill="#FBEFF0" fill-rule="evenodd"></path>
                                        <path d="M46.1539357,117.070967 C47.1973417,116.934392 48.2754701,116.919346 49.2772093,116.635202 C51.1713124,116.098163 52.9027993,115.950593 54.8761851,116.704068 C58.0660099,117.921664 60.9815282,116.4124 62.5457692,113.362622 C63.0851227,112.311114 63.7853564,111.097569 64.7483224,110.548377 C71.6679041,106.60392 77.7819278,101.647886 83.4769687,96.1299294 C83.8762755,95.7433542 84.3566011,95.4401125 85.0464181,94.9077034 C85.2240807,95.5662703 85.4486184,95.9881466 85.4329934,96.4007636 C85.0510477,106.726027 87.5759399,116.504414 91.4526881,125.911851 C94.9717963,134.449493 98.7617386,142.898015 102.912793,151.144569 C105.009443,155.309512 107.877508,159.186839 110.912239,162.756873 C116.286678,169.07981 123.558691,172.359334 131.496216,174.289895 C132.337075,174.494178 133.170411,174.733184 133.996802,174.988972 C134.135692,175.032375 134.22134,175.245338 134.482336,175.562469 C133.686037,175.947308 132.958605,176.361082 132.187769,176.663167 C115.578921,183.168395 98.4307191,186.703129 80.520941,185.92014 C69.1545861,185.423032 58.1765426,183.173025 47.778362,178.417223 C47.2569484,178.178796 46.6961827,178.027176 46.1539357,177.835045 C46.1539357,157.580353 46.1539357,137.32566 46.1539357,117.070967" id="Fill-17" stroke="none" fill="#FBEFF0" fill-rule="evenodd"></path>
                                        <path d="M46.1539357,10.9954047 C49.6302197,13.0538602 52.9890264,15.351321 56.6041997,17.1273682 C68.3582873,22.9028492 80.1974446,28.5058759 92.0279213,34.1245277 C93.8334825,34.9821693 95.2750379,35.9092555 95.8734194,38.0400492 C96.5018936,40.2784821 98.5707658,41.1818414 100.808041,41.9590429 C102.004226,46.022713 102.383278,50.2165918 102.112444,54.4480865 C101.54647,63.2947576 98.548775,71.0766106 92.2669267,77.5853114 C88.799902,81.1779152 85.9237356,85.3330208 82.596179,89.0697222 C77.2512549,95.0720558 71.1372312,100.198808 64.2899876,104.437826 C62.5885934,105.49107 61.0503942,106.043155 58.9277024,105.155421 C55.9606792,103.914097 52.6533772,105.089448 51.5902952,107.897906 C50.5497827,110.648493 48.6892445,111.467362 46.1539357,111.690163 L46.1539357,10.9954047 Z" id="Fill-19" stroke="none" fill="#FBEFF0" fill-rule="evenodd"></path>
                                        <path d="M237.551523,260.964356 C238.301526,246.103777 234.719339,231.956163 230.182287,217.593271 C230.84259,217.831698 231.203124,217.875101 231.453125,218.064338 C243.181749,226.943995 256.180632,233.670868 269.202085,240.361282 C272.710777,242.164528 276.257084,243.905275 279.670868,245.874609 C280.843325,246.550537 281.893097,247.699268 282.595645,248.873461 C283.847385,250.964903 285.538942,252.007152 287.914528,252.343958 C289.291847,252.539561 290.67611,253.040141 291.935373,253.654726 C296.712587,255.985173 301.505426,258.197565 306.996184,258.070828 L306.996184,260.964356 L237.551523,260.964356 Z" id="Fill-23" stroke="none" fill="#FBEFF0" fill-rule="evenodd"></path>
                                        <path d="M106.610245,42.2455021 C117.713868,48.7229529 126.882878,56.3711249 133.397945,66.9498616 C133.199449,67.6524101 133.054772,68.2004442 132.889262,68.7421125 C131.558818,73.0957141 133.260213,76.0656308 137.613814,77.3341532 C138.610924,77.6246634 139.606876,78.3850824 140.291485,79.1929553 C142.033388,81.2467812 143.473786,83.5616032 145.256199,85.5760771 C155.080883,96.6779636 167.274208,100.67161 181.734901,97.3151183 C185.194402,96.5124538 188.53932,95.2155747 191.932849,94.132238 C192.917227,93.8174222 193.886559,93.4551526 195.412027,92.9233222 C195.153924,94.315109 195.025452,95.2121025 194.818854,96.0905775 C193.254034,102.746848 191.589677,109.381128 190.115714,116.057075 C187.12207,129.615566 180.38073,141.115023 170.996441,151.166559 C165.912514,156.6116 160.228468,161.377239 153.996388,165.461743 C153.093029,166.053759 151.834345,166.674131 150.872536,166.5092 C146.907825,165.8298 143.87425,167.093114 141.506766,170.241272 C141.341256,170.46118 141.066371,170.598333 140.748662,170.847176 C128.539133,169.186292 117.494538,165.290446 110.672758,154.00974 C102.044259,139.740598 95.3885667,124.613815 91.7253609,108.28506 C90.4927181,102.792566 90.4371624,97.2271551 91.2872808,91.6218135 C91.9053383,87.5442545 93.5795333,84.1090586 96.4065097,81.18023 C105.489871,71.7698998 108.309325,60.3422021 107.203418,47.6540838 C107.063372,46.0493334 106.85388,44.4497914 106.610245,42.2455021" id="Fill-33" stroke="none" fill="#FBEFF0" fill-rule="evenodd"></path>
                                        <path d="M255.625669,122.432126 C262.91215,131.918845 269.14423,141.902094 271.381506,153.884192 C271.634979,155.243571 271.405233,156.762094 271.095625,158.138256 C270.760555,159.628423 270.114141,161.056668 269.525018,162.479126 C267.484503,167.408539 267.595035,172.350684 270.013446,177.022574 C271.908706,180.683465 274.306283,184.088568 276.534878,187.572954 C279.023312,191.463591 281.741492,195.218233 284.051684,199.210143 C286.938267,204.197427 287.438847,209.545824 285.698101,215.114128 C284.75076,218.14423 283.979925,221.236254 283.276797,224.333485 C282.0239,229.849706 281.816145,235.384446 283.751336,241.232265 C282.910477,241.041871 282.44867,241.036663 282.089294,240.842218 C269.807427,234.196942 257.381462,227.798774 245.306193,220.796437 C233.96125,214.218292 224.141775,205.72521 216.419529,194.97344 C215.188622,193.259893 213.671835,191.750051 212.279469,190.153402 C210.704812,188.347841 210.662566,187.881404 212.298567,186.321214 C220.627875,178.376166 224.306706,168.153912 226.568866,157.241841 C226.901043,155.64172 227.06771,154.00572 227.278359,152.381872 C228.000005,146.815304 229.898159,141.832649 233.619235,137.462265 C237.620405,132.763177 241.457222,127.947768 246.308511,124.061761 C248.009326,122.699488 249.640118,121.573327 252.041746,122.374255 C253.074736,122.719164 254.318952,122.432126 255.625669,122.432126" id="Fill-35" stroke="none" fill="#FBEFF0" fill-rule="evenodd"></path>
                                        <path d="M247.426554,112.642601 C247.353637,116.433701 245.487891,118.401879 242.978624,120.35501 C236.309043,125.545419 230.969327,132.052963 226.207738,138.992221 C223.411433,143.067465 222.499393,147.880558 221.972771,152.688444 C221.042213,161.182683 218.229125,169.013726 213.943811,176.326828 C212.699015,178.451256 210.973315,180.294433 209.889979,181.713419 C206.690316,181.713419 204.244128,181.780548 201.805463,181.676381 C200.98428,181.64108 200.124902,181.279389 199.379529,180.884134 C189.759708,175.787474 179.45412,173.220915 168.647952,172.45876 C167.231281,172.358644 165.820976,172.165356 164.209859,171.4576 C164.991112,170.812922 165.756739,170.147989 166.555353,169.525302 C179.475532,159.450039 189.786328,147.30764 196.299659,132.130509 C198.902097,126.066254 200.407889,119.706859 201.747592,113.275705 C202.729655,108.560991 204.028849,103.912829 205.17758,99.2328373 C205.556632,97.6876936 206.117398,96.2918559 207.744717,95.633289 C208.005135,95.5285433 208.245876,95.3306261 208.444372,95.126343 C210.245304,93.2750641 211.859314,91.4660307 214.928189,91.4521417 C219.695565,91.4307296 224.415487,91.1564232 228.604157,93.9741404 C230.201963,95.0487965 231.897571,96.0667395 233.236116,97.4197529 C237.77664,102.008888 242.182325,106.730546 246.620417,111.419797 C247.007571,111.828941 247.252364,112.372346 247.426554,112.642601" id="Fill-37" stroke="none" fill="#FBEFF0" fill-rule="evenodd"></path>
                                        <path d="M141.587965,70.9380101 C141.547455,72.8216965 140.114581,74.1266774 138.215848,74.0086215 C136.473366,73.9004036 135.237251,72.545654 135.275445,70.7869679 C135.316533,68.9108047 136.759246,67.5988793 138.652771,67.7157778 C140.396989,67.8228383 141.626159,69.1723796 141.587965,70.9380101" id="Fill-39" stroke="none" fill="#FEFEFE" fill-rule="evenodd"></path>
                                        <path d="M59.9938939,110.754865 C60.0124124,112.523968 58.7728252,113.851518 57.0187688,113.940639 C55.1275592,114.037283 53.6975779,112.705682 53.6773232,110.830676 C53.6570685,108.959142 55.0639016,107.585295 56.9435371,107.640851 C58.7161121,107.692934 59.9747966,108.978239 59.9938939,110.754865" id="Fill-41" stroke="none" fill="#FEFEFE" fill-rule="evenodd"></path>
                                        <path d="M252.4824,119.734483 C250.720242,119.757631 249.378803,118.513414 249.285053,116.768617 C249.1832,114.878565 250.510751,113.450898 252.392701,113.426593 C254.271758,113.402287 255.64329,114.796967 255.590628,116.678339 C255.540859,118.452071 254.260762,119.710756 252.4824,119.734483" id="Fill-43" stroke="none" fill="#FEFEFE" fill-rule="evenodd"></path>
                                        <path d="M207.556571,187.304011 C207.495807,189.074849 206.204136,190.327747 204.428089,190.338742 C202.552504,190.349738 201.183866,188.938854 201.24926,187.06269 C201.314075,185.191735 202.7782,183.897171 204.66883,184.038954 C206.414785,184.169742 207.617335,185.529121 207.556571,187.304011" id="Fill-45" stroke="none" fill="#EED9DC" fill-rule="evenodd"></path>
                                        <path d="M149.109581,228.168777 C149.161086,229.93788 147.946383,231.294944 146.202164,231.416473 C144.30864,231.547839 142.854932,230.248066 142.799376,228.373639 C142.74382,226.499791 144.122876,225.095272 145.997303,225.116684 C147.77335,225.13636 149.057497,226.395624 149.109581,228.168777" id="Fill-47" stroke="none" fill="#FEFEFE" fill-rule="evenodd"></path>
                                        <path d="M260.227591,231.140629 C260.238007,232.910889 258.994369,234.229759 257.235683,234.310778 C255.347367,234.398741 253.920858,233.05788 253.909284,231.184032 C253.89771,229.312498 255.310909,227.947911 257.192859,228.012147 C258.964276,228.072332 260.217174,229.364003 260.227591,231.140629" id="Fill-49" stroke="none" fill="#FEFEFE" fill-rule="evenodd"></path>
                                        <path d="M240.598987,41.1622359 C241.756976,40.5545951 242.608252,40.1084132 243.458949,39.6622312 C243.591473,39.3549386 243.723418,39.047646 243.855941,38.7403534 C243.055591,38.2611852 242.25582,37.782017 241.472253,37.3121082 C241.997718,36.6714812 242.458367,36.1101368 243.129087,35.2924259 C242.245404,34.8080494 241.560216,34.4324696 240.789959,34.0111719 C240.983826,33.8549215 241.17422,33.5684622 241.368086,33.5661474 C243.497722,33.5377908 243.975733,33.9909172 244.0174,35.9336316 C244.031289,36.5835179 244.020294,37.2542376 244.172493,37.8786609 C244.850157,40.6622344 244.033025,41.5129314 240.598987,41.1622359" id="Fill-51" stroke="none" fill="#FEFEFE" fill-rule="evenodd"></path>
                                        <path d="M249.741955,40.0795985 C248.967647,39.01941 248.487321,38.3625793 247.958963,37.6391974 C248.364636,37.1282004 248.815447,36.5599116 249.427139,35.7890759 C248.61753,35.2207871 247.929449,34.737568 247.185813,34.2155756 C249.947974,33.9406905 250.44161,34.3868724 250.170197,36.7219492 C250.107118,37.2641962 250.089178,37.8359573 250.185822,38.3695237 C250.701449,41.2080743 249.901678,41.9794887 246.386042,41.5165243 C247.542295,41.0217311 248.393571,40.6571466 249.741955,40.0795985" id="Fill-53" stroke="none" fill="#FEFEFE" fill-rule="evenodd"></path>
                                        <path d="M63.5151009,111.690163 C63.5151009,115.205799 60.6649763,118.055924 57.1493403,118.055924 C53.6337044,118.055924 50.7835797,115.205799 50.7835797,111.690163 C50.7835797,108.174527 53.6337044,105.324403 57.1493403,105.324403 C60.6649763,105.324403 63.5151009,108.174527 63.5151009,111.690163" id="Fill-55" stroke="none" fill="#ED808E" fill-rule="evenodd"></path>
                                        <path d="M259.117563,116.898513 C259.117563,120.414149 256.267438,123.264273 252.751802,123.264273 C249.236166,123.264273 246.386042,120.414149 246.386042,116.898513 C246.386042,113.382877 249.236166,110.532752 252.751802,110.532752 C256.267438,110.532752 259.117563,113.382877 259.117563,116.898513" id="Fill-57" stroke="none" fill="#ED808E" fill-rule="evenodd"></path>
                                        <path d="M263.747207,230.903498 C263.747207,234.419134 260.897082,237.269259 257.381446,237.269259 C253.86581,237.269259 251.015686,234.419134 251.015686,230.903498 C251.015686,227.387862 253.86581,224.537737 257.381446,224.537737 C260.897082,224.537737 263.747207,227.387862 263.747207,230.903498" id="Fill-59" stroke="none" fill="#ED808E" fill-rule="evenodd"></path>
                                        <path d="M152.635749,228.588676 C152.635749,232.104312 149.785625,234.954436 146.269989,234.954436 C142.754353,234.954436 139.904228,232.104312 139.904228,228.588676 C139.904228,225.07304 142.754353,222.222915 146.269989,222.222915 C149.785625,222.222915 152.635749,225.07304 152.635749,228.588676" id="Fill-61" stroke="none" fill="#ED808E" fill-rule="evenodd"></path>
                                        <path d="M163.970854,172.623802 C163.970854,180.70774 157.417593,187.261001 149.333656,187.261001 C141.249718,187.261001 134.695878,180.70774 134.695878,172.623802 C134.695878,164.539865 141.249718,157.986604 149.333656,157.986604 C157.417593,157.986604 163.970854,164.539865 163.970854,172.623802" id="Fill-63" stroke="none" fill="#E71D36" fill-rule="evenodd"></path>
                                        <path d="M155.396175,172.677043 C155.396175,175.996498 152.705194,178.6869 149.386318,178.6869 C146.066863,178.6869 143.376461,175.996498 143.376461,172.677043 C143.376461,169.358167 146.066863,166.667186 149.386318,166.667186 C152.705194,166.667186 155.396175,169.358167 155.396175,172.677043" id="Fill-65" stroke="none" fill="#F7E3E5" fill-rule="evenodd"></path>
                                        <path d="M260.099047,35.1922394 C260.099047,47.0516514 244.851315,58.0638385 244.851315,58.0638385 C244.851315,58.0638385 229.603582,47.0516514 229.603582,35.1922394 C229.603582,26.3050589 235.961819,19.0972818 244.851315,19.0972818 C253.739074,19.0972818 260.099047,26.3050589 260.099047,35.1922394" id="Fill-67" stroke="none" fill="#ED808E" fill-rule="evenodd"></path>
                                        <path d="M253.489652,34.5128391 C253.489652,39.1916732 249.695658,42.9839304 245.018561,42.9839304 C240.339148,42.9839304 236.548048,39.1916732 236.548048,34.5128391 C236.548048,29.8345838 240.339148,26.0417479 245.018561,26.0417479 C249.695658,26.0417479 253.489652,29.8345838 253.489652,34.5128391" id="Fill-69" stroke="none" fill="#FEFEFE" fill-rule="evenodd"></path>
                                    </g>
                                </g>
                            </g>
                            <path d="M107.202207,432.599837 C118.044966,432.599837 126.834759,423.821256 126.834759,412.992327 C126.834759,402.163397 118.044966,393.384816 107.202207,393.384816 C96.3594474,393.384816 87.5696552,402.163397 87.5696552,412.992327 C87.5696552,423.821256 96.3594474,432.599837 107.202207,432.599837 Z" id="home-button" fill="#F0818E"></path>
                            <rect id="Microphone" fill="#F9E5E7" x="89.8295172" y="36.7820408" width="34.7453793" height="5.07820408" rx="2.53910204"></rect>
                            <g id="camera" transform="translate(103.671172, 18.444082)" fill="#F0818E">
                                <ellipse id="Oval-2" cx="3.67227586" cy="3.66759184" rx="3.67227586" ry="3.66759184"></ellipse>
                                <ellipse id="Oval-2" cx="3.67227586" cy="3.66759184" rx="1.69489655" ry="1.69273469"></ellipse>
                            </g>
                        </g>
                        <rect id="Rectangle-4-Copy" fill="#E9D0D4" x="0" y="211" width="488" height="15" rx="7.5"></rect>
                    </g>
                    <path d="M425.53846,41.3045415 C425.53846,71.7393887 385.76923,100 385.76923,100 C385.76923,100 346,71.7393887 346,41.3045415 C346,18.4973416 362.583594,0 385.76923,0 C408.950338,0 425.53846,18.4973416 425.53846,41.3045415" id="Fill-67" fill="#E71D36"></path>
                    <path d="M408.187195,39.7393887 C408.187195,51.7466956 398.291678,61.4787774 386.092843,61.4787774 C373.88797,61.4787774 364,51.7466956 364,39.7393887 C364,27.733567 373.88797,18 386.092843,18 C398.291678,18 408.187195,27.733567 408.187195,39.7393887" id="Fill-69" fill="#FEFEFE"></path>
                </g>
            </g>
        </g>
    </g>
</svg>