<?xml version="1.0" encoding="UTF-8"?>
<svg width="19px" height="16px" viewBox="0 0 19 16" version="1.1" xmlns="http://www.w3.org/2000/svg" xmlns:xlink="http://www.w3.org/1999/xlink">
    <!-- Generator: Sketch 50 (54983) - http://www.bohemiancoding.com/sketch -->
    <title>Twitter</title>
    <desc>Created with Sketch.</desc>
    <defs></defs>
    <g id="Finals" stroke="none" stroke-width="1" fill="none" fill-rule="evenodd">
        <g id="Skool-Tales--Landing-Mobile-Menu" transform="translate(-179.000000, -596.000000)" fill="#FFFFFF">
            <g id="Group-41" transform="translate(135.000000, 594.000000)">
                <path d="M62.4759565,2.29579315 C61.722105,2.75819423 60.8891144,3.09448592 59.9987985,3.27442248 C59.2895896,2.49008362 58.2759993,2 57.1538462,2 C55.0028836,2 53.2572558,3.80859312 53.2572558,6.03908878 C53.2572558,6.35590016 53.2907377,6.66297139 53.3577017,6.95876454 C50.118068,6.79010605 47.2462286,5.18400564 45.3225376,2.737176 C44.9867033,3.33593925 44.794943,4.03056615 44.794943,4.77030534 C44.794943,6.1708372 45.4828452,7.40732434 46.5294102,8.13168434 C45.8912237,8.11220403 45.2890556,7.92867899 44.7624756,7.62827208 L44.7624756,7.6774855 C44.7624756,9.6352568 46.1063199,11.2685271 47.8910101,11.6381404 C47.5643073,11.7329788 47.2193416,11.7806543 46.8637225,11.7806543 C46.6126078,11.7806543 46.3675807,11.7560475 46.1301631,11.7088847 C46.626305,13.3129345 48.0650148,14.4812406 49.7710731,14.5125116 C48.4373748,15.5962321 46.7556671,16.2421582 44.9298855,16.2421582 C44.6153579,16.2421582 44.3043815,16.2237032 44,16.1867931 C45.7248285,17.3310051 47.7748378,18 49.975516,18 C57.1462366,18 61.0661629,11.8462721 61.0661629,6.50815418 C61.0661629,6.33231873 61.0631191,6.15699593 61.0565242,5.98474897 C61.8179852,5.41520618 62.4795076,4.70417481 63,3.89420397 C62.3019518,4.21511647 61.5501295,4.43247573 60.7617814,4.52987729 C61.5668705,4.03056615 62.1847649,3.23905033 62.4759565,2.29579315" id="Twitter"></path>
            </g>
        </g>
    </g>
</svg>